%TF.GenerationSoftware,KiCad,Pcbnew,10.0.6*%
%TF.CreationDate,2026-09-18T11:43:59+02:00*%
%TF.ProjectId,kicad_td,6b696361-645f-4746-942e-6b696361645f,rev?*%
%TF.SameCoordinates,Original*%
%TF.FileFunction,Copper,L3,Inr*%
%TF.FilePolarity,Positive*%
%FSLAX46Y46*%
G04 Gerber Fmt 4.6, Leading zero omitted, Abs format (unit mm)*
G04 Created by KiCad (PCBNEW 10.0.6) date 2026-09-18 11:43:59*
%MOMM*%
%LPD*%
G01*
G04 APERTURE LIST*
%TA.AperFunction,ComponentPad*%
%ADD10C,0.800000*%
%TD*%
%TA.AperFunction,ComponentPad*%
%ADD11C,6.400000*%
%TD*%
%TA.AperFunction,ComponentPad*%
%ADD12O,2.100000X1.000000*%
%TD*%
%TA.AperFunction,ComponentPad*%
%ADD13O,1.800000X1.000000*%
%TD*%
%TA.AperFunction,ViaPad*%
%ADD14C,0.450000*%
%TD*%
G04 APERTURE END LIST*
D10*
%TO.N,GND*%
%TO.C,H4*%
X113600000Y-66000000D03*
X114302944Y-64302944D03*
X114302944Y-67697056D03*
X116000000Y-63600000D03*
D11*
X116000000Y-66000000D03*
D10*
X116000000Y-68400000D03*
X117697056Y-64302944D03*
X117697056Y-67697056D03*
X118400000Y-66000000D03*
%TD*%
%TO.N,GND*%
%TO.C,H3*%
X71600000Y-66000000D03*
X72302944Y-64302944D03*
X72302944Y-67697056D03*
X74000000Y-63600000D03*
D11*
X74000000Y-66000000D03*
D10*
X74000000Y-68400000D03*
X75697056Y-64302944D03*
X75697056Y-67697056D03*
X76400000Y-66000000D03*
%TD*%
%TO.N,GND*%
%TO.C,H2*%
X113600000Y-34000000D03*
X114302944Y-32302944D03*
X114302944Y-35697056D03*
X116000000Y-31600000D03*
D11*
X116000000Y-34000000D03*
D10*
X116000000Y-36400000D03*
X117697056Y-32302944D03*
X117697056Y-35697056D03*
X118400000Y-34000000D03*
%TD*%
%TO.N,GND*%
%TO.C,H1*%
X71600000Y-34000000D03*
X72302944Y-32302944D03*
X72302944Y-35697056D03*
X74000000Y-31600000D03*
D11*
X74000000Y-34000000D03*
D10*
X74000000Y-36400000D03*
X75697056Y-32302944D03*
X75697056Y-35697056D03*
X76400000Y-34000000D03*
%TD*%
D12*
%TO.N,GND*%
%TO.C,J1*%
X76805000Y-45680000D03*
D13*
X72625000Y-45680000D03*
D12*
X76805000Y-54320000D03*
D13*
X72625000Y-54320000D03*
%TD*%
D14*
%TO.N,GND*%
X91300000Y-57600000D03*
X85800000Y-51600000D03*
X78900000Y-49800000D03*
X82000000Y-49300000D03*
%TO.N,VBUS*%
X74500000Y-40000000D03*
X82200000Y-50000000D03*
X78200000Y-52400000D03*
X78200000Y-47600000D03*
%TO.N,+5V*%
X81400000Y-40000000D03*
X82700000Y-36000000D03*
X85000000Y-36800000D03*
%TO.N,+3.3V*%
X94000000Y-38000000D03*
X85750000Y-39150000D03*
X88120000Y-45100000D03*
X88500000Y-46400000D03*
X91000000Y-44800000D03*
X91000000Y-43700000D03*
X97500000Y-53500000D03*
X113400000Y-52500000D03*
%TO.N,GND*%
X100300000Y-50400000D03*
X84100000Y-39100000D03*
X83100000Y-38137500D03*
X89080000Y-45100000D03*
X89600000Y-45600000D03*
X91800000Y-43700000D03*
X91800000Y-44800000D03*
X95500000Y-33212500D03*
X113400000Y-47500000D03*
X111950000Y-50600000D03*
X101900000Y-55380000D03*
X103080000Y-54600000D03*
X100800000Y-53700000D03*
X96300000Y-54400000D03*
X76700000Y-56000000D03*
X80000000Y-50000000D03*
X78200000Y-46800000D03*
X78200000Y-53200000D03*
X76700000Y-44000000D03*
%TD*%
%TA.AperFunction,Conductor*%
%TO.N,+3.3V*%
G36*
X115172534Y-30505345D02*
G01*
X115178237Y-30507198D01*
X115227738Y-30543162D01*
X115246645Y-30601353D01*
X115227738Y-30659544D01*
X115187318Y-30692056D01*
X115185553Y-30692828D01*
X115174618Y-30696862D01*
X114853040Y-30794410D01*
X114544354Y-30922273D01*
X114544352Y-30922274D01*
X114544310Y-30922294D01*
X114249689Y-31079770D01*
X113971883Y-31265397D01*
X113971882Y-31265397D01*
X113713620Y-31477347D01*
X113477347Y-31713620D01*
X113265397Y-31971882D01*
X113265397Y-31971883D01*
X113079770Y-32249689D01*
X112922294Y-32544310D01*
X112922274Y-32544352D01*
X112922273Y-32544354D01*
X112794410Y-32853040D01*
X112697431Y-33172741D01*
X112632247Y-33500447D01*
X112599500Y-33832938D01*
X112599500Y-34167060D01*
X112632247Y-34499551D01*
X112697431Y-34827257D01*
X112794410Y-35146958D01*
X112845099Y-35269332D01*
X112922273Y-35455645D01*
X112922286Y-35455672D01*
X112922294Y-35455688D01*
X113079766Y-35750301D01*
X113079771Y-35750309D01*
X113079773Y-35750312D01*
X113209181Y-35943982D01*
X113265399Y-36028118D01*
X113477357Y-36286390D01*
X113713610Y-36522643D01*
X113971882Y-36734601D01*
X114110783Y-36827412D01*
X114249687Y-36920226D01*
X114513551Y-37061263D01*
X114532259Y-37071262D01*
X114544336Y-37077718D01*
X114544339Y-37077719D01*
X114544346Y-37077723D01*
X114849804Y-37204248D01*
X114850663Y-37204640D01*
X114852394Y-37205330D01*
X114853651Y-37205841D01*
X114854530Y-37206205D01*
X114857662Y-37206989D01*
X115129376Y-37289412D01*
X115172749Y-37302569D01*
X115500441Y-37367751D01*
X115832944Y-37400500D01*
X115832947Y-37400500D01*
X116167053Y-37400500D01*
X116167056Y-37400500D01*
X116499559Y-37367751D01*
X116827251Y-37302569D01*
X117081315Y-37225500D01*
X117081316Y-37225500D01*
X117145700Y-37205970D01*
X117148292Y-37205222D01*
X117149589Y-37204866D01*
X117153702Y-37202795D01*
X117455654Y-37077723D01*
X117667972Y-36964237D01*
X117750312Y-36920226D01*
X117750315Y-36920224D01*
X118028118Y-36734601D01*
X118286390Y-36522643D01*
X118522643Y-36286390D01*
X118734601Y-36028118D01*
X118920224Y-35750315D01*
X118922717Y-35745649D01*
X118926416Y-35738733D01*
X118986771Y-35625813D01*
X119077380Y-35456293D01*
X119077665Y-35455771D01*
X119077713Y-35455672D01*
X119077723Y-35455654D01*
X119205582Y-35146976D01*
X119205588Y-35146958D01*
X119229886Y-35066856D01*
X119301242Y-34831623D01*
X119309599Y-34811997D01*
X119313999Y-34804141D01*
X119358933Y-34762614D01*
X119419695Y-34755428D01*
X119473076Y-34785330D01*
X119497071Y-34831309D01*
X119497200Y-34831897D01*
X119499500Y-34853112D01*
X119499500Y-65141940D01*
X119494651Y-65172543D01*
X119492797Y-65178247D01*
X119456828Y-65227743D01*
X119398636Y-65246644D01*
X119340447Y-65227731D01*
X119307938Y-65187305D01*
X119307142Y-65185485D01*
X119303717Y-65175662D01*
X119303558Y-65175716D01*
X119302995Y-65174028D01*
X119302183Y-65171478D01*
X119255701Y-65018246D01*
X119205588Y-64853040D01*
X119078370Y-64545909D01*
X119077976Y-64544911D01*
X119077725Y-64544352D01*
X119077723Y-64544346D01*
X119077713Y-64544327D01*
X119077676Y-64544257D01*
X118920232Y-64249697D01*
X118920227Y-64249689D01*
X118920226Y-64249687D01*
X118827412Y-64110783D01*
X118734601Y-63971882D01*
X118522643Y-63713610D01*
X118286390Y-63477357D01*
X118028118Y-63265399D01*
X117958667Y-63218993D01*
X117750309Y-63079770D01*
X117457810Y-62923428D01*
X117456111Y-62922465D01*
X117448886Y-62919473D01*
X117448879Y-62919470D01*
X117146958Y-62794410D01*
X116827257Y-62697431D01*
X116606777Y-62653576D01*
X116503667Y-62633066D01*
X116500812Y-62632371D01*
X116290590Y-62611666D01*
X116256491Y-62608308D01*
X116246553Y-62607329D01*
X116167064Y-62599500D01*
X116167056Y-62599500D01*
X115832944Y-62599500D01*
X115832937Y-62599500D01*
X115734700Y-62609176D01*
X115500447Y-62632247D01*
X115172741Y-62697431D01*
X114853040Y-62794410D01*
X114544354Y-62922273D01*
X114544352Y-62922274D01*
X114544310Y-62922294D01*
X114249689Y-63079770D01*
X113971883Y-63265397D01*
X113971882Y-63265397D01*
X113713620Y-63477347D01*
X113477347Y-63713620D01*
X113265397Y-63971882D01*
X113265397Y-63971883D01*
X113079770Y-64249689D01*
X112922294Y-64544310D01*
X112922274Y-64544352D01*
X112922273Y-64544354D01*
X112794410Y-64853040D01*
X112697431Y-65172741D01*
X112632247Y-65500447D01*
X112599500Y-65832938D01*
X112599500Y-66167060D01*
X112632247Y-66499551D01*
X112697431Y-66827257D01*
X112794410Y-67146958D01*
X112845099Y-67269332D01*
X112922273Y-67455645D01*
X112922286Y-67455672D01*
X112922294Y-67455688D01*
X113079770Y-67750309D01*
X113218993Y-67958667D01*
X113265399Y-68028118D01*
X113477357Y-68286390D01*
X113713610Y-68522643D01*
X113971882Y-68734601D01*
X114110783Y-68827412D01*
X114249687Y-68920226D01*
X114249692Y-68920228D01*
X114249697Y-68920232D01*
X114544329Y-69077715D01*
X114544342Y-69077721D01*
X114544349Y-69077725D01*
X114695562Y-69140358D01*
X114849804Y-69204248D01*
X114850668Y-69204642D01*
X114852379Y-69205324D01*
X114853655Y-69205842D01*
X114854533Y-69206206D01*
X114857662Y-69206989D01*
X115168375Y-69301242D01*
X115188005Y-69309601D01*
X115193431Y-69312640D01*
X115195857Y-69313999D01*
X115237385Y-69358933D01*
X115244571Y-69419695D01*
X115214669Y-69473076D01*
X115168724Y-69497064D01*
X115168137Y-69497193D01*
X115146888Y-69499500D01*
X74858058Y-69499500D01*
X74827455Y-69494651D01*
X74821751Y-69492797D01*
X74772255Y-69456828D01*
X74753354Y-69398636D01*
X74772267Y-69340447D01*
X74812689Y-69307940D01*
X74814481Y-69307156D01*
X74825393Y-69303132D01*
X74827245Y-69302570D01*
X74827251Y-69302569D01*
X75047930Y-69235627D01*
X75145702Y-69205969D01*
X75148298Y-69205220D01*
X75149590Y-69204866D01*
X75153702Y-69202795D01*
X75455654Y-69077723D01*
X75599640Y-69000760D01*
X75750312Y-68920226D01*
X75766023Y-68909728D01*
X76028118Y-68734601D01*
X76286390Y-68522643D01*
X76522643Y-68286390D01*
X76734601Y-68028118D01*
X76920224Y-67750315D01*
X76920228Y-67750309D01*
X77000760Y-67599640D01*
X77077723Y-67455654D01*
X77205582Y-67146976D01*
X77205588Y-67146958D01*
X77302568Y-66827253D01*
X77302569Y-66827251D01*
X77367751Y-66499559D01*
X77400500Y-66167056D01*
X77400500Y-65832944D01*
X77367751Y-65500441D01*
X77302569Y-65172749D01*
X77289412Y-65129376D01*
X77205588Y-64853040D01*
X77078370Y-64545909D01*
X77077976Y-64544911D01*
X77077725Y-64544352D01*
X77077723Y-64544346D01*
X77077713Y-64544327D01*
X77077676Y-64544257D01*
X76920232Y-64249697D01*
X76920227Y-64249689D01*
X76920226Y-64249687D01*
X76827412Y-64110783D01*
X76734601Y-63971882D01*
X76522643Y-63713610D01*
X76286390Y-63477357D01*
X76028118Y-63265399D01*
X75958667Y-63218993D01*
X75750309Y-63079770D01*
X75457810Y-62923428D01*
X75456111Y-62922465D01*
X75448886Y-62919473D01*
X75448879Y-62919470D01*
X75146958Y-62794410D01*
X74827257Y-62697431D01*
X74606777Y-62653576D01*
X74503667Y-62633066D01*
X74500812Y-62632371D01*
X74290590Y-62611666D01*
X74256491Y-62608308D01*
X74246553Y-62607329D01*
X74167064Y-62599500D01*
X74167056Y-62599500D01*
X73832944Y-62599500D01*
X73832937Y-62599500D01*
X73734700Y-62609176D01*
X73500447Y-62632247D01*
X73172741Y-62697431D01*
X72853040Y-62794410D01*
X72544354Y-62922273D01*
X72544352Y-62922274D01*
X72544310Y-62922294D01*
X72249689Y-63079770D01*
X71971883Y-63265397D01*
X71971882Y-63265397D01*
X71713620Y-63477347D01*
X71477347Y-63713620D01*
X71265397Y-63971882D01*
X71265397Y-63971883D01*
X71079770Y-64249689D01*
X70922294Y-64544310D01*
X70922274Y-64544352D01*
X70922273Y-64544354D01*
X70794410Y-64853040D01*
X70698759Y-65168368D01*
X70690396Y-65188008D01*
X70686002Y-65195853D01*
X70641070Y-65237384D01*
X70580309Y-65244572D01*
X70526926Y-65214672D01*
X70502901Y-65168568D01*
X70502773Y-65167980D01*
X70500500Y-65146888D01*
X70500500Y-57543982D01*
X90874500Y-57543982D01*
X90874500Y-57549861D01*
X90874500Y-57656017D01*
X90900071Y-57751453D01*
X90903497Y-57764241D01*
X90959513Y-57861260D01*
X90959515Y-57861263D01*
X91038737Y-57940485D01*
X91038739Y-57940486D01*
X91039289Y-57940883D01*
X91041300Y-57941964D01*
X91078989Y-57963725D01*
X91100585Y-57987708D01*
X91134893Y-57996285D01*
X91136496Y-57996699D01*
X91243982Y-58025500D01*
X91243984Y-58025500D01*
X91356016Y-58025500D01*
X91356018Y-58025500D01*
X91464237Y-57996503D01*
X91464238Y-57996501D01*
X91464240Y-57996501D01*
X91464241Y-57996501D01*
X91493064Y-57979859D01*
X91561263Y-57940485D01*
X91640485Y-57861263D01*
X91696503Y-57764237D01*
X91725500Y-57656018D01*
X91725500Y-57543982D01*
X91696503Y-57435763D01*
X91696501Y-57435760D01*
X91696501Y-57435758D01*
X91696499Y-57435755D01*
X91696409Y-57435418D01*
X91694915Y-57433011D01*
X91641967Y-57341303D01*
X91640885Y-57339293D01*
X91640486Y-57338739D01*
X91640485Y-57338737D01*
X91561263Y-57259515D01*
X91561260Y-57259513D01*
X91521526Y-57236572D01*
X91500492Y-57213210D01*
X91422251Y-57192247D01*
X91422250Y-57192246D01*
X91373764Y-57179255D01*
X91356018Y-57174500D01*
X91356017Y-57174500D01*
X91243983Y-57174500D01*
X91243982Y-57174500D01*
X91229986Y-57178250D01*
X91177748Y-57192246D01*
X91177748Y-57192247D01*
X91144626Y-57201121D01*
X91135754Y-57203499D01*
X91038741Y-57259511D01*
X90959509Y-57338743D01*
X90903497Y-57435758D01*
X90903219Y-57436494D01*
X90902995Y-57437454D01*
X90903003Y-57437570D01*
X90902826Y-57438265D01*
X90874500Y-57543982D01*
X70500500Y-57543982D01*
X70500500Y-56304500D01*
X70519407Y-56246309D01*
X70568907Y-56210345D01*
X70599500Y-56205500D01*
X76183559Y-56205500D01*
X76188866Y-56205430D01*
X76188891Y-56205429D01*
X76188916Y-56205429D01*
X76194098Y-56205293D01*
X76243907Y-56195383D01*
X76304666Y-56202572D01*
X76348958Y-56242979D01*
X76359513Y-56261260D01*
X76359515Y-56261263D01*
X76438737Y-56340485D01*
X76438739Y-56340486D01*
X76439289Y-56340883D01*
X76441300Y-56341964D01*
X76478989Y-56363725D01*
X76500585Y-56387708D01*
X76534893Y-56396285D01*
X76536496Y-56396699D01*
X76643982Y-56425500D01*
X76643984Y-56425500D01*
X76756016Y-56425500D01*
X76756018Y-56425500D01*
X76864237Y-56396503D01*
X76864238Y-56396501D01*
X76864240Y-56396501D01*
X76864241Y-56396501D01*
X76893064Y-56379859D01*
X76961263Y-56340485D01*
X77040485Y-56261263D01*
X77050706Y-56243558D01*
X77096174Y-56202619D01*
X77151928Y-56195278D01*
X77216471Y-56205500D01*
X77216475Y-56205500D01*
X83900993Y-56205500D01*
X83901000Y-56205500D01*
X83933144Y-56202970D01*
X83963737Y-56198125D01*
X83963748Y-56198123D01*
X83963793Y-56198116D01*
X83968281Y-56197353D01*
X83968280Y-56197353D01*
X83968287Y-56197352D01*
X84052383Y-56161408D01*
X84101883Y-56125444D01*
X84129628Y-56101203D01*
X84176536Y-56022693D01*
X84195443Y-55964502D01*
X84205500Y-55901000D01*
X84205500Y-55323982D01*
X101474500Y-55323982D01*
X101474500Y-55329861D01*
X101474500Y-55436017D01*
X101500071Y-55531453D01*
X101503497Y-55544241D01*
X101537711Y-55603498D01*
X101537711Y-55603499D01*
X101559511Y-55641258D01*
X101559513Y-55641260D01*
X101559515Y-55641263D01*
X101638737Y-55720485D01*
X101638739Y-55720486D01*
X101639289Y-55720883D01*
X101641300Y-55721964D01*
X101678989Y-55743725D01*
X101700585Y-55767708D01*
X101734893Y-55776285D01*
X101736496Y-55776699D01*
X101843982Y-55805500D01*
X101843984Y-55805500D01*
X101956016Y-55805500D01*
X101956018Y-55805500D01*
X102064237Y-55776503D01*
X102064238Y-55776501D01*
X102064240Y-55776501D01*
X102064241Y-55776501D01*
X102093064Y-55759859D01*
X102161263Y-55720485D01*
X102240485Y-55641263D01*
X102296503Y-55544237D01*
X102325500Y-55436018D01*
X102325500Y-55323982D01*
X102296503Y-55215763D01*
X102296501Y-55215760D01*
X102296501Y-55215758D01*
X102296499Y-55215755D01*
X102296409Y-55215418D01*
X102294915Y-55213011D01*
X102241967Y-55121303D01*
X102240885Y-55119293D01*
X102240486Y-55118739D01*
X102240485Y-55118737D01*
X102161263Y-55039515D01*
X102161260Y-55039513D01*
X102121526Y-55016572D01*
X102100492Y-54993210D01*
X102022251Y-54972247D01*
X102022250Y-54972246D01*
X101973764Y-54959255D01*
X101956018Y-54954500D01*
X101956017Y-54954500D01*
X101843983Y-54954500D01*
X101843982Y-54954500D01*
X101829986Y-54958250D01*
X101777748Y-54972246D01*
X101777748Y-54972247D01*
X101749339Y-54979859D01*
X101735754Y-54983499D01*
X101638741Y-55039511D01*
X101559509Y-55118743D01*
X101503497Y-55215758D01*
X101503219Y-55216494D01*
X101502995Y-55217454D01*
X101503003Y-55217570D01*
X101502826Y-55218265D01*
X101474500Y-55323982D01*
X84205500Y-55323982D01*
X84205500Y-54343982D01*
X95874500Y-54343982D01*
X95874500Y-54349861D01*
X95874500Y-54456017D01*
X95892804Y-54524329D01*
X95892803Y-54524329D01*
X95898070Y-54543983D01*
X95903498Y-54564241D01*
X95959513Y-54661260D01*
X95959515Y-54661263D01*
X96038737Y-54740485D01*
X96038739Y-54740486D01*
X96039289Y-54740883D01*
X96041300Y-54741964D01*
X96078989Y-54763725D01*
X96100585Y-54787708D01*
X96134893Y-54796285D01*
X96136496Y-54796699D01*
X96243982Y-54825500D01*
X96243984Y-54825500D01*
X96356016Y-54825500D01*
X96356018Y-54825500D01*
X96464237Y-54796503D01*
X96464239Y-54796501D01*
X96464241Y-54796501D01*
X96516131Y-54766542D01*
X96561263Y-54740485D01*
X96640485Y-54661263D01*
X96696503Y-54564237D01*
X96701930Y-54543982D01*
X102654500Y-54543982D01*
X102654500Y-54656018D01*
X102677133Y-54740484D01*
X102677133Y-54740485D01*
X102677133Y-54740487D01*
X102683495Y-54764235D01*
X102683498Y-54764242D01*
X102697047Y-54787708D01*
X102718867Y-54825500D01*
X102739515Y-54861263D01*
X102818737Y-54940485D01*
X102818739Y-54940486D01*
X102819243Y-54940777D01*
X102819242Y-54940778D01*
X102819257Y-54940785D01*
X102858990Y-54963725D01*
X102880584Y-54987708D01*
X102914893Y-54996285D01*
X102916496Y-54996699D01*
X103023982Y-55025500D01*
X103023984Y-55025500D01*
X103136016Y-55025500D01*
X103136018Y-55025500D01*
X103244237Y-54996503D01*
X103244238Y-54996501D01*
X103244240Y-54996501D01*
X103244241Y-54996501D01*
X103273064Y-54979859D01*
X103341263Y-54940485D01*
X103420485Y-54861263D01*
X103476503Y-54764237D01*
X103505500Y-54656018D01*
X103505500Y-54543982D01*
X103476503Y-54435763D01*
X103476501Y-54435760D01*
X103476501Y-54435758D01*
X103476499Y-54435755D01*
X103476409Y-54435418D01*
X103474915Y-54433011D01*
X103421967Y-54341303D01*
X103420885Y-54339293D01*
X103420486Y-54338739D01*
X103420485Y-54338737D01*
X103341263Y-54259515D01*
X103341260Y-54259513D01*
X103301526Y-54236572D01*
X103280492Y-54213210D01*
X103202251Y-54192247D01*
X103202250Y-54192246D01*
X103153764Y-54179255D01*
X103136018Y-54174500D01*
X103136017Y-54174500D01*
X103023983Y-54174500D01*
X103023982Y-54174500D01*
X103009986Y-54178250D01*
X102957748Y-54192246D01*
X102957748Y-54192247D01*
X102924626Y-54201121D01*
X102915754Y-54203499D01*
X102818741Y-54259511D01*
X102739511Y-54338741D01*
X102683499Y-54435755D01*
X102683498Y-54435757D01*
X102683498Y-54435758D01*
X102667286Y-54496263D01*
X102654500Y-54543982D01*
X96701930Y-54543982D01*
X96725500Y-54456018D01*
X96725500Y-54343982D01*
X96696503Y-54235763D01*
X96696501Y-54235760D01*
X96696501Y-54235758D01*
X96696499Y-54235755D01*
X96696409Y-54235418D01*
X96694915Y-54233011D01*
X96641967Y-54141303D01*
X96640885Y-54139293D01*
X96640486Y-54138739D01*
X96640485Y-54138737D01*
X96561263Y-54059515D01*
X96561260Y-54059513D01*
X96521526Y-54036572D01*
X96500492Y-54013210D01*
X96407080Y-53988182D01*
X96407079Y-53988181D01*
X96369699Y-53978165D01*
X96356018Y-53974500D01*
X96356017Y-53974500D01*
X96243983Y-53974500D01*
X96243982Y-53974500D01*
X96235074Y-53976886D01*
X96192919Y-53988181D01*
X96192920Y-53988182D01*
X96135754Y-54003499D01*
X96038741Y-54059511D01*
X95959509Y-54138743D01*
X95903497Y-54235758D01*
X95903219Y-54236494D01*
X95902995Y-54237454D01*
X95903003Y-54237570D01*
X95902826Y-54238265D01*
X95874500Y-54343982D01*
X84205500Y-54343982D01*
X84205500Y-53643982D01*
X100374500Y-53643982D01*
X100374500Y-53756018D01*
X100379824Y-53775886D01*
X100403498Y-53864241D01*
X100459513Y-53961260D01*
X100459515Y-53961263D01*
X100538737Y-54040485D01*
X100538739Y-54040486D01*
X100539289Y-54040883D01*
X100541300Y-54041964D01*
X100578989Y-54063725D01*
X100600585Y-54087708D01*
X100634893Y-54096285D01*
X100636496Y-54096699D01*
X100743982Y-54125500D01*
X100743984Y-54125500D01*
X100856016Y-54125500D01*
X100856018Y-54125500D01*
X100964237Y-54096503D01*
X100964238Y-54096501D01*
X100964240Y-54096501D01*
X100964241Y-54096501D01*
X100993064Y-54079859D01*
X101061263Y-54040485D01*
X101140485Y-53961263D01*
X101196503Y-53864237D01*
X101225500Y-53756018D01*
X101225500Y-53643982D01*
X101196503Y-53535763D01*
X101196501Y-53535760D01*
X101196501Y-53535758D01*
X101196499Y-53535755D01*
X101196409Y-53535418D01*
X101194915Y-53533011D01*
X101141967Y-53441303D01*
X101140885Y-53439293D01*
X101140486Y-53438739D01*
X101140485Y-53438737D01*
X101061263Y-53359515D01*
X101061260Y-53359513D01*
X101021526Y-53336572D01*
X101000492Y-53313210D01*
X100922251Y-53292247D01*
X100922250Y-53292246D01*
X100873764Y-53279255D01*
X100856018Y-53274500D01*
X100856017Y-53274500D01*
X100743983Y-53274500D01*
X100743982Y-53274500D01*
X100729986Y-53278250D01*
X100677748Y-53292246D01*
X100677748Y-53292247D01*
X100644626Y-53301121D01*
X100635754Y-53303499D01*
X100538741Y-53359511D01*
X100459509Y-53438743D01*
X100403500Y-53535753D01*
X100403498Y-53535756D01*
X100402231Y-53540484D01*
X100402231Y-53540486D01*
X100374500Y-53643982D01*
X84205500Y-53643982D01*
X84205500Y-51543982D01*
X85374500Y-51543982D01*
X85374500Y-51549861D01*
X85374500Y-51656017D01*
X85400071Y-51751453D01*
X85403497Y-51764241D01*
X85459513Y-51861260D01*
X85459515Y-51861263D01*
X85538737Y-51940485D01*
X85538739Y-51940486D01*
X85539289Y-51940883D01*
X85541300Y-51941964D01*
X85578989Y-51963725D01*
X85600585Y-51987708D01*
X85634893Y-51996285D01*
X85636496Y-51996699D01*
X85743982Y-52025500D01*
X85743984Y-52025500D01*
X85856016Y-52025500D01*
X85856018Y-52025500D01*
X85964237Y-51996503D01*
X85964238Y-51996501D01*
X85964240Y-51996501D01*
X85964241Y-51996501D01*
X86002347Y-51974500D01*
X86061263Y-51940485D01*
X86140485Y-51861263D01*
X86196503Y-51764237D01*
X86225500Y-51656018D01*
X86225500Y-51543982D01*
X86196503Y-51435763D01*
X86196501Y-51435760D01*
X86196501Y-51435758D01*
X86196499Y-51435755D01*
X86196409Y-51435418D01*
X86194915Y-51433011D01*
X86141967Y-51341303D01*
X86140885Y-51339293D01*
X86140486Y-51338739D01*
X86140485Y-51338737D01*
X86061263Y-51259515D01*
X86061260Y-51259513D01*
X86021526Y-51236572D01*
X86000492Y-51213210D01*
X85922251Y-51192247D01*
X85922250Y-51192246D01*
X85873764Y-51179255D01*
X85856018Y-51174500D01*
X85856017Y-51174500D01*
X85743983Y-51174500D01*
X85743982Y-51174500D01*
X85729986Y-51178250D01*
X85677748Y-51192246D01*
X85677748Y-51192247D01*
X85644626Y-51201121D01*
X85635754Y-51203499D01*
X85538741Y-51259511D01*
X85459509Y-51338743D01*
X85403497Y-51435758D01*
X85403219Y-51436494D01*
X85402995Y-51437454D01*
X85403003Y-51437570D01*
X85402826Y-51438265D01*
X85374500Y-51543982D01*
X84205500Y-51543982D01*
X84205500Y-50343982D01*
X99874500Y-50343982D01*
X99874500Y-50456018D01*
X99898070Y-50543982D01*
X99898069Y-50543982D01*
X99898070Y-50543984D01*
X99903495Y-50564234D01*
X99903498Y-50564242D01*
X99956485Y-50656016D01*
X99959513Y-50661260D01*
X99959515Y-50661263D01*
X100038737Y-50740485D01*
X100038739Y-50740486D01*
X100039289Y-50740883D01*
X100041300Y-50741964D01*
X100078989Y-50763725D01*
X100100585Y-50787708D01*
X100134893Y-50796285D01*
X100136496Y-50796699D01*
X100243982Y-50825500D01*
X100243984Y-50825500D01*
X100356016Y-50825500D01*
X100356018Y-50825500D01*
X100464237Y-50796503D01*
X100464239Y-50796501D01*
X100464241Y-50796501D01*
X100520123Y-50764237D01*
X100520127Y-50764235D01*
X100524984Y-50761430D01*
X100561263Y-50740485D01*
X100640485Y-50661263D01*
X100696503Y-50564237D01*
X100701930Y-50543982D01*
X111524500Y-50543982D01*
X111524500Y-50656018D01*
X111547133Y-50740485D01*
X111547133Y-50740487D01*
X111553495Y-50764235D01*
X111553498Y-50764242D01*
X111567047Y-50787708D01*
X111588867Y-50825500D01*
X111609515Y-50861263D01*
X111688737Y-50940485D01*
X111688739Y-50940486D01*
X111689289Y-50940883D01*
X111691300Y-50941964D01*
X111728989Y-50963725D01*
X111750585Y-50987708D01*
X111784893Y-50996285D01*
X111786496Y-50996699D01*
X111893982Y-51025500D01*
X111893984Y-51025500D01*
X112006016Y-51025500D01*
X112006018Y-51025500D01*
X112114237Y-50996503D01*
X112114239Y-50996501D01*
X112114241Y-50996501D01*
X112143064Y-50979859D01*
X112211263Y-50940485D01*
X112290485Y-50861263D01*
X112346503Y-50764237D01*
X112375500Y-50656018D01*
X112375500Y-50543982D01*
X112346503Y-50435763D01*
X112346501Y-50435760D01*
X112346501Y-50435758D01*
X112346499Y-50435755D01*
X112346409Y-50435418D01*
X112344915Y-50433011D01*
X112291967Y-50341303D01*
X112290885Y-50339293D01*
X112290486Y-50338739D01*
X112290485Y-50338737D01*
X112211263Y-50259515D01*
X112211260Y-50259513D01*
X112171526Y-50236572D01*
X112150492Y-50213210D01*
X112072251Y-50192247D01*
X112072250Y-50192246D01*
X112023764Y-50179255D01*
X112006018Y-50174500D01*
X112006017Y-50174500D01*
X111893983Y-50174500D01*
X111893982Y-50174500D01*
X111879986Y-50178250D01*
X111827748Y-50192246D01*
X111827748Y-50192247D01*
X111794626Y-50201121D01*
X111785754Y-50203499D01*
X111688741Y-50259511D01*
X111609511Y-50338741D01*
X111553499Y-50435755D01*
X111553498Y-50435757D01*
X111553498Y-50435758D01*
X111537286Y-50496263D01*
X111524500Y-50543982D01*
X100701930Y-50543982D01*
X100725500Y-50456018D01*
X100725500Y-50343982D01*
X100696503Y-50235763D01*
X100696501Y-50235760D01*
X100696501Y-50235758D01*
X100696499Y-50235755D01*
X100696409Y-50235418D01*
X100694915Y-50233011D01*
X100641967Y-50141303D01*
X100640885Y-50139293D01*
X100640486Y-50138739D01*
X100640485Y-50138737D01*
X100561263Y-50059515D01*
X100561260Y-50059513D01*
X100521526Y-50036572D01*
X100500492Y-50013210D01*
X100422251Y-49992247D01*
X100422250Y-49992246D01*
X100373764Y-49979255D01*
X100356018Y-49974500D01*
X100356017Y-49974500D01*
X100243983Y-49974500D01*
X100243982Y-49974500D01*
X100229986Y-49978250D01*
X100177748Y-49992246D01*
X100177748Y-49992247D01*
X100144626Y-50001121D01*
X100135754Y-50003499D01*
X100038741Y-50059511D01*
X99959509Y-50138743D01*
X99903497Y-50235758D01*
X99903219Y-50236494D01*
X99902995Y-50237454D01*
X99903003Y-50237570D01*
X99902826Y-50238265D01*
X99874500Y-50343982D01*
X84205500Y-50343982D01*
X84205500Y-47443982D01*
X112974500Y-47443982D01*
X112974500Y-47556018D01*
X112981207Y-47581049D01*
X113003498Y-47664241D01*
X113059513Y-47761260D01*
X113059515Y-47761263D01*
X113138737Y-47840485D01*
X113138739Y-47840486D01*
X113139289Y-47840883D01*
X113141300Y-47841964D01*
X113178989Y-47863725D01*
X113200585Y-47887708D01*
X113234893Y-47896285D01*
X113236496Y-47896699D01*
X113343982Y-47925500D01*
X113343984Y-47925500D01*
X113456016Y-47925500D01*
X113456018Y-47925500D01*
X113564237Y-47896503D01*
X113564239Y-47896501D01*
X113564241Y-47896501D01*
X113625274Y-47861263D01*
X113661263Y-47840485D01*
X113740485Y-47761263D01*
X113796503Y-47664237D01*
X113825500Y-47556018D01*
X113825500Y-47443982D01*
X113796503Y-47335763D01*
X113796501Y-47335760D01*
X113796501Y-47335758D01*
X113796499Y-47335755D01*
X113796409Y-47335418D01*
X113794915Y-47333011D01*
X113741967Y-47241303D01*
X113740885Y-47239293D01*
X113740486Y-47238739D01*
X113740485Y-47238737D01*
X113661263Y-47159515D01*
X113661260Y-47159513D01*
X113621526Y-47136572D01*
X113600492Y-47113210D01*
X113522251Y-47092247D01*
X113522250Y-47092246D01*
X113473764Y-47079255D01*
X113456018Y-47074500D01*
X113456017Y-47074500D01*
X113343983Y-47074500D01*
X113343982Y-47074500D01*
X113329986Y-47078250D01*
X113277748Y-47092246D01*
X113277748Y-47092247D01*
X113244626Y-47101121D01*
X113235754Y-47103499D01*
X113138741Y-47159511D01*
X113059511Y-47238741D01*
X113003499Y-47335755D01*
X113003498Y-47335757D01*
X113003498Y-47335758D01*
X112987286Y-47396263D01*
X112974500Y-47443982D01*
X84205500Y-47443982D01*
X84205500Y-45043982D01*
X88654500Y-45043982D01*
X88654500Y-45156018D01*
X88665348Y-45196503D01*
X88682231Y-45259513D01*
X88683499Y-45264243D01*
X88726510Y-45338739D01*
X88731969Y-45348193D01*
X88739515Y-45361263D01*
X88818737Y-45440485D01*
X88818739Y-45440486D01*
X88819289Y-45440883D01*
X88821300Y-45441964D01*
X88858989Y-45463725D01*
X88880585Y-45487708D01*
X88914893Y-45496285D01*
X88916496Y-45496699D01*
X89023982Y-45525500D01*
X89023984Y-45525500D01*
X89059820Y-45525500D01*
X89090408Y-45530343D01*
X89103095Y-45534466D01*
X89152595Y-45570427D01*
X89152596Y-45570428D01*
X89155591Y-45574550D01*
X89174500Y-45632740D01*
X89174500Y-45656018D01*
X89199412Y-45748991D01*
X89199412Y-45748993D01*
X89203495Y-45764235D01*
X89203498Y-45764242D01*
X89259513Y-45861260D01*
X89259515Y-45861263D01*
X89338737Y-45940485D01*
X89338739Y-45940486D01*
X89339289Y-45940883D01*
X89341300Y-45941964D01*
X89378989Y-45963725D01*
X89400585Y-45987708D01*
X89434893Y-45996285D01*
X89436496Y-45996699D01*
X89543982Y-46025500D01*
X89543984Y-46025500D01*
X89656016Y-46025500D01*
X89656018Y-46025500D01*
X89764237Y-45996503D01*
X89764238Y-45996501D01*
X89764240Y-45996501D01*
X89764241Y-45996501D01*
X89793064Y-45979859D01*
X89861263Y-45940485D01*
X89940485Y-45861263D01*
X89996503Y-45764237D01*
X90025500Y-45656018D01*
X90025500Y-45543982D01*
X89996503Y-45435763D01*
X89996501Y-45435760D01*
X89996501Y-45435758D01*
X89996499Y-45435755D01*
X89996409Y-45435418D01*
X89994915Y-45433011D01*
X89941967Y-45341303D01*
X89940885Y-45339293D01*
X89940486Y-45338739D01*
X89940485Y-45338737D01*
X89861263Y-45259515D01*
X89861260Y-45259513D01*
X89821526Y-45236572D01*
X89800492Y-45213210D01*
X89722251Y-45192247D01*
X89722250Y-45192246D01*
X89673764Y-45179255D01*
X89656018Y-45174500D01*
X89656017Y-45174500D01*
X89620180Y-45174500D01*
X89619058Y-45174135D01*
X89617931Y-45174474D01*
X89589587Y-45169654D01*
X89576901Y-45165532D01*
X89564218Y-45156317D01*
X89561989Y-45155593D01*
X89560611Y-45153696D01*
X89527401Y-45129568D01*
X89527394Y-45129558D01*
X89524400Y-45125436D01*
X89505500Y-45067256D01*
X89505500Y-45043984D01*
X89505500Y-45043983D01*
X89488222Y-44979500D01*
X89476503Y-44935763D01*
X89476501Y-44935760D01*
X89476501Y-44935758D01*
X89473171Y-44929990D01*
X89427056Y-44850117D01*
X89427053Y-44850114D01*
X89420486Y-44838739D01*
X89420485Y-44838737D01*
X89341263Y-44759515D01*
X89314361Y-44743983D01*
X89314359Y-44743982D01*
X91374500Y-44743982D01*
X91374500Y-44856017D01*
X91400071Y-44951453D01*
X91403497Y-44964241D01*
X91458334Y-45059218D01*
X91459516Y-45061265D01*
X91504345Y-45106093D01*
X91538737Y-45140485D01*
X91565641Y-45156018D01*
X91578989Y-45163724D01*
X91600585Y-45187708D01*
X91634893Y-45196285D01*
X91636496Y-45196699D01*
X91743982Y-45225500D01*
X91743984Y-45225500D01*
X91856016Y-45225500D01*
X91856018Y-45225500D01*
X91964237Y-45196503D01*
X91964238Y-45196501D01*
X91964240Y-45196501D01*
X91964241Y-45196501D01*
X92002347Y-45174500D01*
X92061263Y-45140485D01*
X92140485Y-45061263D01*
X92196503Y-44964237D01*
X92225500Y-44856018D01*
X92225500Y-44743982D01*
X92196503Y-44635763D01*
X92196501Y-44635760D01*
X92196501Y-44635758D01*
X92196499Y-44635755D01*
X92196409Y-44635418D01*
X92194915Y-44633011D01*
X92141967Y-44541303D01*
X92140885Y-44539293D01*
X92140486Y-44538739D01*
X92140485Y-44538737D01*
X92061263Y-44459515D01*
X92061260Y-44459513D01*
X92021526Y-44436572D01*
X92000492Y-44413210D01*
X91922251Y-44392247D01*
X91922250Y-44392246D01*
X91873764Y-44379255D01*
X91856018Y-44374500D01*
X91856017Y-44374500D01*
X91743983Y-44374500D01*
X91743982Y-44374500D01*
X91729986Y-44378250D01*
X91677748Y-44392246D01*
X91677748Y-44392247D01*
X91644626Y-44401121D01*
X91635754Y-44403499D01*
X91538741Y-44459511D01*
X91459511Y-44538741D01*
X91403499Y-44635755D01*
X91403498Y-44635757D01*
X91403498Y-44635758D01*
X91403497Y-44635763D01*
X91387286Y-44696263D01*
X91374500Y-44743982D01*
X89314359Y-44743982D01*
X89307069Y-44739773D01*
X89307068Y-44739772D01*
X89301527Y-44736573D01*
X89280492Y-44713210D01*
X89202251Y-44692247D01*
X89202250Y-44692246D01*
X89153764Y-44679255D01*
X89136018Y-44674500D01*
X89136017Y-44674500D01*
X89023983Y-44674500D01*
X89023982Y-44674500D01*
X89009986Y-44678250D01*
X88957748Y-44692246D01*
X88957748Y-44692247D01*
X88942760Y-44696263D01*
X88915754Y-44703499D01*
X88818741Y-44759511D01*
X88739509Y-44838743D01*
X88683497Y-44935758D01*
X88683219Y-44936494D01*
X88682995Y-44937454D01*
X88683003Y-44937570D01*
X88682826Y-44938265D01*
X88654500Y-45043982D01*
X84205500Y-45043982D01*
X84205500Y-44099000D01*
X84202970Y-44066856D01*
X84198125Y-44036263D01*
X84198116Y-44036206D01*
X84197353Y-44031718D01*
X84197352Y-44031713D01*
X84161408Y-43947617D01*
X84158766Y-43943980D01*
X84125444Y-43898117D01*
X84101203Y-43870372D01*
X84022693Y-43823464D01*
X84022691Y-43823463D01*
X84022689Y-43823462D01*
X83964499Y-43804556D01*
X83964500Y-43804556D01*
X83901003Y-43794500D01*
X83901000Y-43794500D01*
X77216475Y-43794500D01*
X77216441Y-43794500D01*
X77211133Y-43794569D01*
X77205898Y-43794707D01*
X77156092Y-43804616D01*
X77095331Y-43797426D01*
X77060280Y-43770363D01*
X77055113Y-43764074D01*
X77040486Y-43738739D01*
X77040485Y-43738737D01*
X76961263Y-43659515D01*
X76934361Y-43643983D01*
X76934359Y-43643982D01*
X91374500Y-43643982D01*
X91374500Y-43756017D01*
X91400071Y-43851453D01*
X91403497Y-43864241D01*
X91449536Y-43943980D01*
X91459515Y-43961263D01*
X91459518Y-43961267D01*
X91529965Y-44031713D01*
X91538737Y-44040485D01*
X91565641Y-44056018D01*
X91578989Y-44063724D01*
X91600585Y-44087708D01*
X91634893Y-44096285D01*
X91636496Y-44096699D01*
X91743982Y-44125500D01*
X91743984Y-44125500D01*
X91856016Y-44125500D01*
X91856018Y-44125500D01*
X91964237Y-44096503D01*
X91964238Y-44096501D01*
X91964240Y-44096501D01*
X91964241Y-44096501D01*
X91993064Y-44079859D01*
X92061263Y-44040485D01*
X92140485Y-43961263D01*
X92196503Y-43864237D01*
X92225500Y-43756018D01*
X92225500Y-43643982D01*
X92196503Y-43535763D01*
X92196501Y-43535760D01*
X92196501Y-43535758D01*
X92196499Y-43535755D01*
X92196409Y-43535418D01*
X92194915Y-43533011D01*
X92141967Y-43441303D01*
X92140885Y-43439293D01*
X92140486Y-43438739D01*
X92140485Y-43438737D01*
X92061263Y-43359515D01*
X92061260Y-43359513D01*
X92021526Y-43336572D01*
X92000492Y-43313210D01*
X91922251Y-43292247D01*
X91922250Y-43292246D01*
X91873764Y-43279255D01*
X91856018Y-43274500D01*
X91856017Y-43274500D01*
X91743983Y-43274500D01*
X91743982Y-43274500D01*
X91729986Y-43278250D01*
X91677748Y-43292246D01*
X91677748Y-43292247D01*
X91644626Y-43301121D01*
X91635754Y-43303499D01*
X91538741Y-43359511D01*
X91459511Y-43438741D01*
X91403499Y-43535755D01*
X91403498Y-43535757D01*
X91403498Y-43535758D01*
X91403497Y-43535763D01*
X91387286Y-43596263D01*
X91374500Y-43643982D01*
X76934359Y-43643982D01*
X76927069Y-43639773D01*
X76927068Y-43639772D01*
X76921527Y-43636573D01*
X76900492Y-43613210D01*
X76822251Y-43592247D01*
X76822250Y-43592246D01*
X76773764Y-43579255D01*
X76756018Y-43574500D01*
X76756017Y-43574500D01*
X76643983Y-43574500D01*
X76643982Y-43574500D01*
X76629986Y-43578250D01*
X76577748Y-43592246D01*
X76577748Y-43592247D01*
X76562760Y-43596263D01*
X76535754Y-43603499D01*
X76438740Y-43659511D01*
X76374503Y-43723748D01*
X76319986Y-43751525D01*
X76259554Y-43741953D01*
X76216290Y-43698688D01*
X76205500Y-43653744D01*
X76205500Y-39099006D01*
X76205500Y-39099000D01*
X76202970Y-39066856D01*
X76198125Y-39036263D01*
X76198116Y-39036206D01*
X76197353Y-39031718D01*
X76197352Y-39031713D01*
X76161408Y-38947617D01*
X76125444Y-38898117D01*
X76101203Y-38870372D01*
X76022693Y-38823464D01*
X76022691Y-38823463D01*
X76022689Y-38823462D01*
X75964499Y-38804556D01*
X75964500Y-38804556D01*
X75901003Y-38794500D01*
X75901000Y-38794500D01*
X70599500Y-38794500D01*
X70541309Y-38775593D01*
X70505345Y-38726093D01*
X70500500Y-38695500D01*
X70500500Y-34858058D01*
X70505344Y-34827470D01*
X70507197Y-34821766D01*
X70543158Y-34772264D01*
X70601348Y-34753354D01*
X70659539Y-34772258D01*
X70692056Y-34812681D01*
X70692828Y-34814446D01*
X70696862Y-34825381D01*
X70794410Y-35146958D01*
X70845099Y-35269332D01*
X70922273Y-35455645D01*
X70922286Y-35455672D01*
X70922294Y-35455688D01*
X71079766Y-35750301D01*
X71079771Y-35750309D01*
X71079773Y-35750312D01*
X71209181Y-35943982D01*
X71265399Y-36028118D01*
X71477357Y-36286390D01*
X71713610Y-36522643D01*
X71971882Y-36734601D01*
X72110783Y-36827412D01*
X72249687Y-36920226D01*
X72513551Y-37061263D01*
X72532259Y-37071262D01*
X72544336Y-37077718D01*
X72544339Y-37077719D01*
X72544346Y-37077723D01*
X72849804Y-37204248D01*
X72850663Y-37204640D01*
X72852394Y-37205330D01*
X72853651Y-37205841D01*
X72854530Y-37206205D01*
X72857662Y-37206989D01*
X73129376Y-37289412D01*
X73172749Y-37302569D01*
X73500441Y-37367751D01*
X73832944Y-37400500D01*
X73832947Y-37400500D01*
X74167053Y-37400500D01*
X74167056Y-37400500D01*
X74499559Y-37367751D01*
X74827251Y-37302569D01*
X75081315Y-37225500D01*
X75081316Y-37225500D01*
X75145700Y-37205970D01*
X75148292Y-37205222D01*
X75149589Y-37204866D01*
X75153702Y-37202795D01*
X75455654Y-37077723D01*
X75667972Y-36964237D01*
X75750312Y-36920226D01*
X75750315Y-36920224D01*
X76028118Y-36734601D01*
X76286390Y-36522643D01*
X76522643Y-36286390D01*
X76734601Y-36028118D01*
X76800287Y-35929812D01*
X76831907Y-35882491D01*
X76920226Y-35750312D01*
X77077414Y-35456230D01*
X77077667Y-35455766D01*
X77077713Y-35455672D01*
X77077723Y-35455654D01*
X77205582Y-35146976D01*
X77205585Y-35146967D01*
X77220137Y-35098996D01*
X79794500Y-35098996D01*
X79794500Y-35099000D01*
X79794500Y-38108535D01*
X79794500Y-39071035D01*
X79794500Y-40901000D01*
X79797030Y-40933143D01*
X79801883Y-40963793D01*
X79802646Y-40968281D01*
X79802647Y-40968286D01*
X79838591Y-41052382D01*
X79838592Y-41052383D01*
X79874556Y-41101883D01*
X79898797Y-41129628D01*
X79977307Y-41176536D01*
X80035498Y-41195443D01*
X80047552Y-41197352D01*
X80098996Y-41205500D01*
X80099000Y-41205500D01*
X85200993Y-41205500D01*
X85201000Y-41205500D01*
X85233144Y-41202970D01*
X85263737Y-41198125D01*
X85263748Y-41198123D01*
X85263793Y-41198116D01*
X85268281Y-41197353D01*
X85268280Y-41197353D01*
X85268287Y-41197352D01*
X85352383Y-41161408D01*
X85401883Y-41125444D01*
X85429628Y-41101203D01*
X85476536Y-41022693D01*
X85495443Y-40964502D01*
X85505500Y-40901000D01*
X85505500Y-35099000D01*
X85502970Y-35066856D01*
X85498125Y-35036263D01*
X85498116Y-35036206D01*
X85497353Y-35031714D01*
X85497352Y-35031713D01*
X85461408Y-34947617D01*
X85425444Y-34898117D01*
X85401203Y-34870372D01*
X85322693Y-34823464D01*
X85322691Y-34823463D01*
X85322689Y-34823462D01*
X85264499Y-34804556D01*
X85264500Y-34804556D01*
X85201003Y-34794500D01*
X85201000Y-34794500D01*
X80099000Y-34794500D01*
X80066856Y-34797030D01*
X80036206Y-34801883D01*
X80031718Y-34802646D01*
X80031713Y-34802647D01*
X79947617Y-34838591D01*
X79898118Y-34874555D01*
X79870372Y-34898797D01*
X79823464Y-34977307D01*
X79823462Y-34977310D01*
X79804556Y-35035499D01*
X79794500Y-35098996D01*
X77220137Y-35098996D01*
X77230033Y-35066373D01*
X77288219Y-34874556D01*
X77302569Y-34827251D01*
X77367751Y-34499559D01*
X77400500Y-34167056D01*
X77400500Y-33832944D01*
X77367751Y-33500441D01*
X77302569Y-33172749D01*
X77297634Y-33156482D01*
X95074500Y-33156482D01*
X95074500Y-33268518D01*
X95087566Y-33317281D01*
X95103498Y-33376741D01*
X95159513Y-33473760D01*
X95159515Y-33473763D01*
X95238737Y-33552985D01*
X95238739Y-33552986D01*
X95239289Y-33553383D01*
X95241300Y-33554464D01*
X95278989Y-33576225D01*
X95300585Y-33600208D01*
X95334893Y-33608785D01*
X95336496Y-33609199D01*
X95443982Y-33638000D01*
X95443984Y-33638000D01*
X95556016Y-33638000D01*
X95556018Y-33638000D01*
X95664237Y-33609003D01*
X95664238Y-33609001D01*
X95664240Y-33609001D01*
X95664241Y-33609001D01*
X95693064Y-33592359D01*
X95761263Y-33552985D01*
X95840485Y-33473763D01*
X95896503Y-33376737D01*
X95925500Y-33268518D01*
X95925500Y-33156482D01*
X95896503Y-33048263D01*
X95896501Y-33048260D01*
X95896501Y-33048258D01*
X95896499Y-33048255D01*
X95896409Y-33047918D01*
X95894915Y-33045511D01*
X95841967Y-32953803D01*
X95840885Y-32951793D01*
X95840486Y-32951239D01*
X95840485Y-32951237D01*
X95761263Y-32872015D01*
X95761260Y-32872013D01*
X95721526Y-32849072D01*
X95700492Y-32825710D01*
X95622251Y-32804747D01*
X95622250Y-32804746D01*
X95573764Y-32791755D01*
X95556018Y-32787000D01*
X95556017Y-32787000D01*
X95443983Y-32787000D01*
X95443982Y-32787000D01*
X95429986Y-32790750D01*
X95377748Y-32804746D01*
X95377748Y-32804747D01*
X95344626Y-32813621D01*
X95335754Y-32815999D01*
X95238741Y-32872011D01*
X95159509Y-32951243D01*
X95103497Y-33048258D01*
X95103219Y-33048994D01*
X95102995Y-33049954D01*
X95103003Y-33050070D01*
X95102826Y-33050765D01*
X95074500Y-33156482D01*
X77297634Y-33156482D01*
X77235375Y-32951239D01*
X77235374Y-32951237D01*
X77205590Y-32853048D01*
X77205587Y-32853040D01*
X77205585Y-32853032D01*
X77125960Y-32660799D01*
X77077723Y-32544346D01*
X76974029Y-32350347D01*
X76974028Y-32350344D01*
X76920229Y-32249692D01*
X76920221Y-32249679D01*
X76790661Y-32055782D01*
X76734601Y-31971882D01*
X76522643Y-31713610D01*
X76286390Y-31477357D01*
X76028118Y-31265399D01*
X75958667Y-31218993D01*
X75750309Y-31079770D01*
X75457810Y-30923428D01*
X75456111Y-30922465D01*
X75448886Y-30919473D01*
X75448879Y-30919470D01*
X75146958Y-30794410D01*
X74831627Y-30698756D01*
X74811993Y-30690397D01*
X74804152Y-30686006D01*
X74762619Y-30641077D01*
X74755426Y-30580316D01*
X74785322Y-30526931D01*
X74831462Y-30502895D01*
X74832055Y-30502764D01*
X74853112Y-30500500D01*
X115141942Y-30500500D01*
X115172534Y-30505345D01*
G37*
%TD.AperFunction*%
%TD*%
%TA.AperFunction,Conductor*%
%TO.N,VBUS*%
G36*
X75959191Y-39018907D02*
G01*
X75995155Y-39068407D01*
X76000000Y-39099000D01*
X76000000Y-44000000D01*
X76183525Y-44000000D01*
X76241716Y-44018907D01*
X76277680Y-44068407D01*
X76279144Y-44073352D01*
X76286017Y-44099000D01*
X76303498Y-44164241D01*
X76359513Y-44261260D01*
X76359515Y-44261263D01*
X76438737Y-44340485D01*
X76438739Y-44340486D01*
X76535759Y-44396501D01*
X76535757Y-44396501D01*
X76535761Y-44396502D01*
X76535763Y-44396503D01*
X76643982Y-44425500D01*
X76643984Y-44425500D01*
X76756016Y-44425500D01*
X76756018Y-44425500D01*
X76864237Y-44396503D01*
X76864239Y-44396501D01*
X76864241Y-44396501D01*
X76893064Y-44379859D01*
X76961263Y-44340485D01*
X77040485Y-44261263D01*
X77096503Y-44164237D01*
X77120849Y-44073375D01*
X77154172Y-44022063D01*
X77211293Y-44000136D01*
X77216475Y-44000000D01*
X83901000Y-44000000D01*
X83959191Y-44018907D01*
X83995155Y-44068407D01*
X84000000Y-44099000D01*
X84000000Y-55901000D01*
X83981093Y-55959191D01*
X83931593Y-55995155D01*
X83901000Y-56000000D01*
X77216475Y-56000000D01*
X77158284Y-55981093D01*
X77122320Y-55931593D01*
X77120855Y-55926647D01*
X77096503Y-55835763D01*
X77096501Y-55835760D01*
X77096501Y-55835758D01*
X77040486Y-55738739D01*
X77040485Y-55738737D01*
X76961263Y-55659515D01*
X76961260Y-55659513D01*
X76864240Y-55603498D01*
X76864242Y-55603498D01*
X76822251Y-55592247D01*
X76756018Y-55574500D01*
X76643982Y-55574500D01*
X76577748Y-55592247D01*
X76535758Y-55603498D01*
X76438739Y-55659513D01*
X76359513Y-55738739D01*
X76303498Y-55835758D01*
X76303497Y-55835763D01*
X76279150Y-55926624D01*
X76245828Y-55977937D01*
X76188707Y-55999864D01*
X76183525Y-56000000D01*
X70599500Y-56000000D01*
X70541309Y-55981093D01*
X70505345Y-55931593D01*
X70500500Y-55901000D01*
X70500500Y-54251004D01*
X71524500Y-54251004D01*
X71524500Y-54388995D01*
X71551420Y-54524327D01*
X71551420Y-54524329D01*
X71604222Y-54651806D01*
X71604228Y-54651817D01*
X71680885Y-54766541D01*
X71778458Y-54864114D01*
X71893182Y-54940771D01*
X71893193Y-54940777D01*
X71940283Y-54960282D01*
X72020672Y-54993580D01*
X72156007Y-55020500D01*
X72156008Y-55020500D01*
X73093992Y-55020500D01*
X73093993Y-55020500D01*
X73229328Y-54993580D01*
X73356811Y-54940775D01*
X73471542Y-54864114D01*
X73569114Y-54766542D01*
X73645775Y-54651811D01*
X73698580Y-54524328D01*
X73725500Y-54388993D01*
X73725500Y-54251007D01*
X73725499Y-54251004D01*
X75554500Y-54251004D01*
X75554500Y-54388995D01*
X75581420Y-54524327D01*
X75581420Y-54524329D01*
X75634222Y-54651806D01*
X75634228Y-54651817D01*
X75710885Y-54766541D01*
X75808458Y-54864114D01*
X75923182Y-54940771D01*
X75923193Y-54940777D01*
X75970283Y-54960282D01*
X76050672Y-54993580D01*
X76186007Y-55020500D01*
X76186008Y-55020500D01*
X77423992Y-55020500D01*
X77423993Y-55020500D01*
X77559328Y-54993580D01*
X77686811Y-54940775D01*
X77801542Y-54864114D01*
X77899114Y-54766542D01*
X77975775Y-54651811D01*
X78028580Y-54524328D01*
X78055500Y-54388993D01*
X78055500Y-54251007D01*
X78028580Y-54115672D01*
X77975775Y-53988189D01*
X77975774Y-53988187D01*
X77975771Y-53988182D01*
X77899114Y-53873458D01*
X77801541Y-53775885D01*
X77686817Y-53699228D01*
X77686806Y-53699222D01*
X77559328Y-53646420D01*
X77423995Y-53619500D01*
X77423993Y-53619500D01*
X76186007Y-53619500D01*
X76186004Y-53619500D01*
X76050672Y-53646420D01*
X76050670Y-53646420D01*
X75923193Y-53699222D01*
X75923182Y-53699228D01*
X75808458Y-53775885D01*
X75710885Y-53873458D01*
X75634228Y-53988182D01*
X75634222Y-53988193D01*
X75581420Y-54115670D01*
X75581420Y-54115672D01*
X75554500Y-54251004D01*
X73725499Y-54251004D01*
X73698580Y-54115672D01*
X73645775Y-53988189D01*
X73645774Y-53988187D01*
X73645771Y-53988182D01*
X73569114Y-53873458D01*
X73471541Y-53775885D01*
X73356817Y-53699228D01*
X73356806Y-53699222D01*
X73229328Y-53646420D01*
X73093995Y-53619500D01*
X73093993Y-53619500D01*
X72156007Y-53619500D01*
X72156004Y-53619500D01*
X72020672Y-53646420D01*
X72020670Y-53646420D01*
X71893193Y-53699222D01*
X71893182Y-53699228D01*
X71778458Y-53775885D01*
X71680885Y-53873458D01*
X71604228Y-53988182D01*
X71604222Y-53988193D01*
X71551420Y-54115670D01*
X71551420Y-54115672D01*
X71524500Y-54251004D01*
X70500500Y-54251004D01*
X70500500Y-52823450D01*
X75799500Y-52823450D01*
X75799500Y-52956550D01*
X75820724Y-53035758D01*
X75833950Y-53085120D01*
X75900497Y-53200381D01*
X75900499Y-53200384D01*
X75994616Y-53294501D01*
X75994618Y-53294502D01*
X76109880Y-53361049D01*
X76109878Y-53361049D01*
X76109882Y-53361050D01*
X76109884Y-53361051D01*
X76238450Y-53395500D01*
X76238452Y-53395500D01*
X76371548Y-53395500D01*
X76371550Y-53395500D01*
X76500116Y-53361051D01*
X76500118Y-53361049D01*
X76500120Y-53361049D01*
X76534362Y-53341278D01*
X76615384Y-53294501D01*
X76709501Y-53200384D01*
X76742065Y-53143982D01*
X77774500Y-53143982D01*
X77774500Y-53256018D01*
X77784812Y-53294502D01*
X77803498Y-53364241D01*
X77859513Y-53461260D01*
X77859515Y-53461263D01*
X77938737Y-53540485D01*
X77938739Y-53540486D01*
X78035759Y-53596501D01*
X78035757Y-53596501D01*
X78035761Y-53596502D01*
X78035763Y-53596503D01*
X78143982Y-53625500D01*
X78143984Y-53625500D01*
X78256016Y-53625500D01*
X78256018Y-53625500D01*
X78364237Y-53596503D01*
X78364239Y-53596501D01*
X78364241Y-53596501D01*
X78393064Y-53579859D01*
X78461263Y-53540485D01*
X78540485Y-53461263D01*
X78596503Y-53364237D01*
X78625500Y-53256018D01*
X78625500Y-53143982D01*
X78596503Y-53035763D01*
X78596501Y-53035760D01*
X78596501Y-53035758D01*
X78540486Y-52938739D01*
X78540485Y-52938737D01*
X78461263Y-52859515D01*
X78461260Y-52859513D01*
X78364240Y-52803498D01*
X78364242Y-52803498D01*
X78322251Y-52792247D01*
X78256018Y-52774500D01*
X78143982Y-52774500D01*
X78077748Y-52792247D01*
X78035758Y-52803498D01*
X77938739Y-52859513D01*
X77859513Y-52938739D01*
X77803498Y-53035758D01*
X77803497Y-53035763D01*
X77774500Y-53143982D01*
X76742065Y-53143982D01*
X76774391Y-53087993D01*
X76775708Y-53085709D01*
X76776051Y-53085116D01*
X76810500Y-52956550D01*
X76810500Y-52823450D01*
X76776051Y-52694884D01*
X76776049Y-52694881D01*
X76776049Y-52694879D01*
X76709502Y-52579618D01*
X76709501Y-52579616D01*
X76615384Y-52485499D01*
X76615381Y-52485497D01*
X76500119Y-52418950D01*
X76500121Y-52418950D01*
X76450235Y-52405583D01*
X76371550Y-52384500D01*
X76238450Y-52384500D01*
X76159764Y-52405583D01*
X76109879Y-52418950D01*
X75994618Y-52485497D01*
X75900497Y-52579618D01*
X75833950Y-52694879D01*
X75833949Y-52694884D01*
X75799500Y-52823450D01*
X70500500Y-52823450D01*
X70500500Y-49743982D01*
X78474500Y-49743982D01*
X78474500Y-49856018D01*
X78498070Y-49943982D01*
X78503498Y-49964241D01*
X78559513Y-50061260D01*
X78559515Y-50061263D01*
X78638737Y-50140485D01*
X78638739Y-50140486D01*
X78735759Y-50196501D01*
X78735757Y-50196501D01*
X78735761Y-50196502D01*
X78735763Y-50196503D01*
X78843982Y-50225500D01*
X78843984Y-50225500D01*
X78956016Y-50225500D01*
X78956018Y-50225500D01*
X79064237Y-50196503D01*
X79064239Y-50196501D01*
X79064241Y-50196501D01*
X79120123Y-50164237D01*
X79161263Y-50140485D01*
X79240485Y-50061263D01*
X79296503Y-49964237D01*
X79301930Y-49943982D01*
X79574500Y-49943982D01*
X79574500Y-50056018D01*
X79597133Y-50140485D01*
X79603498Y-50164241D01*
X79638867Y-50225500D01*
X79659515Y-50261263D01*
X79738737Y-50340485D01*
X79738739Y-50340486D01*
X79835759Y-50396501D01*
X79835757Y-50396501D01*
X79835761Y-50396502D01*
X79835763Y-50396503D01*
X79943982Y-50425500D01*
X79943984Y-50425500D01*
X80056016Y-50425500D01*
X80056018Y-50425500D01*
X80164237Y-50396503D01*
X80164239Y-50396501D01*
X80164241Y-50396501D01*
X80193064Y-50379859D01*
X80261263Y-50340485D01*
X80340485Y-50261263D01*
X80396503Y-50164237D01*
X80425500Y-50056018D01*
X80425500Y-49943982D01*
X80396503Y-49835763D01*
X80396501Y-49835760D01*
X80396501Y-49835758D01*
X80340486Y-49738739D01*
X80340485Y-49738737D01*
X80261263Y-49659515D01*
X80261260Y-49659513D01*
X80164240Y-49603498D01*
X80164242Y-49603498D01*
X80122251Y-49592247D01*
X80056018Y-49574500D01*
X79943982Y-49574500D01*
X79877748Y-49592247D01*
X79835758Y-49603498D01*
X79738739Y-49659513D01*
X79659513Y-49738739D01*
X79603498Y-49835758D01*
X79587286Y-49896263D01*
X79574500Y-49943982D01*
X79301930Y-49943982D01*
X79325500Y-49856018D01*
X79325500Y-49743982D01*
X79296503Y-49635763D01*
X79296501Y-49635760D01*
X79296501Y-49635758D01*
X79240486Y-49538739D01*
X79240485Y-49538737D01*
X79161263Y-49459515D01*
X79161260Y-49459513D01*
X79064240Y-49403498D01*
X79064242Y-49403498D01*
X79022251Y-49392247D01*
X78956018Y-49374500D01*
X78843982Y-49374500D01*
X78777748Y-49392247D01*
X78735758Y-49403498D01*
X78638739Y-49459513D01*
X78559513Y-49538739D01*
X78503498Y-49635758D01*
X78502231Y-49640486D01*
X78474500Y-49743982D01*
X70500500Y-49743982D01*
X70500500Y-49243982D01*
X81574500Y-49243982D01*
X81574500Y-49356018D01*
X81587222Y-49403497D01*
X81603498Y-49464241D01*
X81659513Y-49561260D01*
X81659515Y-49561263D01*
X81738737Y-49640485D01*
X81738739Y-49640486D01*
X81835759Y-49696501D01*
X81835757Y-49696501D01*
X81835761Y-49696502D01*
X81835763Y-49696503D01*
X81943982Y-49725500D01*
X81943984Y-49725500D01*
X82056016Y-49725500D01*
X82056018Y-49725500D01*
X82164237Y-49696503D01*
X82164239Y-49696501D01*
X82164241Y-49696501D01*
X82193064Y-49679859D01*
X82261263Y-49640485D01*
X82340485Y-49561263D01*
X82396503Y-49464237D01*
X82425500Y-49356018D01*
X82425500Y-49243982D01*
X82396503Y-49135763D01*
X82396501Y-49135760D01*
X82396501Y-49135758D01*
X82340486Y-49038739D01*
X82340485Y-49038737D01*
X82261263Y-48959515D01*
X82261260Y-48959513D01*
X82164240Y-48903498D01*
X82164242Y-48903498D01*
X82122251Y-48892247D01*
X82056018Y-48874500D01*
X81943982Y-48874500D01*
X81877748Y-48892247D01*
X81835758Y-48903498D01*
X81738739Y-48959513D01*
X81659513Y-49038739D01*
X81603498Y-49135758D01*
X81603497Y-49135763D01*
X81574500Y-49243982D01*
X70500500Y-49243982D01*
X70500500Y-47043450D01*
X75799500Y-47043450D01*
X75799500Y-47176550D01*
X75812616Y-47225500D01*
X75833950Y-47305120D01*
X75900497Y-47420381D01*
X75900499Y-47420384D01*
X75994616Y-47514501D01*
X75994618Y-47514502D01*
X76109880Y-47581049D01*
X76109878Y-47581049D01*
X76109882Y-47581050D01*
X76109884Y-47581051D01*
X76238450Y-47615500D01*
X76238452Y-47615500D01*
X76371548Y-47615500D01*
X76371550Y-47615500D01*
X76500116Y-47581051D01*
X76500118Y-47581049D01*
X76500120Y-47581049D01*
X76534362Y-47561278D01*
X76615384Y-47514501D01*
X76709501Y-47420384D01*
X76776051Y-47305116D01*
X76810500Y-47176550D01*
X76810500Y-47043450D01*
X76776051Y-46914884D01*
X76776049Y-46914881D01*
X76776049Y-46914879D01*
X76709502Y-46799618D01*
X76709501Y-46799616D01*
X76653867Y-46743982D01*
X77774500Y-46743982D01*
X77774500Y-46856018D01*
X77790272Y-46914879D01*
X77803498Y-46964241D01*
X77849231Y-47043451D01*
X77859515Y-47061263D01*
X77938737Y-47140485D01*
X77938739Y-47140486D01*
X78035759Y-47196501D01*
X78035757Y-47196501D01*
X78035761Y-47196502D01*
X78035763Y-47196503D01*
X78143982Y-47225500D01*
X78143984Y-47225500D01*
X78256016Y-47225500D01*
X78256018Y-47225500D01*
X78364237Y-47196503D01*
X78364239Y-47196501D01*
X78364241Y-47196501D01*
X78393064Y-47179859D01*
X78461263Y-47140485D01*
X78540485Y-47061263D01*
X78596503Y-46964237D01*
X78625500Y-46856018D01*
X78625500Y-46743982D01*
X78596503Y-46635763D01*
X78596501Y-46635760D01*
X78596501Y-46635758D01*
X78540486Y-46538739D01*
X78540485Y-46538737D01*
X78461263Y-46459515D01*
X78461260Y-46459513D01*
X78364240Y-46403498D01*
X78364242Y-46403498D01*
X78322251Y-46392247D01*
X78256018Y-46374500D01*
X78143982Y-46374500D01*
X78077748Y-46392247D01*
X78035758Y-46403498D01*
X77938739Y-46459513D01*
X77859513Y-46538739D01*
X77803498Y-46635758D01*
X77803497Y-46635763D01*
X77774500Y-46743982D01*
X76653867Y-46743982D01*
X76615384Y-46705499D01*
X76615381Y-46705497D01*
X76500119Y-46638950D01*
X76500121Y-46638950D01*
X76450235Y-46625583D01*
X76371550Y-46604500D01*
X76238450Y-46604500D01*
X76159764Y-46625583D01*
X76109879Y-46638950D01*
X75994618Y-46705497D01*
X75900497Y-46799618D01*
X75833950Y-46914879D01*
X75833949Y-46914884D01*
X75799500Y-47043450D01*
X70500500Y-47043450D01*
X70500500Y-45611004D01*
X71524500Y-45611004D01*
X71524500Y-45748995D01*
X71551420Y-45884327D01*
X71551420Y-45884329D01*
X71604222Y-46011806D01*
X71604228Y-46011817D01*
X71680885Y-46126541D01*
X71778458Y-46224114D01*
X71893182Y-46300771D01*
X71893193Y-46300777D01*
X71940283Y-46320282D01*
X72020672Y-46353580D01*
X72156007Y-46380500D01*
X72156008Y-46380500D01*
X73093992Y-46380500D01*
X73093993Y-46380500D01*
X73229328Y-46353580D01*
X73356811Y-46300775D01*
X73471542Y-46224114D01*
X73569114Y-46126542D01*
X73645775Y-46011811D01*
X73698580Y-45884328D01*
X73725500Y-45748993D01*
X73725500Y-45611007D01*
X73725499Y-45611004D01*
X75554500Y-45611004D01*
X75554500Y-45748995D01*
X75581420Y-45884327D01*
X75581420Y-45884329D01*
X75634222Y-46011806D01*
X75634228Y-46011817D01*
X75710885Y-46126541D01*
X75808458Y-46224114D01*
X75923182Y-46300771D01*
X75923193Y-46300777D01*
X75970283Y-46320282D01*
X76050672Y-46353580D01*
X76186007Y-46380500D01*
X76186008Y-46380500D01*
X77423992Y-46380500D01*
X77423993Y-46380500D01*
X77559328Y-46353580D01*
X77686811Y-46300775D01*
X77801542Y-46224114D01*
X77899114Y-46126542D01*
X77975775Y-46011811D01*
X78028580Y-45884328D01*
X78055500Y-45748993D01*
X78055500Y-45611007D01*
X78028580Y-45475672D01*
X77975775Y-45348189D01*
X77975774Y-45348187D01*
X77975771Y-45348182D01*
X77899114Y-45233458D01*
X77801541Y-45135885D01*
X77686817Y-45059228D01*
X77686806Y-45059222D01*
X77559328Y-45006420D01*
X77423995Y-44979500D01*
X77423993Y-44979500D01*
X76186007Y-44979500D01*
X76186004Y-44979500D01*
X76050672Y-45006420D01*
X76050670Y-45006420D01*
X75923193Y-45059222D01*
X75923182Y-45059228D01*
X75808458Y-45135885D01*
X75710885Y-45233458D01*
X75634228Y-45348182D01*
X75634222Y-45348193D01*
X75581420Y-45475670D01*
X75581420Y-45475672D01*
X75554500Y-45611004D01*
X73725499Y-45611004D01*
X73698580Y-45475672D01*
X73645775Y-45348189D01*
X73645774Y-45348187D01*
X73645771Y-45348182D01*
X73569114Y-45233458D01*
X73471541Y-45135885D01*
X73356817Y-45059228D01*
X73356806Y-45059222D01*
X73229328Y-45006420D01*
X73093995Y-44979500D01*
X73093993Y-44979500D01*
X72156007Y-44979500D01*
X72156004Y-44979500D01*
X72020672Y-45006420D01*
X72020670Y-45006420D01*
X71893193Y-45059222D01*
X71893182Y-45059228D01*
X71778458Y-45135885D01*
X71680885Y-45233458D01*
X71604228Y-45348182D01*
X71604222Y-45348193D01*
X71551420Y-45475670D01*
X71551420Y-45475672D01*
X71524500Y-45611004D01*
X70500500Y-45611004D01*
X70500500Y-39099000D01*
X70519407Y-39040809D01*
X70568907Y-39004845D01*
X70599500Y-39000000D01*
X75901000Y-39000000D01*
X75959191Y-39018907D01*
G37*
%TD.AperFunction*%
%TD*%
%TA.AperFunction,Conductor*%
%TO.N,+5V*%
G36*
X85259191Y-35018907D02*
G01*
X85295155Y-35068407D01*
X85300000Y-35099000D01*
X85300000Y-40901000D01*
X85281093Y-40959191D01*
X85231593Y-40995155D01*
X85201000Y-41000000D01*
X80099000Y-41000000D01*
X80040809Y-40981093D01*
X80004845Y-40931593D01*
X80000000Y-40901000D01*
X80000000Y-39043982D01*
X83674500Y-39043982D01*
X83674500Y-39156018D01*
X83700072Y-39251455D01*
X83703498Y-39264241D01*
X83759513Y-39361260D01*
X83759515Y-39361263D01*
X83838737Y-39440485D01*
X83838739Y-39440486D01*
X83935759Y-39496501D01*
X83935757Y-39496501D01*
X83935761Y-39496502D01*
X83935763Y-39496503D01*
X84043982Y-39525500D01*
X84043984Y-39525500D01*
X84156016Y-39525500D01*
X84156018Y-39525500D01*
X84264237Y-39496503D01*
X84264239Y-39496501D01*
X84264241Y-39496501D01*
X84293064Y-39479859D01*
X84361263Y-39440485D01*
X84440485Y-39361263D01*
X84496503Y-39264237D01*
X84525500Y-39156018D01*
X84525500Y-39043982D01*
X84496503Y-38935763D01*
X84496501Y-38935760D01*
X84496501Y-38935758D01*
X84440486Y-38838739D01*
X84440485Y-38838737D01*
X84361263Y-38759515D01*
X84350840Y-38753497D01*
X84264240Y-38703498D01*
X84264242Y-38703498D01*
X84222251Y-38692247D01*
X84156018Y-38674500D01*
X84043982Y-38674500D01*
X83977748Y-38692247D01*
X83935758Y-38703498D01*
X83838739Y-38759513D01*
X83759513Y-38838739D01*
X83703498Y-38935758D01*
X83703497Y-38935763D01*
X83674500Y-39043982D01*
X80000000Y-39043982D01*
X80000000Y-38081482D01*
X82674500Y-38081482D01*
X82674500Y-38193518D01*
X82700072Y-38288955D01*
X82703498Y-38301741D01*
X82759513Y-38398760D01*
X82759515Y-38398763D01*
X82838737Y-38477985D01*
X82838739Y-38477986D01*
X82935759Y-38534001D01*
X82935757Y-38534001D01*
X82935761Y-38534002D01*
X82935763Y-38534003D01*
X83043982Y-38563000D01*
X83043984Y-38563000D01*
X83156016Y-38563000D01*
X83156018Y-38563000D01*
X83264237Y-38534003D01*
X83264239Y-38534001D01*
X83264241Y-38534001D01*
X83293064Y-38517359D01*
X83361263Y-38477985D01*
X83440485Y-38398763D01*
X83496503Y-38301737D01*
X83525500Y-38193518D01*
X83525500Y-38081482D01*
X83496503Y-37973263D01*
X83496501Y-37973260D01*
X83496501Y-37973258D01*
X83440486Y-37876239D01*
X83440485Y-37876237D01*
X83361263Y-37797015D01*
X83361260Y-37797013D01*
X83264240Y-37740998D01*
X83264242Y-37740998D01*
X83222251Y-37729747D01*
X83156018Y-37712000D01*
X83043982Y-37712000D01*
X82977748Y-37729747D01*
X82935758Y-37740998D01*
X82838739Y-37797013D01*
X82759513Y-37876239D01*
X82703498Y-37973258D01*
X82703497Y-37973263D01*
X82674500Y-38081482D01*
X80000000Y-38081482D01*
X80000000Y-35099000D01*
X80018907Y-35040809D01*
X80068407Y-35004845D01*
X80099000Y-35000000D01*
X85201000Y-35000000D01*
X85259191Y-35018907D01*
G37*
%TD.AperFunction*%
%TD*%
M02*
