%TF.GenerationSoftware,KiCad,Pcbnew,10.0.6*%
%TF.CreationDate,2026-09-18T11:43:59+02:00*%
%TF.ProjectId,kicad_td,6b696361-645f-4746-942e-6b696361645f,rev?*%
%TF.SameCoordinates,Original*%
%TF.FileFunction,Copper,L1,Top*%
%TF.FilePolarity,Positive*%
%FSLAX46Y46*%
G04 Gerber Fmt 4.6, Leading zero omitted, Abs format (unit mm)*
G04 Created by KiCad (PCBNEW 10.0.6) date 2026-09-18 11:43:59*
%MOMM*%
%LPD*%
G01*
G04 APERTURE LIST*
G04 Aperture macros list*
%AMRoundRect*
0 Rectangle with rounded corners*
0 $1 Rounding radius*
0 $2 $3 $4 $5 $6 $7 $8 $9 X,Y pos of 4 corners*
0 Add a 4 corners polygon primitive as box body*
4,1,4,$2,$3,$4,$5,$6,$7,$8,$9,$2,$3,0*
0 Add four circle primitives for the rounded corners*
1,1,$1+$1,$2,$3*
1,1,$1+$1,$4,$5*
1,1,$1+$1,$6,$7*
1,1,$1+$1,$8,$9*
0 Add four rect primitives between the rounded corners*
20,1,$1+$1,$2,$3,$4,$5,0*
20,1,$1+$1,$4,$5,$6,$7,0*
20,1,$1+$1,$6,$7,$8,$9,0*
20,1,$1+$1,$8,$9,$2,$3,0*%
G04 Aperture macros list end*
%TA.AperFunction,SMDPad,CuDef*%
%ADD10RoundRect,0.140000X0.140000X0.170000X-0.140000X0.170000X-0.140000X-0.170000X0.140000X-0.170000X0*%
%TD*%
%TA.AperFunction,ComponentPad*%
%ADD11C,0.800000*%
%TD*%
%TA.AperFunction,ComponentPad*%
%ADD12C,6.400000*%
%TD*%
%TA.AperFunction,SMDPad,CuDef*%
%ADD13RoundRect,0.250000X-0.400000X-0.250000X0.400000X-0.250000X0.400000X0.250000X-0.400000X0.250000X0*%
%TD*%
%TA.AperFunction,SMDPad,CuDef*%
%ADD14RoundRect,0.125000X0.625000X0.125000X-0.625000X0.125000X-0.625000X-0.125000X0.625000X-0.125000X0*%
%TD*%
%TA.AperFunction,SMDPad,CuDef*%
%ADD15RoundRect,0.125000X0.125000X0.625000X-0.125000X0.625000X-0.125000X-0.625000X0.125000X-0.625000X0*%
%TD*%
%TA.AperFunction,SMDPad,CuDef*%
%ADD16RoundRect,0.150000X0.150000X-0.512500X0.150000X0.512500X-0.150000X0.512500X-0.150000X-0.512500X0*%
%TD*%
%TA.AperFunction,SMDPad,CuDef*%
%ADD17RoundRect,0.150000X-0.512500X-0.150000X0.512500X-0.150000X0.512500X0.150000X-0.512500X0.150000X0*%
%TD*%
%TA.AperFunction,SMDPad,CuDef*%
%ADD18RoundRect,0.135000X0.185000X-0.135000X0.185000X0.135000X-0.185000X0.135000X-0.185000X-0.135000X0*%
%TD*%
%TA.AperFunction,SMDPad,CuDef*%
%ADD19RoundRect,0.135000X-0.135000X-0.185000X0.135000X-0.185000X0.135000X0.185000X-0.135000X0.185000X0*%
%TD*%
%TA.AperFunction,SMDPad,CuDef*%
%ADD20R,2.400000X0.740000*%
%TD*%
%TA.AperFunction,SMDPad,CuDef*%
%ADD21RoundRect,0.150000X-0.425000X0.150000X-0.425000X-0.150000X0.425000X-0.150000X0.425000X0.150000X0*%
%TD*%
%TA.AperFunction,SMDPad,CuDef*%
%ADD22RoundRect,0.075000X-0.500000X0.075000X-0.500000X-0.075000X0.500000X-0.075000X0.500000X0.075000X0*%
%TD*%
%TA.AperFunction,ComponentPad*%
%ADD23O,2.100000X1.000000*%
%TD*%
%TA.AperFunction,ComponentPad*%
%ADD24O,1.800000X1.000000*%
%TD*%
%TA.AperFunction,SMDPad,CuDef*%
%ADD25RoundRect,0.218750X-0.218750X-0.256250X0.218750X-0.256250X0.218750X0.256250X-0.218750X0.256250X0*%
%TD*%
%TA.AperFunction,SMDPad,CuDef*%
%ADD26RoundRect,0.218750X-0.256250X0.218750X-0.256250X-0.218750X0.256250X-0.218750X0.256250X0.218750X0*%
%TD*%
%TA.AperFunction,SMDPad,CuDef*%
%ADD27RoundRect,0.140000X-0.140000X-0.170000X0.140000X-0.170000X0.140000X0.170000X-0.140000X0.170000X0*%
%TD*%
%TA.AperFunction,SMDPad,CuDef*%
%ADD28RoundRect,0.140000X-0.170000X0.140000X-0.170000X-0.140000X0.170000X-0.140000X0.170000X0.140000X0*%
%TD*%
%TA.AperFunction,ViaPad*%
%ADD29C,0.450000*%
%TD*%
%TA.AperFunction,Conductor*%
%ADD30C,0.300000*%
%TD*%
%TA.AperFunction,Conductor*%
%ADD31C,0.200000*%
%TD*%
%TA.AperFunction,Conductor*%
%ADD32C,0.400000*%
%TD*%
G04 APERTURE END LIST*
D10*
%TO.P,C4,2*%
%TO.N,GND*%
X96920000Y-54400000D03*
%TO.P,C4,1*%
%TO.N,+3.3V*%
X97880000Y-54400000D03*
%TD*%
D11*
%TO.P,H4,1,1_1*%
%TO.N,GND*%
X113600000Y-66000000D03*
X114302944Y-64302944D03*
X114302944Y-67697056D03*
X116000000Y-63600000D03*
D12*
X116000000Y-66000000D03*
D11*
X116000000Y-68400000D03*
X117697056Y-64302944D03*
X117697056Y-67697056D03*
X118400000Y-66000000D03*
%TD*%
%TO.P,H3,1,1_1*%
%TO.N,GND*%
X71600000Y-66000000D03*
X72302944Y-64302944D03*
X72302944Y-67697056D03*
X74000000Y-63600000D03*
D12*
X74000000Y-66000000D03*
D11*
X74000000Y-68400000D03*
X75697056Y-64302944D03*
X75697056Y-67697056D03*
X76400000Y-66000000D03*
%TD*%
%TO.P,H2,1,1_1*%
%TO.N,GND*%
X113600000Y-34000000D03*
X114302944Y-32302944D03*
X114302944Y-35697056D03*
X116000000Y-31600000D03*
D12*
X116000000Y-34000000D03*
D11*
X116000000Y-36400000D03*
X117697056Y-32302944D03*
X117697056Y-35697056D03*
X118400000Y-34000000D03*
%TD*%
%TO.P,H1,1,1_1*%
%TO.N,GND*%
X71600000Y-34000000D03*
X72302944Y-32302944D03*
X72302944Y-35697056D03*
X74000000Y-31600000D03*
D12*
X74000000Y-34000000D03*
D11*
X74000000Y-36400000D03*
X75697056Y-32302944D03*
X75697056Y-35697056D03*
X76400000Y-34000000D03*
%TD*%
D13*
%TO.P,Y1,1,1_1*%
%TO.N,Net-(U3-PF0)*%
X99700000Y-54600000D03*
%TO.P,Y1,2,G_2*%
%TO.N,GND*%
X101900000Y-54600000D03*
%TO.P,Y1,3,3_3*%
%TO.N,Net-(U3-PF1)*%
X101900000Y-52800000D03*
%TO.P,Y1,4,G_4*%
%TO.N,GND*%
X99700000Y-52800000D03*
%TD*%
D14*
%TO.P,U3,1,VDD_1*%
%TO.N,+3.3V*%
X97175000Y-52800000D03*
%TO.P,U3,2,PF0_2*%
%TO.N,Net-(U3-PF0)*%
X97175000Y-52000000D03*
%TO.P,U3,3,PF1_3*%
%TO.N,Net-(U3-PF1)*%
X97175000Y-51200000D03*
%TO.P,U3,4,PG10_4*%
%TO.N,/STM32/NRST*%
X97175000Y-50400000D03*
%TO.P,U3,5,PA0_5*%
%TO.N,unconnected-(U3-PA0-Pad5)*%
X97175000Y-49600000D03*
%TO.P,U3,6,PA1_6*%
%TO.N,unconnected-(U3-PA1-Pad6)*%
X97175000Y-48800000D03*
%TO.P,U3,7,PA2_7*%
%TO.N,unconnected-(U3-PA2-Pad7)*%
X97175000Y-48000000D03*
%TO.P,U3,8,PA3_8*%
%TO.N,unconnected-(U3-PA3-Pad8)*%
X97175000Y-47200000D03*
D15*
%TO.P,U3,9,PA4_9*%
%TO.N,/STM32/STATUS*%
X95800000Y-45825000D03*
%TO.P,U3,10,PA5_10*%
%TO.N,unconnected-(U3-PA5-Pad10)*%
X95000000Y-45825000D03*
%TO.P,U3,11,PA6_11*%
%TO.N,unconnected-(U3-PA6-Pad11)*%
X94200000Y-45825000D03*
%TO.P,U3,12,PA7_12*%
%TO.N,unconnected-(U3-PA7-Pad12)*%
X93400000Y-45825000D03*
%TO.P,U3,13,PB0_13*%
%TO.N,unconnected-(U3-PB0-Pad13)*%
X92600000Y-45825000D03*
%TO.P,U3,14,VSSA_14*%
%TO.N,GND*%
X91800000Y-45825000D03*
%TO.P,U3,15,VDDA_15*%
%TO.N,+3.3V*%
X91000000Y-45825000D03*
%TO.P,U3,16,VSS_16*%
%TO.N,GND*%
X90200000Y-45825000D03*
D14*
%TO.P,U3,17,VDD_17*%
%TO.N,+3.3V*%
X88825000Y-47200000D03*
%TO.P,U3,18,PA8_18*%
%TO.N,unconnected-(U3-PA8-Pad18)*%
X88825000Y-48000000D03*
%TO.P,U3,19,PA9_19*%
%TO.N,unconnected-(U3-PA9-Pad19)*%
X88825000Y-48800000D03*
%TO.P,U3,20,PA10_20*%
%TO.N,unconnected-(U3-PA10-Pad20)*%
X88825000Y-49600000D03*
%TO.P,U3,21,PA11_21*%
%TO.N,/STM32/STM32_D-*%
X88825000Y-50400000D03*
%TO.P,U3,22,PA12_22*%
%TO.N,/STM32/STM32_D+*%
X88825000Y-51200000D03*
%TO.P,U3,23,PA13_23*%
%TO.N,/STM32/JTMS{slash}SWDIO*%
X88825000Y-52000000D03*
%TO.P,U3,24,PA14_24*%
%TO.N,/STM32/JCLK{slash}SWCLK*%
X88825000Y-52800000D03*
D15*
%TO.P,U3,25,PA15_25*%
%TO.N,unconnected-(U3-PA15-Pad25)*%
X90200000Y-54175000D03*
%TO.P,U3,26,PB3_26*%
%TO.N,/STM32/JTDO{slash}SWO*%
X91000000Y-54175000D03*
%TO.P,U3,27,PB4_27*%
%TO.N,unconnected-(U3-PB4-Pad27)*%
X91800000Y-54175000D03*
%TO.P,U3,28,PB5_28*%
%TO.N,unconnected-(U3-PB5-Pad28)*%
X92600000Y-54175000D03*
%TO.P,U3,29,PB6_29*%
%TO.N,/STM32/VCP_RX*%
X93400000Y-54175000D03*
%TO.P,U3,30,PB7_30*%
%TO.N,/STM32/VCP_TX*%
X94200000Y-54175000D03*
%TO.P,U3,31,PB8_31*%
%TO.N,unconnected-(U3-PB8-Pad31)*%
X95000000Y-54175000D03*
%TO.P,U3,32,VSS_32*%
%TO.N,GND*%
X95800000Y-54175000D03*
%TD*%
D16*
%TO.P,U2,1,GND_1*%
%TO.N,GND*%
X84050000Y-38137500D03*
%TO.P,U2,2,VO_2*%
%TO.N,+3.3V*%
X85950000Y-38137500D03*
%TO.P,U2,3,VI_3*%
%TO.N,+5V*%
X85000000Y-35862500D03*
%TD*%
D17*
%TO.P,U1,1,I/O1_1*%
%TO.N,/USB/USB_D-*%
X80862500Y-49050000D03*
%TO.P,U1,2,GND_2*%
%TO.N,GND*%
X80862500Y-50000000D03*
%TO.P,U1,3,I/O2_3*%
%TO.N,/USB/USB_D+*%
X80862500Y-50950000D03*
%TO.P,U1,4,I/O2_4*%
%TO.N,/STM32/STM32_D+*%
X83137500Y-50950000D03*
%TO.P,U1,5,VBUS_5*%
%TO.N,VBUS*%
X83137500Y-50000000D03*
%TO.P,U1,6,I/O1_6*%
%TO.N,/STM32/STM32_D-*%
X83137500Y-49050000D03*
%TD*%
D18*
%TO.P,R4,1*%
%TO.N,/STM32/STATUS*%
X97000000Y-37510000D03*
%TO.P,R4,2*%
%TO.N,Net-(D1-A)*%
X97000000Y-36490000D03*
%TD*%
%TO.P,R3,1*%
%TO.N,+3.3V*%
X94000000Y-37510000D03*
%TO.P,R3,2*%
%TO.N,Net-(D2-A)*%
X94000000Y-36490000D03*
%TD*%
D19*
%TO.P,R2,1*%
%TO.N,/USB/CC1*%
X75190000Y-44000000D03*
%TO.P,R2,2*%
%TO.N,GND*%
X76210000Y-44000000D03*
%TD*%
%TO.P,R1,1*%
%TO.N,/USB/CC2*%
X75190000Y-56000000D03*
%TO.P,R1,2*%
%TO.N,GND*%
X76210000Y-56000000D03*
%TD*%
D20*
%TO.P,J2,1,NC_1*%
%TO.N,unconnected-(J2-NC-Pad1)*%
X111950000Y-53810000D03*
%TO.P,J2,2,NC_2*%
%TO.N,unconnected-(J2-NC-Pad2)*%
X108050000Y-53810000D03*
%TO.P,J2,3,VCC_3*%
%TO.N,+3.3V*%
X111950000Y-52540000D03*
%TO.P,J2,4,JTMS/SWDIO_4*%
%TO.N,/STM32/JTMS{slash}SWDIO*%
X108050000Y-52540000D03*
%TO.P,J2,5,GND_5*%
%TO.N,GND*%
X111950000Y-51270000D03*
%TO.P,J2,6,JCLK/SWCLK_6*%
%TO.N,/STM32/JCLK{slash}SWCLK*%
X108050000Y-51270000D03*
%TO.P,J2,7,GND_7*%
%TO.N,GND*%
X111950000Y-50000000D03*
%TO.P,J2,8,JTDO/SWO_8*%
%TO.N,/STM32/JTDO{slash}SWO*%
X108050000Y-50000000D03*
%TO.P,J2,9,JRCLK/NC_9*%
%TO.N,unconnected-(J2-JRCLK{slash}NC-Pad9)*%
X111950000Y-48730000D03*
%TO.P,J2,10,JTDI/NC_10*%
%TO.N,unconnected-(J2-JTDI{slash}NC-Pad10)*%
X108050000Y-48730000D03*
%TO.P,J2,11,GNDDetect_11*%
%TO.N,GND*%
X111950000Y-47460000D03*
%TO.P,J2,12,~{RST}_12*%
%TO.N,/STM32/NRST*%
X108050000Y-47460000D03*
%TO.P,J2,13,VCP_RX_13*%
%TO.N,Net-(J2-VCP_RX)*%
X111950000Y-46190000D03*
%TO.P,J2,14,VCP_TX_14*%
%TO.N,Net-(J2-VCP_TX)*%
X108050000Y-46190000D03*
%TD*%
D21*
%TO.P,J1,A1,GND_A1*%
%TO.N,GND*%
X77380000Y-46800000D03*
%TO.P,J1,A4,VBUS_A4*%
%TO.N,VBUS*%
X77380000Y-47600000D03*
D22*
%TO.P,J1,A5,CC1_A5*%
%TO.N,/USB/CC1*%
X77380000Y-48750000D03*
%TO.P,J1,A6,D+_A6*%
%TO.N,/USB/USB_D+*%
X77380000Y-49750000D03*
%TO.P,J1,A7,D-_A7*%
%TO.N,/USB/USB_D-*%
X77380000Y-50250000D03*
%TO.P,J1,A8,SBU1_A8*%
%TO.N,unconnected-(J1-SBU1-PadA8)*%
X77380000Y-51250000D03*
D21*
%TO.P,J1,A9,VBUS_A9*%
%TO.N,VBUS*%
X77380000Y-52400000D03*
%TO.P,J1,A12,GND_A12*%
%TO.N,GND*%
X77380000Y-53200000D03*
%TO.P,J1,B1,GND_B1*%
X77380000Y-53200000D03*
%TO.P,J1,B4,VBUS_B4*%
%TO.N,VBUS*%
X77380000Y-52400000D03*
D22*
%TO.P,J1,B5,CC2_B5*%
%TO.N,/USB/CC2*%
X77380000Y-51750000D03*
%TO.P,J1,B6,D+_B6*%
%TO.N,/USB/USB_D+*%
X77380000Y-50750000D03*
%TO.P,J1,B7,D-_B7*%
%TO.N,/USB/USB_D-*%
X77380000Y-49250000D03*
%TO.P,J1,B8,SBU2_B8*%
%TO.N,unconnected-(J1-SBU2-PadB8)*%
X77380000Y-48250000D03*
D21*
%TO.P,J1,B9,VBUS_B9*%
%TO.N,VBUS*%
X77380000Y-47600000D03*
%TO.P,J1,B12,GND_B12*%
%TO.N,GND*%
X77380000Y-46800000D03*
D23*
%TO.P,J1,SH,SHIELD_SH*%
X76805000Y-45680000D03*
D24*
X72625000Y-45680000D03*
D23*
X76805000Y-54320000D03*
D24*
X72625000Y-54320000D03*
%TD*%
D25*
%TO.P,FB1,1*%
%TO.N,VBUS*%
X75212500Y-40000000D03*
%TO.P,FB1,2*%
%TO.N,/USB/Fuse*%
X76787500Y-40000000D03*
%TD*%
%TO.P,F1,1*%
%TO.N,/USB/Fuse*%
X79000000Y-40000000D03*
%TO.P,F1,2*%
%TO.N,+5V*%
X80575000Y-40000000D03*
%TD*%
D26*
%TO.P,D2,1,K_1*%
%TO.N,GND*%
X94000000Y-33212500D03*
%TO.P,D2,2,A_2*%
%TO.N,Net-(D2-A)*%
X94000000Y-34787500D03*
%TD*%
%TO.P,D1,1,K_1*%
%TO.N,GND*%
X97000000Y-33212500D03*
%TO.P,D1,2,A_2*%
%TO.N,Net-(D1-A)*%
X97000000Y-34787500D03*
%TD*%
D27*
%TO.P,C10,1*%
%TO.N,Net-(U3-PF0)*%
X100320000Y-56000000D03*
%TO.P,C10,2*%
%TO.N,GND*%
X101280000Y-56000000D03*
%TD*%
D28*
%TO.P,C9,1*%
%TO.N,Net-(U3-PF1)*%
X103500000Y-53220000D03*
%TO.P,C9,2*%
%TO.N,GND*%
X103500000Y-54180000D03*
%TD*%
D27*
%TO.P,C8,1*%
%TO.N,/STM32/NRST*%
X98820000Y-50400000D03*
%TO.P,C8,2*%
%TO.N,GND*%
X99780000Y-50400000D03*
%TD*%
%TO.P,C7,1*%
%TO.N,+3.3V*%
X90920000Y-43200000D03*
%TO.P,C7,2*%
%TO.N,GND*%
X91880000Y-43200000D03*
%TD*%
%TO.P,C6,1*%
%TO.N,+3.3V*%
X90920000Y-44200000D03*
%TO.P,C6,2*%
%TO.N,GND*%
X91880000Y-44200000D03*
%TD*%
%TO.P,C5,1*%
%TO.N,+3.3V*%
X88120000Y-44600000D03*
%TO.P,C5,2*%
%TO.N,GND*%
X89080000Y-44600000D03*
%TD*%
%TO.P,C3,1*%
%TO.N,+3.3V*%
X88120000Y-45600000D03*
%TO.P,C3,2*%
%TO.N,GND*%
X89080000Y-45600000D03*
%TD*%
D10*
%TO.P,C2,1*%
%TO.N,+3.3V*%
X85480000Y-39700000D03*
%TO.P,C2,2*%
%TO.N,GND*%
X84520000Y-39700000D03*
%TD*%
D28*
%TO.P,C1,2*%
%TO.N,GND*%
X82700000Y-37480000D03*
%TO.P,C1,1*%
%TO.N,+5V*%
X82700000Y-36520000D03*
%TD*%
D29*
%TO.N,GND*%
X91300000Y-57600000D03*
X85800000Y-51600000D03*
X78900000Y-49800000D03*
X82000000Y-49300000D03*
%TO.N,VBUS*%
X74500000Y-40000000D03*
X82200000Y-50000000D03*
X78200000Y-52400000D03*
X78200000Y-47600000D03*
%TO.N,+5V*%
X81400000Y-40000000D03*
X82700000Y-36000000D03*
X85000000Y-36800000D03*
%TO.N,+3.3V*%
X94000000Y-38000000D03*
X85750000Y-39150000D03*
X88120000Y-45100000D03*
X88500000Y-46400000D03*
X91000000Y-44800000D03*
X91000000Y-43700000D03*
X97500000Y-53500000D03*
X113400000Y-52500000D03*
%TO.N,GND*%
X100300000Y-50400000D03*
X84100000Y-39100000D03*
X83100000Y-38137500D03*
X89080000Y-45100000D03*
X89600000Y-45600000D03*
X91800000Y-43700000D03*
X91800000Y-44800000D03*
X95500000Y-33212500D03*
X113400000Y-47500000D03*
X111950000Y-50600000D03*
X101900000Y-55380000D03*
X103080000Y-54600000D03*
X100800000Y-53700000D03*
X96300000Y-54400000D03*
X76700000Y-56000000D03*
X80000000Y-50000000D03*
X78200000Y-46800000D03*
X78200000Y-53200000D03*
X76700000Y-44000000D03*
%TD*%
%TO.N,Net-(U3-PF0)*%
D30*
X99700000Y-54600000D02*
X99700000Y-55380000D01*
X99700000Y-55380000D02*
X100320000Y-56000000D01*
%TO.N,Net-(U3-PF1)*%
X101900000Y-52800000D02*
X103080000Y-52800000D01*
X103080000Y-52800000D02*
X103500000Y-53220000D01*
%TO.N,/STM32/JTDO{slash}SWO*%
X92300000Y-57700000D02*
X91000000Y-56400000D01*
X103900000Y-57700000D02*
X92300000Y-57700000D01*
X104800000Y-56800000D02*
X103900000Y-57700000D01*
X104800000Y-51600000D02*
X104800000Y-56800000D01*
X106400000Y-50000000D02*
X104800000Y-51600000D01*
X108050000Y-50000000D02*
X106400000Y-50000000D01*
X91000000Y-56400000D02*
X91000000Y-54175000D01*
%TO.N,/STM32/JCLK{slash}SWCLK*%
X86500000Y-53400000D02*
X87100000Y-52800000D01*
X105400000Y-57000000D02*
X104100000Y-58300000D01*
X104100000Y-58300000D02*
X88000000Y-58300000D01*
X105400000Y-52800000D02*
X105400000Y-57000000D01*
X86500000Y-56800000D02*
X86500000Y-53400000D01*
X106930000Y-51270000D02*
X105400000Y-52800000D01*
X88000000Y-58300000D02*
X86500000Y-56800000D01*
X108050000Y-51270000D02*
X106930000Y-51270000D01*
X87100000Y-52800000D02*
X88825000Y-52800000D01*
%TO.N,/STM32/JTMS{slash}SWDIO*%
X87700000Y-58900000D02*
X85900000Y-57100000D01*
X104300000Y-58900000D02*
X87700000Y-58900000D01*
X106000000Y-57200000D02*
X104300000Y-58900000D01*
X106000000Y-53200000D02*
X106000000Y-57200000D01*
X85900000Y-57100000D02*
X85900000Y-52500000D01*
X106660000Y-52540000D02*
X106000000Y-53200000D01*
X108050000Y-52540000D02*
X106660000Y-52540000D01*
X86400000Y-52000000D02*
X88825000Y-52000000D01*
X85900000Y-52500000D02*
X86400000Y-52000000D01*
%TO.N,/STM32/STATUS*%
X97000000Y-37510000D02*
X97000000Y-42700000D01*
X97000000Y-42700000D02*
X95800000Y-43900000D01*
X95800000Y-43900000D02*
X95800000Y-45825000D01*
%TO.N,/STM32/NRST*%
X108050000Y-47460000D02*
X100540000Y-47460000D01*
X100540000Y-47460000D02*
X98820000Y-49180000D01*
X98820000Y-49180000D02*
X98820000Y-50400000D01*
X97175000Y-50400000D02*
X98820000Y-50400000D01*
%TO.N,Net-(U3-PF0)*%
X98600000Y-52400000D02*
X98600000Y-53500000D01*
X98200000Y-52000000D02*
X98600000Y-52400000D01*
X97175000Y-52000000D02*
X98200000Y-52000000D01*
X98600000Y-53500000D02*
X99700000Y-54600000D01*
%TO.N,Net-(U3-PF1)*%
X101300000Y-51200000D02*
X101900000Y-51800000D01*
X97175000Y-51200000D02*
X101300000Y-51200000D01*
X101900000Y-51800000D02*
X101900000Y-52800000D01*
%TO.N,/STM32/STM32_D-*%
D31*
X88825000Y-50400000D02*
X87699999Y-50400000D01*
X87699999Y-50400000D02*
X87524999Y-50575000D01*
X87524999Y-50575000D02*
X85675000Y-50575000D01*
X85675000Y-50575000D02*
X84150000Y-49050000D01*
X84150000Y-49050000D02*
X83137500Y-49050000D01*
%TO.N,/STM32/STM32_D+*%
X88825000Y-51200000D02*
X87699999Y-51200000D01*
X87699999Y-51200000D02*
X87524999Y-51025000D01*
X87524999Y-51025000D02*
X83212500Y-51025000D01*
X83212500Y-51025000D02*
X83137500Y-50950000D01*
%TO.N,/USB/USB_D+*%
X78400000Y-50750000D02*
X78400000Y-50000000D01*
X78400000Y-50000000D02*
X78150000Y-49750000D01*
X78150000Y-49750000D02*
X77380000Y-49750000D01*
X79250000Y-50750000D02*
X78400000Y-50750000D01*
%TO.N,/USB/USB_D-*%
X77380000Y-49250000D02*
X76750000Y-49250000D01*
X76750000Y-49250000D02*
X76500000Y-49500000D01*
X76500000Y-50100000D02*
X76650000Y-50250000D01*
X76500000Y-49500000D02*
X76500000Y-50100000D01*
X76650000Y-50250000D02*
X77380000Y-50250000D01*
%TO.N,/USB/USB_D+*%
X80862500Y-50950000D02*
X79450000Y-50950000D01*
X79450000Y-50950000D02*
X79250000Y-50750000D01*
X78400000Y-50750000D02*
X77380000Y-50750000D01*
%TO.N,/USB/USB_D-*%
X77380000Y-49250000D02*
X78850000Y-49250000D01*
X78850000Y-49250000D02*
X79050000Y-49050000D01*
X79050000Y-49050000D02*
X80862500Y-49050000D01*
%TO.N,/USB/CC2*%
X75190000Y-56000000D02*
X75190000Y-52310000D01*
X75750000Y-51750000D02*
X77380000Y-51750000D01*
X75190000Y-52310000D02*
X75750000Y-51750000D01*
%TO.N,/USB/CC1*%
X77380000Y-48750000D02*
X76050000Y-48750000D01*
X76050000Y-48750000D02*
X75190000Y-47890000D01*
X75190000Y-47890000D02*
X75190000Y-44000000D01*
%TO.N,Net-(D1-A)*%
D32*
X97000000Y-36490000D02*
X97000000Y-34787500D01*
%TO.N,Net-(D2-A)*%
X94000000Y-36490000D02*
X94000000Y-34787500D01*
%TO.N,VBUS*%
X75212500Y-40000000D02*
X74500000Y-40000000D01*
X83137500Y-50000000D02*
X82200000Y-50000000D01*
X77380000Y-52400000D02*
X78200000Y-52400000D01*
X77380000Y-47600000D02*
X78200000Y-47600000D01*
%TO.N,/USB/Fuse*%
X79000000Y-40000000D02*
X76787500Y-40000000D01*
%TO.N,+5V*%
X80575000Y-40000000D02*
X81400000Y-40000000D01*
X82700000Y-36520000D02*
X82700000Y-36000000D01*
X85000000Y-35862500D02*
X85000000Y-36800000D01*
%TO.N,+3.3V*%
X94000000Y-37510000D02*
X94000000Y-38000000D01*
X85750000Y-39150000D02*
X85480000Y-39420000D01*
X85950000Y-38137500D02*
X85950000Y-38950000D01*
X85950000Y-38950000D02*
X85750000Y-39150000D01*
X85480000Y-39420000D02*
X85480000Y-39700000D01*
X88120000Y-45100000D02*
X88120000Y-44600000D01*
X88120000Y-45600000D02*
X88120000Y-45100000D01*
X88500000Y-46400000D02*
X88120000Y-46020000D01*
X88825000Y-47200000D02*
X88825000Y-46725000D01*
X88825000Y-46725000D02*
X88500000Y-46400000D01*
X88120000Y-46020000D02*
X88120000Y-45600000D01*
X91000000Y-44800000D02*
X91000000Y-43700000D01*
X91000000Y-43700000D02*
X91000000Y-43280000D01*
X91000000Y-45825000D02*
X91000000Y-44800000D01*
X91000000Y-43280000D02*
X90920000Y-43200000D01*
X97500000Y-53500000D02*
X97880000Y-53880000D01*
X97175000Y-52800000D02*
X97175000Y-53175000D01*
X97175000Y-53175000D02*
X97500000Y-53500000D01*
X97880000Y-53880000D02*
X97880000Y-54400000D01*
X113360000Y-52540000D02*
X113400000Y-52500000D01*
X111950000Y-52540000D02*
X113360000Y-52540000D01*
%TO.N,GND*%
X99780000Y-50400000D02*
X100300000Y-50400000D01*
X84100000Y-39100000D02*
X84520000Y-39520000D01*
X83100000Y-38137500D02*
X84050000Y-38137500D01*
X84050000Y-38137500D02*
X84050000Y-39050000D01*
X84050000Y-39050000D02*
X84100000Y-39100000D01*
X84520000Y-39520000D02*
X84520000Y-39700000D01*
X82700000Y-37480000D02*
X82700000Y-37800000D01*
X82700000Y-37800000D02*
X83037500Y-38137500D01*
X83037500Y-38137500D02*
X83100000Y-38137500D01*
X89080000Y-45100000D02*
X89080000Y-44600000D01*
X89600000Y-45600000D02*
X89975000Y-45600000D01*
X89080000Y-45600000D02*
X89080000Y-45100000D01*
X89080000Y-45600000D02*
X89600000Y-45600000D01*
X89975000Y-45600000D02*
X90200000Y-45825000D01*
X91800000Y-43700000D02*
X91800000Y-43280000D01*
X91800000Y-44800000D02*
X91800000Y-43700000D01*
X91800000Y-45825000D02*
X91800000Y-44800000D01*
X91800000Y-43280000D02*
X91880000Y-43200000D01*
X95500000Y-33212500D02*
X97000000Y-33212500D01*
X94000000Y-33212500D02*
X95500000Y-33212500D01*
X113360000Y-47460000D02*
X113400000Y-47500000D01*
X111950000Y-47460000D02*
X113360000Y-47460000D01*
X111950000Y-50600000D02*
X111950000Y-50000000D01*
X111950000Y-51270000D02*
X111950000Y-50600000D01*
X101900000Y-54600000D02*
X101900000Y-55380000D01*
X101900000Y-55380000D02*
X101280000Y-56000000D01*
X101900000Y-54600000D02*
X103080000Y-54600000D01*
X103080000Y-54600000D02*
X103500000Y-54180000D01*
X101900000Y-54600000D02*
X101700000Y-54600000D01*
X101700000Y-54600000D02*
X100800000Y-53700000D01*
X99900000Y-52800000D02*
X100800000Y-53700000D01*
X99700000Y-52800000D02*
X99900000Y-52800000D01*
X101600000Y-54600000D02*
X101900000Y-54600000D01*
X96300000Y-54400000D02*
X96025000Y-54400000D01*
X96920000Y-54400000D02*
X96300000Y-54400000D01*
X96025000Y-54400000D02*
X95800000Y-54175000D01*
X76210000Y-56000000D02*
X76700000Y-56000000D01*
X80862500Y-50000000D02*
X80000000Y-50000000D01*
X77380000Y-46800000D02*
X78200000Y-46800000D01*
X77380000Y-53200000D02*
X78200000Y-53200000D01*
X76210000Y-44000000D02*
X76700000Y-44000000D01*
%TD*%
%TA.AperFunction,Conductor*%
%TO.N,GND*%
G36*
X80029826Y-49369407D02*
G01*
X80055610Y-49400108D01*
X80056035Y-49399806D01*
X80059884Y-49405197D01*
X80060576Y-49406020D01*
X80060802Y-49406483D01*
X80109670Y-49455351D01*
X80137446Y-49509866D01*
X80127875Y-49570298D01*
X80109669Y-49595357D01*
X80061213Y-49643812D01*
X80009912Y-49748751D01*
X80000000Y-49816784D01*
X80000000Y-49899999D01*
X80000001Y-49900000D01*
X80763500Y-49900000D01*
X80821691Y-49918907D01*
X80857655Y-49968407D01*
X80862500Y-49999000D01*
X80862500Y-50001000D01*
X80843593Y-50059191D01*
X80794093Y-50095155D01*
X80763500Y-50100000D01*
X80000002Y-50100000D01*
X80000001Y-50100001D01*
X80000001Y-50183216D01*
X80009912Y-50251250D01*
X80061214Y-50356188D01*
X80109669Y-50404643D01*
X80137446Y-50459160D01*
X80127875Y-50519592D01*
X80109671Y-50544647D01*
X80083819Y-50570500D01*
X80060801Y-50593518D01*
X80060577Y-50593978D01*
X80060180Y-50594387D01*
X80056035Y-50600194D01*
X80055164Y-50599572D01*
X80018035Y-50637953D01*
X79971635Y-50649500D01*
X79615479Y-50649500D01*
X79557288Y-50630593D01*
X79545476Y-50620504D01*
X79434510Y-50509539D01*
X79401464Y-50490460D01*
X79401462Y-50490459D01*
X79365989Y-50469979D01*
X79365986Y-50469978D01*
X79289564Y-50449500D01*
X79289562Y-50449500D01*
X78799500Y-50449500D01*
X78741309Y-50430593D01*
X78705345Y-50381093D01*
X78700500Y-50350500D01*
X78700500Y-49960437D01*
X78700499Y-49960435D01*
X78699057Y-49955055D01*
X78680021Y-49884011D01*
X78640460Y-49815489D01*
X78635515Y-49810544D01*
X78584511Y-49759539D01*
X78584511Y-49759540D01*
X78544475Y-49719504D01*
X78516698Y-49664987D01*
X78526269Y-49604555D01*
X78569534Y-49561290D01*
X78614479Y-49550500D01*
X78889563Y-49550500D01*
X78889563Y-49550499D01*
X78965989Y-49530021D01*
X79034511Y-49490460D01*
X79090460Y-49434511D01*
X79145475Y-49379496D01*
X79199992Y-49351719D01*
X79215479Y-49350500D01*
X79971635Y-49350500D01*
X80029826Y-49369407D01*
G37*
%TD.AperFunction*%
%TA.AperFunction,Conductor*%
G36*
X116002421Y-30500619D02*
G01*
X116031158Y-30502030D01*
X116338173Y-30517113D01*
X116347815Y-30518063D01*
X116677915Y-30567029D01*
X116687421Y-30568919D01*
X117011144Y-30650008D01*
X117020415Y-30652820D01*
X117334625Y-30765246D01*
X117343594Y-30768961D01*
X117645263Y-30911640D01*
X117653826Y-30916218D01*
X117940049Y-31087773D01*
X117948127Y-31093171D01*
X118216150Y-31291951D01*
X118223660Y-31298114D01*
X118470921Y-31522218D01*
X118477781Y-31529078D01*
X118603484Y-31667770D01*
X118701885Y-31776339D01*
X118708048Y-31783849D01*
X118906828Y-32051872D01*
X118912226Y-32059950D01*
X119083781Y-32346173D01*
X119088361Y-32354741D01*
X119231036Y-32656402D01*
X119234754Y-32665378D01*
X119347175Y-32979571D01*
X119349995Y-32988868D01*
X119431077Y-33312567D01*
X119432972Y-33322096D01*
X119481934Y-33652170D01*
X119482887Y-33661838D01*
X119499381Y-33997577D01*
X119499500Y-34002435D01*
X119499500Y-65997564D01*
X119499381Y-66002422D01*
X119482887Y-66338161D01*
X119481934Y-66347829D01*
X119432972Y-66677903D01*
X119431077Y-66687432D01*
X119349995Y-67011131D01*
X119347175Y-67020428D01*
X119234754Y-67334621D01*
X119231036Y-67343597D01*
X119088361Y-67645258D01*
X119083781Y-67653826D01*
X118912226Y-67940049D01*
X118906828Y-67948127D01*
X118708048Y-68216150D01*
X118701885Y-68223660D01*
X118477786Y-68470916D01*
X118470916Y-68477786D01*
X118223660Y-68701885D01*
X118216150Y-68708048D01*
X117948127Y-68906828D01*
X117940049Y-68912226D01*
X117653826Y-69083781D01*
X117645258Y-69088361D01*
X117343597Y-69231036D01*
X117334621Y-69234754D01*
X117020428Y-69347175D01*
X117011131Y-69349995D01*
X116687432Y-69431077D01*
X116677903Y-69432972D01*
X116347829Y-69481934D01*
X116338161Y-69482887D01*
X116002422Y-69499381D01*
X115997564Y-69499500D01*
X74002436Y-69499500D01*
X73997578Y-69499381D01*
X73661838Y-69482887D01*
X73652170Y-69481934D01*
X73322096Y-69432972D01*
X73312567Y-69431077D01*
X72988868Y-69349995D01*
X72979571Y-69347175D01*
X72665378Y-69234754D01*
X72656402Y-69231036D01*
X72354741Y-69088361D01*
X72346173Y-69083781D01*
X72059950Y-68912226D01*
X72051872Y-68906828D01*
X71783849Y-68708048D01*
X71776339Y-68701885D01*
X71529083Y-68477786D01*
X71522218Y-68470921D01*
X71298114Y-68223660D01*
X71291951Y-68216150D01*
X71093171Y-67948127D01*
X71087773Y-67940049D01*
X70958223Y-67723908D01*
X70916216Y-67653823D01*
X70911638Y-67645258D01*
X70768963Y-67343597D01*
X70765245Y-67334621D01*
X70652820Y-67020415D01*
X70650008Y-67011144D01*
X70568919Y-66687421D01*
X70567029Y-66677915D01*
X70518063Y-66347815D01*
X70517113Y-66338173D01*
X70500619Y-66002421D01*
X70500500Y-65997564D01*
X70500500Y-54220000D01*
X71531177Y-54220000D01*
X71941212Y-54220000D01*
X71925000Y-54280504D01*
X71925000Y-54359496D01*
X71941212Y-54420000D01*
X71531178Y-54420000D01*
X71551901Y-54524181D01*
X71551901Y-54524183D01*
X71604666Y-54651571D01*
X71681271Y-54766220D01*
X71778779Y-54863728D01*
X71893428Y-54940333D01*
X72020816Y-54993098D01*
X72156055Y-55019999D01*
X72156057Y-55020000D01*
X72524999Y-55020000D01*
X72525000Y-55019999D01*
X72525000Y-54620000D01*
X72725000Y-54620000D01*
X72725000Y-55019999D01*
X72725001Y-55020000D01*
X73093943Y-55020000D01*
X73093944Y-55019999D01*
X73229183Y-54993098D01*
X73356571Y-54940333D01*
X73471220Y-54863728D01*
X73568728Y-54766220D01*
X73645333Y-54651571D01*
X73698098Y-54524183D01*
X73698098Y-54524181D01*
X73718822Y-54420000D01*
X73308788Y-54420000D01*
X73325000Y-54359496D01*
X73325000Y-54280504D01*
X73308788Y-54220000D01*
X73718822Y-54220000D01*
X73698098Y-54115818D01*
X73698098Y-54115816D01*
X73645333Y-53988428D01*
X73568728Y-53873779D01*
X73471220Y-53776271D01*
X73356571Y-53699666D01*
X73229183Y-53646901D01*
X73093944Y-53620000D01*
X72725001Y-53620000D01*
X72725000Y-53620001D01*
X72725000Y-54020000D01*
X72525000Y-54020000D01*
X72525000Y-53620001D01*
X72524999Y-53620000D01*
X72156055Y-53620000D01*
X72020816Y-53646901D01*
X71893428Y-53699666D01*
X71778779Y-53776271D01*
X71681271Y-53873779D01*
X71604666Y-53988428D01*
X71551901Y-54115816D01*
X71551901Y-54115818D01*
X71531177Y-54220000D01*
X70500500Y-54220000D01*
X70500500Y-45580000D01*
X71531177Y-45580000D01*
X71941212Y-45580000D01*
X71925000Y-45640504D01*
X71925000Y-45719496D01*
X71941212Y-45780000D01*
X71531178Y-45780000D01*
X71551901Y-45884181D01*
X71551901Y-45884183D01*
X71604666Y-46011571D01*
X71681271Y-46126220D01*
X71778779Y-46223728D01*
X71893428Y-46300333D01*
X72020816Y-46353098D01*
X72156055Y-46379999D01*
X72156057Y-46380000D01*
X72524999Y-46380000D01*
X72525000Y-46379999D01*
X72525000Y-45980000D01*
X72725000Y-45980000D01*
X72725000Y-46379999D01*
X72725001Y-46380000D01*
X73093943Y-46380000D01*
X73093944Y-46379999D01*
X73229183Y-46353098D01*
X73356571Y-46300333D01*
X73471220Y-46223728D01*
X73568728Y-46126220D01*
X73645333Y-46011571D01*
X73698098Y-45884183D01*
X73698098Y-45884181D01*
X73718822Y-45780000D01*
X73308788Y-45780000D01*
X73325000Y-45719496D01*
X73325000Y-45640504D01*
X73308788Y-45580000D01*
X73718822Y-45580000D01*
X73698098Y-45475818D01*
X73698098Y-45475816D01*
X73645333Y-45348428D01*
X73568728Y-45233779D01*
X73471220Y-45136271D01*
X73356571Y-45059666D01*
X73229183Y-45006901D01*
X73093944Y-44980000D01*
X72725001Y-44980000D01*
X72725000Y-44980001D01*
X72725000Y-45380000D01*
X72525000Y-45380000D01*
X72525000Y-44980001D01*
X72524999Y-44980000D01*
X72156055Y-44980000D01*
X72020816Y-45006901D01*
X71893428Y-45059666D01*
X71778779Y-45136271D01*
X71681271Y-45233779D01*
X71604666Y-45348428D01*
X71551901Y-45475816D01*
X71551901Y-45475818D01*
X71531177Y-45580000D01*
X70500500Y-45580000D01*
X70500500Y-43775685D01*
X74719500Y-43775685D01*
X74719500Y-44224314D01*
X74725932Y-44273174D01*
X74725932Y-44273175D01*
X74775933Y-44380401D01*
X74775934Y-44380402D01*
X74775935Y-44380404D01*
X74859596Y-44464065D01*
X74859597Y-44464065D01*
X74860504Y-44464972D01*
X74888281Y-44519489D01*
X74889500Y-44534976D01*
X74889500Y-47929564D01*
X74909977Y-48005985D01*
X74909981Y-48005993D01*
X74929150Y-48039197D01*
X74929151Y-48039197D01*
X74941586Y-48060735D01*
X74949540Y-48074511D01*
X75865489Y-48990460D01*
X75865491Y-48990461D01*
X75865493Y-48990463D01*
X75934008Y-49030020D01*
X75934006Y-49030020D01*
X75934010Y-49030021D01*
X75934012Y-49030022D01*
X76010438Y-49050500D01*
X76089562Y-49050500D01*
X76285521Y-49050500D01*
X76343712Y-49069407D01*
X76379676Y-49118907D01*
X76379676Y-49180093D01*
X76355525Y-49219504D01*
X76315489Y-49259540D01*
X76315488Y-49259539D01*
X76259539Y-49315489D01*
X76219980Y-49384007D01*
X76219978Y-49384011D01*
X76199500Y-49460435D01*
X76199500Y-50139564D01*
X76219978Y-50215988D01*
X76219979Y-50215989D01*
X76246118Y-50261263D01*
X76259539Y-50284510D01*
X76409539Y-50434511D01*
X76465489Y-50490460D01*
X76534007Y-50530019D01*
X76534008Y-50530019D01*
X76534011Y-50530021D01*
X76534013Y-50530021D01*
X76540003Y-50532503D01*
X76539494Y-50533731D01*
X76584932Y-50563234D01*
X76606864Y-50620353D01*
X76605099Y-50644850D01*
X76604501Y-50647857D01*
X76604500Y-50647867D01*
X76604500Y-50852129D01*
X76604501Y-50852137D01*
X76620484Y-50932494D01*
X76620486Y-50932498D01*
X76628840Y-50945001D01*
X76645447Y-51003889D01*
X76628840Y-51054999D01*
X76620485Y-51067503D01*
X76620484Y-51067504D01*
X76604500Y-51147864D01*
X76604500Y-51147867D01*
X76604501Y-51350500D01*
X76585594Y-51408690D01*
X76536094Y-51444654D01*
X76505501Y-51449500D01*
X75789562Y-51449500D01*
X75710438Y-51449500D01*
X75663661Y-51462033D01*
X75634007Y-51469979D01*
X75565493Y-51509536D01*
X75005489Y-52069540D01*
X75005488Y-52069539D01*
X74949539Y-52125489D01*
X74909980Y-52194007D01*
X74909978Y-52194011D01*
X74889500Y-52270435D01*
X74889500Y-55465024D01*
X74870593Y-55523215D01*
X74860504Y-55535028D01*
X74859597Y-55535934D01*
X74859596Y-55535935D01*
X74800319Y-55595212D01*
X74775933Y-55619598D01*
X74725932Y-55726824D01*
X74725932Y-55726825D01*
X74719500Y-55775685D01*
X74719500Y-56224314D01*
X74725932Y-56273174D01*
X74725932Y-56273175D01*
X74775933Y-56380401D01*
X74775934Y-56380402D01*
X74775935Y-56380404D01*
X74859596Y-56464065D01*
X74859597Y-56464065D01*
X74859598Y-56464066D01*
X74966824Y-56514067D01*
X74966825Y-56514067D01*
X74966827Y-56514068D01*
X75015684Y-56520500D01*
X75015685Y-56520500D01*
X75364314Y-56520500D01*
X75364316Y-56520500D01*
X75413173Y-56514068D01*
X75520404Y-56464065D01*
X75604065Y-56380404D01*
X75610551Y-56366493D01*
X75652279Y-56321745D01*
X75712340Y-56310070D01*
X75767793Y-56335927D01*
X75790001Y-56366493D01*
X75796351Y-56380111D01*
X75879890Y-56463650D01*
X75986952Y-56513574D01*
X75986959Y-56513576D01*
X76035745Y-56519999D01*
X76109999Y-56519998D01*
X76110000Y-56519998D01*
X76110000Y-56100001D01*
X76310000Y-56100001D01*
X76310000Y-56519998D01*
X76310001Y-56519999D01*
X76384251Y-56519999D01*
X76384260Y-56519998D01*
X76433041Y-56513577D01*
X76540109Y-56463650D01*
X76623650Y-56380109D01*
X76673574Y-56273047D01*
X76673576Y-56273040D01*
X76680000Y-56224253D01*
X76680000Y-56100001D01*
X76679999Y-56100000D01*
X76310001Y-56100000D01*
X76310000Y-56100001D01*
X76110000Y-56100001D01*
X76110000Y-55480001D01*
X76310000Y-55480001D01*
X76310000Y-55899999D01*
X76310001Y-55900000D01*
X76679998Y-55900000D01*
X76679999Y-55899999D01*
X76679999Y-55775749D01*
X76679998Y-55775739D01*
X76673577Y-55726958D01*
X76623650Y-55619890D01*
X76540109Y-55536349D01*
X76433047Y-55486425D01*
X76433040Y-55486423D01*
X76384254Y-55480000D01*
X76310001Y-55480000D01*
X76310000Y-55480001D01*
X76110000Y-55480001D01*
X76110000Y-55479999D01*
X76035749Y-55480000D01*
X76035738Y-55480001D01*
X75986959Y-55486422D01*
X75879890Y-55536349D01*
X75796349Y-55619890D01*
X75790000Y-55633507D01*
X75748271Y-55678255D01*
X75688210Y-55689929D01*
X75632757Y-55664070D01*
X75610552Y-55633507D01*
X75604066Y-55619598D01*
X75604065Y-55619597D01*
X75604065Y-55619596D01*
X75520404Y-55535935D01*
X75520402Y-55535934D01*
X75519496Y-55535028D01*
X75491719Y-55480511D01*
X75490500Y-55465024D01*
X75490500Y-54762171D01*
X75509407Y-54703980D01*
X75558907Y-54668016D01*
X75620093Y-54668016D01*
X75669593Y-54703980D01*
X75671816Y-54707170D01*
X75711271Y-54766220D01*
X75808779Y-54863728D01*
X75923428Y-54940333D01*
X76050816Y-54993098D01*
X76186055Y-55019999D01*
X76186057Y-55020000D01*
X76704999Y-55020000D01*
X76705000Y-55019999D01*
X76705000Y-54620000D01*
X76905000Y-54620000D01*
X76905000Y-55019999D01*
X76905001Y-55020000D01*
X77423943Y-55020000D01*
X77423944Y-55019999D01*
X77559183Y-54993098D01*
X77686571Y-54940333D01*
X77801220Y-54863728D01*
X77898728Y-54766220D01*
X77975333Y-54651571D01*
X78028098Y-54524183D01*
X78028098Y-54524181D01*
X78048822Y-54420000D01*
X77638788Y-54420000D01*
X77655000Y-54359496D01*
X77655000Y-54280504D01*
X77638788Y-54220000D01*
X78048822Y-54220000D01*
X78028098Y-54115818D01*
X78028098Y-54115816D01*
X77975333Y-53988428D01*
X77898728Y-53873779D01*
X77875867Y-53850918D01*
X77848090Y-53796401D01*
X77857661Y-53735969D01*
X77900926Y-53692704D01*
X77902391Y-53691973D01*
X78011187Y-53638786D01*
X78093786Y-53556187D01*
X78145087Y-53451248D01*
X78155000Y-53383215D01*
X78155000Y-53300001D01*
X78154999Y-53300000D01*
X77479000Y-53300000D01*
X77420809Y-53281093D01*
X77384845Y-53231593D01*
X77380000Y-53201000D01*
X77380000Y-53199000D01*
X77398907Y-53140809D01*
X77448407Y-53104845D01*
X77479000Y-53100000D01*
X78154998Y-53100000D01*
X78154999Y-53099999D01*
X78154999Y-53016786D01*
X78154998Y-53016783D01*
X78143979Y-52941142D01*
X78146811Y-52940729D01*
X78147515Y-52892537D01*
X78184197Y-52843567D01*
X78241213Y-52825500D01*
X78256016Y-52825500D01*
X78256018Y-52825500D01*
X78364237Y-52796503D01*
X78364239Y-52796501D01*
X78364241Y-52796501D01*
X78425274Y-52761263D01*
X78461263Y-52740485D01*
X78540485Y-52661263D01*
X78596503Y-52564237D01*
X78625500Y-52456018D01*
X78625500Y-52343982D01*
X78596503Y-52235763D01*
X78596501Y-52235760D01*
X78596501Y-52235758D01*
X78540486Y-52138739D01*
X78540485Y-52138737D01*
X78461263Y-52059515D01*
X78454470Y-52055593D01*
X78364240Y-52003498D01*
X78364242Y-52003498D01*
X78322251Y-51992247D01*
X78256018Y-51974500D01*
X78251792Y-51974500D01*
X78193601Y-51955593D01*
X78157637Y-51906093D01*
X78154694Y-51856186D01*
X78154888Y-51855206D01*
X78155500Y-51852133D01*
X78155499Y-51647868D01*
X78149058Y-51615487D01*
X78142953Y-51584789D01*
X78139515Y-51567505D01*
X78131159Y-51555000D01*
X78114551Y-51496114D01*
X78131159Y-51444999D01*
X78139515Y-51432495D01*
X78155500Y-51352133D01*
X78155499Y-51149499D01*
X78174406Y-51091310D01*
X78223906Y-51055346D01*
X78254499Y-51050500D01*
X78360438Y-51050500D01*
X79084521Y-51050500D01*
X79142712Y-51069407D01*
X79154524Y-51079496D01*
X79265488Y-51190459D01*
X79265493Y-51190463D01*
X79334008Y-51230020D01*
X79334006Y-51230020D01*
X79334010Y-51230021D01*
X79334012Y-51230022D01*
X79410438Y-51250500D01*
X79489562Y-51250500D01*
X79971635Y-51250500D01*
X80029826Y-51269407D01*
X80055610Y-51300108D01*
X80056035Y-51299806D01*
X80059884Y-51305197D01*
X80060576Y-51306020D01*
X80060802Y-51306483D01*
X80143517Y-51389198D01*
X80197285Y-51415483D01*
X80248604Y-51440572D01*
X80248605Y-51440572D01*
X80248607Y-51440573D01*
X80316740Y-51450500D01*
X80316743Y-51450500D01*
X81408257Y-51450500D01*
X81408260Y-51450500D01*
X81476393Y-51440573D01*
X81557519Y-51400912D01*
X81618101Y-51392341D01*
X81672151Y-51421016D01*
X81699024Y-51475984D01*
X81700000Y-51489853D01*
X81700000Y-51500000D01*
X81700001Y-51500000D01*
X82399999Y-51500000D01*
X82400000Y-51500000D01*
X82400000Y-51499998D01*
X82417609Y-51482389D01*
X82418907Y-51478397D01*
X82428762Y-51471236D01*
X82428996Y-51471003D01*
X82429033Y-51471040D01*
X82468407Y-51442433D01*
X82515616Y-51442091D01*
X82515999Y-51439464D01*
X82523605Y-51440572D01*
X82523607Y-51440573D01*
X82591740Y-51450500D01*
X82591743Y-51450500D01*
X83683257Y-51450500D01*
X83683260Y-51450500D01*
X83751393Y-51440573D01*
X83856483Y-51389198D01*
X83879372Y-51366309D01*
X83891186Y-51354496D01*
X83945703Y-51326719D01*
X83961189Y-51325500D01*
X86001000Y-51325500D01*
X86059191Y-51344407D01*
X86095155Y-51393907D01*
X86100000Y-51424500D01*
X86100000Y-51717176D01*
X86109933Y-51736672D01*
X86100362Y-51797104D01*
X86082158Y-51822159D01*
X85619530Y-52284788D01*
X85573386Y-52364712D01*
X85552146Y-52443983D01*
X85549500Y-52453857D01*
X85549500Y-57146143D01*
X85568007Y-57215212D01*
X85568007Y-57215214D01*
X85573383Y-57235282D01*
X85573384Y-57235284D01*
X85573385Y-57235287D01*
X85573386Y-57235288D01*
X85619530Y-57315212D01*
X87419531Y-59115212D01*
X87419530Y-59115212D01*
X87484787Y-59180468D01*
X87484789Y-59180470D01*
X87533702Y-59208710D01*
X87564712Y-59226614D01*
X87653856Y-59250500D01*
X87653858Y-59250500D01*
X104346142Y-59250500D01*
X104346144Y-59250500D01*
X104435288Y-59226614D01*
X104515212Y-59180470D01*
X106280470Y-57415212D01*
X106326614Y-57335288D01*
X106327872Y-57330593D01*
X106331993Y-57315214D01*
X106331993Y-57315212D01*
X106350500Y-57246143D01*
X106350500Y-53386188D01*
X106369407Y-53327997D01*
X106379490Y-53316191D01*
X106609442Y-53086238D01*
X106663957Y-53058462D01*
X106724389Y-53068033D01*
X106734436Y-53073922D01*
X106762518Y-53092686D01*
X106800396Y-53140736D01*
X106802798Y-53201874D01*
X106768804Y-53252747D01*
X106762517Y-53257315D01*
X106705451Y-53295445D01*
X106705445Y-53295451D01*
X106661134Y-53361766D01*
X106661132Y-53361772D01*
X106649501Y-53420241D01*
X106649500Y-53420253D01*
X106649500Y-54199746D01*
X106649501Y-54199758D01*
X106661132Y-54258227D01*
X106661134Y-54258233D01*
X106686368Y-54295997D01*
X106705448Y-54324552D01*
X106771769Y-54368867D01*
X106816231Y-54377711D01*
X106830241Y-54380498D01*
X106830246Y-54380498D01*
X106830252Y-54380500D01*
X106830253Y-54380500D01*
X109269747Y-54380500D01*
X109269748Y-54380500D01*
X109328231Y-54368867D01*
X109394552Y-54324552D01*
X109438867Y-54258231D01*
X109450500Y-54199748D01*
X109450500Y-53420252D01*
X109438867Y-53361769D01*
X109394552Y-53295448D01*
X109337481Y-53257313D01*
X109299603Y-53209265D01*
X109297201Y-53148127D01*
X109331194Y-53097254D01*
X109337472Y-53092692D01*
X109394552Y-53054552D01*
X109438867Y-52988231D01*
X109450500Y-52929748D01*
X109450500Y-52150253D01*
X110549500Y-52150253D01*
X110549500Y-52929746D01*
X110549501Y-52929758D01*
X110561132Y-52988227D01*
X110561134Y-52988233D01*
X110577410Y-53012591D01*
X110605448Y-53054552D01*
X110605451Y-53054554D01*
X110662517Y-53092685D01*
X110700396Y-53140735D01*
X110702798Y-53201873D01*
X110668805Y-53252747D01*
X110662517Y-53257315D01*
X110605451Y-53295445D01*
X110605445Y-53295451D01*
X110561134Y-53361766D01*
X110561132Y-53361772D01*
X110549501Y-53420241D01*
X110549500Y-53420253D01*
X110549500Y-54199746D01*
X110549501Y-54199758D01*
X110561132Y-54258227D01*
X110561134Y-54258233D01*
X110586368Y-54295997D01*
X110605448Y-54324552D01*
X110671769Y-54368867D01*
X110716231Y-54377711D01*
X110730241Y-54380498D01*
X110730246Y-54380498D01*
X110730252Y-54380500D01*
X110730253Y-54380500D01*
X113169747Y-54380500D01*
X113169748Y-54380500D01*
X113228231Y-54368867D01*
X113294552Y-54324552D01*
X113338867Y-54258231D01*
X113350500Y-54199748D01*
X113350500Y-53420252D01*
X113338867Y-53361769D01*
X113294552Y-53295448D01*
X113237481Y-53257313D01*
X113199603Y-53209265D01*
X113197201Y-53148127D01*
X113231194Y-53097254D01*
X113237472Y-53092692D01*
X113294552Y-53054552D01*
X113338867Y-52988231D01*
X113338867Y-52988226D01*
X113341789Y-52983855D01*
X113389839Y-52945975D01*
X113411185Y-52940703D01*
X113412725Y-52940500D01*
X113412727Y-52940500D01*
X113514588Y-52913207D01*
X113514591Y-52913204D01*
X113520585Y-52910723D01*
X113520602Y-52910765D01*
X113538172Y-52903487D01*
X113564230Y-52896505D01*
X113564230Y-52896504D01*
X113564237Y-52896503D01*
X113661263Y-52840485D01*
X113740485Y-52761263D01*
X113779859Y-52693064D01*
X113796501Y-52664241D01*
X113796501Y-52664239D01*
X113796503Y-52664237D01*
X113825500Y-52556018D01*
X113825500Y-52443982D01*
X113796503Y-52335763D01*
X113796501Y-52335760D01*
X113796501Y-52335758D01*
X113740486Y-52238739D01*
X113740485Y-52238737D01*
X113661263Y-52159515D01*
X113645221Y-52150253D01*
X113564240Y-52103498D01*
X113564242Y-52103498D01*
X113520456Y-52091766D01*
X113456018Y-52074500D01*
X113380244Y-52074500D01*
X113322053Y-52055593D01*
X113297929Y-52030502D01*
X113294553Y-52025450D01*
X113294552Y-52025448D01*
X113294548Y-52025445D01*
X113237033Y-51987014D01*
X113199154Y-51938964D01*
X113196752Y-51877825D01*
X113230746Y-51826952D01*
X113237034Y-51822383D01*
X113294190Y-51784192D01*
X113294193Y-51784189D01*
X113338396Y-51718036D01*
X113349999Y-51659700D01*
X113350000Y-51659697D01*
X113350000Y-51370001D01*
X113349999Y-51370000D01*
X110550001Y-51370000D01*
X110550000Y-51370001D01*
X110550000Y-51659700D01*
X110561603Y-51718036D01*
X110605806Y-51784189D01*
X110605810Y-51784193D01*
X110662966Y-51822384D01*
X110700845Y-51870434D01*
X110703247Y-51931572D01*
X110669254Y-51982446D01*
X110662967Y-51987013D01*
X110605452Y-52025444D01*
X110605445Y-52025451D01*
X110561134Y-52091766D01*
X110561132Y-52091772D01*
X110549501Y-52150241D01*
X110549500Y-52150253D01*
X109450500Y-52150253D01*
X109450500Y-52150252D01*
X109449983Y-52147655D01*
X109441200Y-52103498D01*
X109438867Y-52091769D01*
X109394552Y-52025448D01*
X109337481Y-51987313D01*
X109299603Y-51939265D01*
X109297201Y-51878127D01*
X109331194Y-51827254D01*
X109337472Y-51822692D01*
X109394552Y-51784552D01*
X109438867Y-51718231D01*
X109450500Y-51659748D01*
X109450500Y-50880252D01*
X109438867Y-50821769D01*
X109394552Y-50755448D01*
X109337481Y-50717313D01*
X109299603Y-50669265D01*
X109297201Y-50608127D01*
X109331194Y-50557254D01*
X109337472Y-50552692D01*
X109394552Y-50514552D01*
X109438867Y-50448231D01*
X109450500Y-50389748D01*
X109450500Y-50100001D01*
X110550000Y-50100001D01*
X110550000Y-50389700D01*
X110561603Y-50448036D01*
X110605806Y-50514189D01*
X110605811Y-50514194D01*
X110663416Y-50552685D01*
X110701295Y-50600735D01*
X110703697Y-50661873D01*
X110669704Y-50712747D01*
X110663416Y-50717315D01*
X110605811Y-50755805D01*
X110605806Y-50755810D01*
X110561603Y-50821963D01*
X110550000Y-50880299D01*
X110550000Y-51169999D01*
X110550001Y-51170000D01*
X111849999Y-51170000D01*
X111850000Y-51169999D01*
X111850000Y-50695184D01*
X111844478Y-50684348D01*
X111830852Y-50665593D01*
X111830852Y-50657603D01*
X111827226Y-50650487D01*
X111830852Y-50627592D01*
X111830852Y-50604407D01*
X111835803Y-50596326D01*
X111836797Y-50590055D01*
X111844157Y-50582694D01*
X111850000Y-50573160D01*
X111850000Y-50100001D01*
X112050000Y-50100001D01*
X112050000Y-50574815D01*
X112055521Y-50585651D01*
X112069148Y-50604407D01*
X112069148Y-50612396D01*
X112072774Y-50619513D01*
X112069148Y-50642407D01*
X112069148Y-50665593D01*
X112064452Y-50672055D01*
X112063203Y-50679945D01*
X112050000Y-50698117D01*
X112050000Y-51169999D01*
X112050001Y-51170000D01*
X113349999Y-51170000D01*
X113350000Y-51169999D01*
X113350000Y-50880302D01*
X113349999Y-50880299D01*
X113338396Y-50821963D01*
X113294193Y-50755810D01*
X113294190Y-50755807D01*
X113236584Y-50717316D01*
X113198704Y-50669266D01*
X113196302Y-50608127D01*
X113230295Y-50557254D01*
X113236584Y-50552684D01*
X113294190Y-50514192D01*
X113294193Y-50514189D01*
X113338396Y-50448036D01*
X113349999Y-50389700D01*
X113350000Y-50389697D01*
X113350000Y-50100001D01*
X113349999Y-50100000D01*
X112050001Y-50100000D01*
X112050000Y-50100001D01*
X111850000Y-50100001D01*
X111849999Y-50100000D01*
X110550001Y-50100000D01*
X110550000Y-50100001D01*
X109450500Y-50100001D01*
X109450500Y-49610252D01*
X109438867Y-49551769D01*
X109394552Y-49485448D01*
X109337481Y-49447313D01*
X109299603Y-49399265D01*
X109297201Y-49338127D01*
X109331194Y-49287254D01*
X109337472Y-49282692D01*
X109394552Y-49244552D01*
X109438867Y-49178231D01*
X109450500Y-49119748D01*
X109450500Y-48340253D01*
X110549500Y-48340253D01*
X110549500Y-49119746D01*
X110549501Y-49119758D01*
X110561132Y-49178227D01*
X110561134Y-49178233D01*
X110605445Y-49244548D01*
X110605448Y-49244552D01*
X110605451Y-49244554D01*
X110662966Y-49282985D01*
X110700845Y-49331035D01*
X110703247Y-49392173D01*
X110669254Y-49443047D01*
X110662967Y-49447615D01*
X110605809Y-49485807D01*
X110605806Y-49485810D01*
X110561603Y-49551963D01*
X110550000Y-49610299D01*
X110550000Y-49899999D01*
X110550001Y-49900000D01*
X113349999Y-49900000D01*
X113350000Y-49899999D01*
X113350000Y-49610302D01*
X113349999Y-49610299D01*
X113338396Y-49551963D01*
X113294193Y-49485810D01*
X113294188Y-49485805D01*
X113237033Y-49447615D01*
X113199154Y-49399565D01*
X113196752Y-49338427D01*
X113230745Y-49287553D01*
X113237022Y-49282992D01*
X113294552Y-49244552D01*
X113338867Y-49178231D01*
X113350500Y-49119748D01*
X113350500Y-48340252D01*
X113338867Y-48281769D01*
X113294552Y-48215448D01*
X113294548Y-48215445D01*
X113237033Y-48177014D01*
X113199154Y-48128964D01*
X113196752Y-48067825D01*
X113230746Y-48016952D01*
X113237034Y-48012383D01*
X113294190Y-47974192D01*
X113294193Y-47974189D01*
X113338396Y-47908036D01*
X113349999Y-47849700D01*
X113350000Y-47849697D01*
X113350000Y-47560001D01*
X113349999Y-47560000D01*
X110550001Y-47560000D01*
X110550000Y-47560001D01*
X110550000Y-47849700D01*
X110561603Y-47908036D01*
X110605806Y-47974189D01*
X110605810Y-47974193D01*
X110662966Y-48012384D01*
X110700845Y-48060434D01*
X110703247Y-48121572D01*
X110669254Y-48172446D01*
X110662967Y-48177013D01*
X110605452Y-48215444D01*
X110605445Y-48215451D01*
X110561134Y-48281766D01*
X110561132Y-48281772D01*
X110549501Y-48340241D01*
X110549500Y-48340253D01*
X109450500Y-48340253D01*
X109450500Y-48340252D01*
X109438867Y-48281769D01*
X109394552Y-48215448D01*
X109337481Y-48177313D01*
X109299603Y-48129265D01*
X109297201Y-48068127D01*
X109331194Y-48017254D01*
X109337472Y-48012692D01*
X109394552Y-47974552D01*
X109438867Y-47908231D01*
X109450500Y-47849748D01*
X109450500Y-47070252D01*
X109438867Y-47011769D01*
X109394552Y-46945448D01*
X109337481Y-46907313D01*
X109299603Y-46859265D01*
X109297201Y-46798127D01*
X109331194Y-46747254D01*
X109337472Y-46742692D01*
X109394552Y-46704552D01*
X109438867Y-46638231D01*
X109450500Y-46579748D01*
X109450500Y-45800253D01*
X110549500Y-45800253D01*
X110549500Y-46579746D01*
X110549501Y-46579758D01*
X110561132Y-46638227D01*
X110561134Y-46638233D01*
X110602406Y-46700000D01*
X110605448Y-46704552D01*
X110606083Y-46704976D01*
X110662966Y-46742985D01*
X110700845Y-46791035D01*
X110703247Y-46852173D01*
X110669254Y-46903047D01*
X110662967Y-46907615D01*
X110605809Y-46945807D01*
X110605806Y-46945810D01*
X110561603Y-47011963D01*
X110550000Y-47070299D01*
X110550000Y-47359999D01*
X110550001Y-47360000D01*
X113349999Y-47360000D01*
X113350000Y-47359999D01*
X113350000Y-47070302D01*
X113349999Y-47070299D01*
X113338396Y-47011963D01*
X113294193Y-46945810D01*
X113294188Y-46945805D01*
X113237033Y-46907615D01*
X113199154Y-46859565D01*
X113196752Y-46798427D01*
X113230745Y-46747553D01*
X113237022Y-46742992D01*
X113294552Y-46704552D01*
X113338867Y-46638231D01*
X113350500Y-46579748D01*
X113350500Y-45800252D01*
X113338867Y-45741769D01*
X113294552Y-45675448D01*
X113294548Y-45675445D01*
X113228233Y-45631134D01*
X113228231Y-45631133D01*
X113228228Y-45631132D01*
X113228227Y-45631132D01*
X113169758Y-45619501D01*
X113169748Y-45619500D01*
X110730252Y-45619500D01*
X110730251Y-45619500D01*
X110730241Y-45619501D01*
X110671772Y-45631132D01*
X110671766Y-45631134D01*
X110605451Y-45675445D01*
X110605445Y-45675451D01*
X110561134Y-45741766D01*
X110561132Y-45741772D01*
X110549501Y-45800241D01*
X110549500Y-45800253D01*
X109450500Y-45800253D01*
X109450500Y-45800252D01*
X109438867Y-45741769D01*
X109394552Y-45675448D01*
X109394548Y-45675445D01*
X109328233Y-45631134D01*
X109328231Y-45631133D01*
X109328228Y-45631132D01*
X109328227Y-45631132D01*
X109269758Y-45619501D01*
X109269748Y-45619500D01*
X106830252Y-45619500D01*
X106830251Y-45619500D01*
X106830241Y-45619501D01*
X106771772Y-45631132D01*
X106771766Y-45631134D01*
X106705451Y-45675445D01*
X106705445Y-45675451D01*
X106661134Y-45741766D01*
X106661132Y-45741772D01*
X106649501Y-45800241D01*
X106649500Y-45800253D01*
X106649500Y-46579746D01*
X106649501Y-46579758D01*
X106661132Y-46638227D01*
X106661134Y-46638233D01*
X106702406Y-46700000D01*
X106705448Y-46704552D01*
X106706083Y-46704976D01*
X106762517Y-46742685D01*
X106800396Y-46790735D01*
X106802798Y-46851873D01*
X106768805Y-46902747D01*
X106762517Y-46907315D01*
X106705451Y-46945445D01*
X106705445Y-46945451D01*
X106661134Y-47011766D01*
X106661132Y-47011772D01*
X106657543Y-47029815D01*
X106627646Y-47083199D01*
X106572081Y-47108814D01*
X106560446Y-47109500D01*
X100493856Y-47109500D01*
X100404712Y-47133386D01*
X100404711Y-47133386D01*
X100404709Y-47133387D01*
X100324790Y-47179529D01*
X98539529Y-48964789D01*
X98505561Y-49023621D01*
X98505562Y-49023622D01*
X98493386Y-49044711D01*
X98493386Y-49044712D01*
X98470535Y-49129996D01*
X98469500Y-49133857D01*
X98469500Y-49917952D01*
X98450593Y-49976143D01*
X98440505Y-49987954D01*
X98407958Y-50020502D01*
X98353442Y-50048281D01*
X98337953Y-50049500D01*
X98163231Y-50049500D01*
X98105040Y-50030593D01*
X98069076Y-49981093D01*
X98069076Y-49919907D01*
X98073507Y-49908661D01*
X98119258Y-49810547D01*
X98119259Y-49810545D01*
X98125500Y-49763139D01*
X98125499Y-49436862D01*
X98119259Y-49389455D01*
X98119259Y-49389453D01*
X98070748Y-49285423D01*
X98070747Y-49285422D01*
X98070747Y-49285421D01*
X98055327Y-49270001D01*
X98027552Y-49215487D01*
X98037123Y-49155055D01*
X98055326Y-49129999D01*
X98070747Y-49114579D01*
X98119259Y-49010545D01*
X98125500Y-48963139D01*
X98125499Y-48636862D01*
X98119259Y-48589455D01*
X98119259Y-48589453D01*
X98070748Y-48485423D01*
X98070747Y-48485422D01*
X98070747Y-48485421D01*
X98055327Y-48470001D01*
X98027552Y-48415487D01*
X98037123Y-48355055D01*
X98055326Y-48329999D01*
X98070747Y-48314579D01*
X98119259Y-48210545D01*
X98125500Y-48163139D01*
X98125499Y-47836862D01*
X98119259Y-47789455D01*
X98119259Y-47789453D01*
X98070748Y-47685423D01*
X98070747Y-47685422D01*
X98070747Y-47685421D01*
X98055327Y-47670001D01*
X98027552Y-47615487D01*
X98037123Y-47555055D01*
X98055326Y-47529999D01*
X98070747Y-47514579D01*
X98119259Y-47410545D01*
X98125500Y-47363139D01*
X98125499Y-47036862D01*
X98119259Y-46989455D01*
X98119259Y-46989453D01*
X98070748Y-46885423D01*
X98070747Y-46885422D01*
X98070747Y-46885421D01*
X97989579Y-46804253D01*
X97885545Y-46755741D01*
X97838139Y-46749500D01*
X97838137Y-46749500D01*
X96511865Y-46749500D01*
X96511854Y-46749501D01*
X96464455Y-46755740D01*
X96464453Y-46755740D01*
X96360423Y-46804251D01*
X96279253Y-46885421D01*
X96230741Y-46989455D01*
X96224500Y-47036862D01*
X96224500Y-47363133D01*
X96224501Y-47363145D01*
X96230740Y-47410544D01*
X96230740Y-47410546D01*
X96279251Y-47514576D01*
X96279252Y-47514577D01*
X96279253Y-47514579D01*
X96294672Y-47529998D01*
X96322448Y-47584513D01*
X96312877Y-47644945D01*
X96294673Y-47670000D01*
X96282574Y-47682100D01*
X96279253Y-47685421D01*
X96230741Y-47789455D01*
X96224500Y-47836862D01*
X96224500Y-48163133D01*
X96224501Y-48163145D01*
X96230740Y-48210544D01*
X96230740Y-48210546D01*
X96279251Y-48314576D01*
X96279252Y-48314577D01*
X96279253Y-48314579D01*
X96294672Y-48329998D01*
X96322448Y-48384513D01*
X96312877Y-48444945D01*
X96294673Y-48470000D01*
X96279253Y-48485421D01*
X96230741Y-48589455D01*
X96224500Y-48636862D01*
X96224500Y-48963133D01*
X96224501Y-48963145D01*
X96230740Y-49010544D01*
X96230740Y-49010546D01*
X96279251Y-49114576D01*
X96279252Y-49114577D01*
X96279253Y-49114579D01*
X96294672Y-49129998D01*
X96322448Y-49184513D01*
X96312877Y-49244945D01*
X96294673Y-49270000D01*
X96279253Y-49285421D01*
X96230741Y-49389455D01*
X96224810Y-49434511D01*
X96224500Y-49436862D01*
X96224500Y-49763133D01*
X96224501Y-49763145D01*
X96230740Y-49810544D01*
X96230740Y-49810546D01*
X96279251Y-49914576D01*
X96279252Y-49914577D01*
X96279253Y-49914579D01*
X96294672Y-49929998D01*
X96322448Y-49984513D01*
X96312877Y-50044945D01*
X96294673Y-50070000D01*
X96279253Y-50085421D01*
X96230741Y-50189455D01*
X96224500Y-50236862D01*
X96224500Y-50563133D01*
X96224501Y-50563145D01*
X96230740Y-50610544D01*
X96230740Y-50610546D01*
X96279251Y-50714576D01*
X96279252Y-50714577D01*
X96279253Y-50714579D01*
X96294672Y-50729998D01*
X96322448Y-50784513D01*
X96312877Y-50844945D01*
X96294673Y-50870000D01*
X96284433Y-50880241D01*
X96279253Y-50885421D01*
X96230741Y-50989455D01*
X96224500Y-51036862D01*
X96224500Y-51363133D01*
X96224501Y-51363145D01*
X96230740Y-51410544D01*
X96230740Y-51410546D01*
X96279251Y-51514576D01*
X96279252Y-51514577D01*
X96279253Y-51514579D01*
X96294672Y-51529998D01*
X96322448Y-51584513D01*
X96312877Y-51644945D01*
X96294673Y-51670000D01*
X96279253Y-51685421D01*
X96230741Y-51789455D01*
X96225553Y-51828867D01*
X96224500Y-51836862D01*
X96224500Y-52163133D01*
X96224501Y-52163145D01*
X96230740Y-52210544D01*
X96230740Y-52210546D01*
X96279251Y-52314576D01*
X96279252Y-52314577D01*
X96279253Y-52314579D01*
X96294672Y-52329998D01*
X96322448Y-52384513D01*
X96312877Y-52444945D01*
X96294673Y-52470000D01*
X96285459Y-52479215D01*
X96279253Y-52485421D01*
X96230741Y-52589455D01*
X96224500Y-52636862D01*
X96224500Y-52963133D01*
X96224501Y-52963145D01*
X96230740Y-53010544D01*
X96230740Y-53010546D01*
X96279251Y-53114576D01*
X96279252Y-53114577D01*
X96279253Y-53114579D01*
X96360421Y-53195747D01*
X96464455Y-53244259D01*
X96511861Y-53250500D01*
X96704634Y-53250499D01*
X96762825Y-53269406D01*
X96798789Y-53318906D01*
X96800260Y-53323869D01*
X96801793Y-53329588D01*
X96801794Y-53329591D01*
X96854516Y-53420908D01*
X96854520Y-53420913D01*
X97102005Y-53668399D01*
X97117737Y-53688902D01*
X97123952Y-53699666D01*
X97148105Y-53741501D01*
X97160826Y-53801349D01*
X97135939Y-53857244D01*
X97082951Y-53887837D01*
X97062368Y-53890000D01*
X97020001Y-53890000D01*
X97020000Y-53890001D01*
X97020000Y-54909999D01*
X97020001Y-54910000D01*
X97099838Y-54910000D01*
X97149354Y-54903480D01*
X97149361Y-54903478D01*
X97258021Y-54852809D01*
X97329642Y-54781189D01*
X97384159Y-54753412D01*
X97444591Y-54762983D01*
X97469646Y-54781186D01*
X97541684Y-54853224D01*
X97650513Y-54903972D01*
X97700099Y-54910500D01*
X98059900Y-54910499D01*
X98109487Y-54903972D01*
X98109488Y-54903972D01*
X98195790Y-54863728D01*
X98218316Y-54853224D01*
X98303224Y-54768316D01*
X98353972Y-54659487D01*
X98360500Y-54609901D01*
X98360499Y-54190100D01*
X98353972Y-54140513D01*
X98353972Y-54140511D01*
X98303225Y-54031687D01*
X98303224Y-54031684D01*
X98303220Y-54031680D01*
X98298403Y-54024799D01*
X98280500Y-53968016D01*
X98280500Y-53915189D01*
X98299407Y-53856998D01*
X98348907Y-53821034D01*
X98410093Y-53821034D01*
X98449504Y-53845186D01*
X98820924Y-54216607D01*
X98848701Y-54271123D01*
X98849413Y-54293405D01*
X98849608Y-54293415D01*
X98849500Y-54295727D01*
X98849500Y-54904274D01*
X98852353Y-54934694D01*
X98852355Y-54934703D01*
X98897207Y-55062883D01*
X98977845Y-55172144D01*
X98977847Y-55172146D01*
X98977850Y-55172150D01*
X98977853Y-55172152D01*
X98977855Y-55172154D01*
X99087116Y-55252792D01*
X99087117Y-55252792D01*
X99087118Y-55252793D01*
X99215301Y-55297646D01*
X99245725Y-55300499D01*
X99245727Y-55300500D01*
X99245734Y-55300500D01*
X99250500Y-55300500D01*
X99308691Y-55319407D01*
X99344655Y-55368907D01*
X99349500Y-55399500D01*
X99349500Y-55426144D01*
X99373386Y-55515288D01*
X99419530Y-55595212D01*
X99419531Y-55595213D01*
X99419532Y-55595214D01*
X99810503Y-55986184D01*
X99838281Y-56040701D01*
X99839500Y-56056187D01*
X99839500Y-56209895D01*
X99839501Y-56209907D01*
X99846027Y-56259486D01*
X99846027Y-56259488D01*
X99896774Y-56368313D01*
X99896775Y-56368314D01*
X99896776Y-56368316D01*
X99981684Y-56453224D01*
X100090513Y-56503972D01*
X100140099Y-56510500D01*
X100499900Y-56510499D01*
X100549487Y-56503972D01*
X100549488Y-56503972D01*
X100635957Y-56463650D01*
X100658316Y-56453224D01*
X100730352Y-56381187D01*
X100784867Y-56353412D01*
X100845299Y-56362983D01*
X100870358Y-56381189D01*
X100941978Y-56452809D01*
X101050638Y-56503478D01*
X101050645Y-56503480D01*
X101100161Y-56510000D01*
X101179999Y-56510000D01*
X101180000Y-56509999D01*
X101180000Y-56100001D01*
X101380000Y-56100001D01*
X101380000Y-56509999D01*
X101380001Y-56510000D01*
X101459838Y-56510000D01*
X101509354Y-56503480D01*
X101509361Y-56503478D01*
X101618021Y-56452809D01*
X101702809Y-56368021D01*
X101753478Y-56259361D01*
X101753480Y-56259354D01*
X101760000Y-56209838D01*
X101760000Y-56100001D01*
X101759999Y-56100000D01*
X101380001Y-56100000D01*
X101380000Y-56100001D01*
X101180000Y-56100001D01*
X101180000Y-55490001D01*
X101380000Y-55490001D01*
X101380000Y-55899999D01*
X101380001Y-55900000D01*
X101759999Y-55900000D01*
X101760000Y-55899999D01*
X101760000Y-55790161D01*
X101753480Y-55740645D01*
X101753478Y-55740638D01*
X101702809Y-55631978D01*
X101618021Y-55547190D01*
X101510925Y-55497250D01*
X101381098Y-55490000D01*
X101380001Y-55490000D01*
X101380000Y-55490001D01*
X101180000Y-55490001D01*
X101179999Y-55490000D01*
X101100161Y-55490000D01*
X101050645Y-55496519D01*
X101050638Y-55496521D01*
X100941978Y-55547190D01*
X100870358Y-55618811D01*
X100815841Y-55646588D01*
X100755409Y-55637017D01*
X100730353Y-55618813D01*
X100658316Y-55546776D01*
X100658314Y-55546775D01*
X100658313Y-55546774D01*
X100560458Y-55501144D01*
X100549488Y-55496028D01*
X100524694Y-55492764D01*
X100499901Y-55489500D01*
X100499900Y-55489500D01*
X100346188Y-55489500D01*
X100287997Y-55470593D01*
X100276190Y-55460509D01*
X100243235Y-55427554D01*
X100215460Y-55373038D01*
X100225032Y-55312606D01*
X100268297Y-55269342D01*
X100280535Y-55264111D01*
X100312882Y-55252793D01*
X100422150Y-55172150D01*
X100502793Y-55062882D01*
X100547646Y-54934699D01*
X100550499Y-54904273D01*
X100550500Y-54904273D01*
X100550500Y-54700001D01*
X101050001Y-54700001D01*
X101050001Y-54904203D01*
X101052850Y-54934600D01*
X101052850Y-54934602D01*
X101097654Y-55062647D01*
X101178207Y-55171790D01*
X101178209Y-55171792D01*
X101287352Y-55252345D01*
X101403351Y-55292934D01*
X101529852Y-55299999D01*
X101799999Y-55299999D01*
X101800000Y-55299998D01*
X101800000Y-54700001D01*
X102000000Y-54700001D01*
X102000000Y-55299998D01*
X102000001Y-55299999D01*
X102354203Y-55299999D01*
X102384600Y-55297149D01*
X102384602Y-55297149D01*
X102512647Y-55252345D01*
X102621790Y-55171792D01*
X102621792Y-55171790D01*
X102702345Y-55062647D01*
X102747149Y-54934601D01*
X102749999Y-54904211D01*
X102750000Y-54904210D01*
X102750000Y-54700001D01*
X102749999Y-54700000D01*
X102000001Y-54700000D01*
X102000000Y-54700001D01*
X101800000Y-54700001D01*
X101799999Y-54700000D01*
X101050002Y-54700000D01*
X101050001Y-54700001D01*
X100550500Y-54700001D01*
X100550500Y-54295788D01*
X101050000Y-54295788D01*
X101050000Y-54499999D01*
X101050001Y-54500000D01*
X101799999Y-54500000D01*
X101800000Y-54499999D01*
X101800000Y-53900001D01*
X102000000Y-53900001D01*
X102000000Y-54499999D01*
X102000001Y-54500000D01*
X102749998Y-54500000D01*
X102749999Y-54499999D01*
X102749999Y-54295796D01*
X102748518Y-54280001D01*
X102990000Y-54280001D01*
X102990000Y-54359838D01*
X102996519Y-54409354D01*
X102996521Y-54409361D01*
X103047190Y-54518021D01*
X103131978Y-54602809D01*
X103240638Y-54653478D01*
X103240645Y-54653480D01*
X103290161Y-54660000D01*
X103399999Y-54660000D01*
X103400000Y-54659999D01*
X103400000Y-54280001D01*
X103600000Y-54280001D01*
X103600000Y-54659999D01*
X103600001Y-54660000D01*
X103709838Y-54660000D01*
X103759354Y-54653480D01*
X103759361Y-54653478D01*
X103868021Y-54602809D01*
X103952809Y-54518021D01*
X104003478Y-54409361D01*
X104003480Y-54409354D01*
X104010000Y-54359838D01*
X104010000Y-54280001D01*
X104009999Y-54280000D01*
X103600001Y-54280000D01*
X103600000Y-54280001D01*
X103400000Y-54280001D01*
X103399999Y-54280000D01*
X102990001Y-54280000D01*
X102990000Y-54280001D01*
X102748518Y-54280001D01*
X102747149Y-54265399D01*
X102747149Y-54265397D01*
X102702345Y-54137352D01*
X102621792Y-54028209D01*
X102621790Y-54028207D01*
X102512647Y-53947654D01*
X102384601Y-53902850D01*
X102354211Y-53900000D01*
X102000001Y-53900000D01*
X102000000Y-53900001D01*
X101800000Y-53900001D01*
X101799999Y-53900000D01*
X101445796Y-53900000D01*
X101415399Y-53902850D01*
X101415397Y-53902850D01*
X101287352Y-53947654D01*
X101178209Y-54028207D01*
X101178207Y-54028209D01*
X101097654Y-54137352D01*
X101052850Y-54265398D01*
X101050000Y-54295788D01*
X100550500Y-54295788D01*
X100550500Y-54295727D01*
X100550499Y-54295725D01*
X100547646Y-54265301D01*
X100502793Y-54137118D01*
X100487071Y-54115816D01*
X100422154Y-54027855D01*
X100422152Y-54027853D01*
X100422150Y-54027850D01*
X100422146Y-54027847D01*
X100422144Y-54027845D01*
X100312883Y-53947207D01*
X100184703Y-53902355D01*
X100184694Y-53902353D01*
X100154274Y-53899500D01*
X100154266Y-53899500D01*
X99536190Y-53899500D01*
X99477999Y-53880593D01*
X99466186Y-53870504D01*
X99264685Y-53669003D01*
X99236908Y-53614486D01*
X99246479Y-53554054D01*
X99289744Y-53510789D01*
X99334689Y-53499999D01*
X99599999Y-53499999D01*
X99600000Y-53499998D01*
X99600000Y-52900001D01*
X99800000Y-52900001D01*
X99800000Y-53499998D01*
X99800001Y-53499999D01*
X100154203Y-53499999D01*
X100184600Y-53497149D01*
X100184602Y-53497149D01*
X100312647Y-53452345D01*
X100421790Y-53371792D01*
X100421792Y-53371790D01*
X100502345Y-53262647D01*
X100547149Y-53134601D01*
X100549999Y-53104211D01*
X100550000Y-53104210D01*
X100550000Y-52900001D01*
X100549999Y-52900000D01*
X99800001Y-52900000D01*
X99800000Y-52900001D01*
X99600000Y-52900001D01*
X99600000Y-52100001D01*
X99800000Y-52100001D01*
X99800000Y-52699999D01*
X99800001Y-52700000D01*
X100549998Y-52700000D01*
X100549999Y-52699999D01*
X100549999Y-52495796D01*
X100547149Y-52465399D01*
X100547149Y-52465397D01*
X100502345Y-52337352D01*
X100421792Y-52228209D01*
X100421790Y-52228207D01*
X100312647Y-52147654D01*
X100184601Y-52102850D01*
X100154211Y-52100000D01*
X99800001Y-52100000D01*
X99800000Y-52100001D01*
X99600000Y-52100001D01*
X99599999Y-52100000D01*
X99245796Y-52100000D01*
X99215399Y-52102850D01*
X99215397Y-52102850D01*
X99087350Y-52147655D01*
X99015257Y-52200863D01*
X98957209Y-52220205D01*
X98898879Y-52201734D01*
X98885568Y-52188864D01*
X98885057Y-52189376D01*
X98815217Y-52119535D01*
X98815211Y-52119530D01*
X98415185Y-51719503D01*
X98387408Y-51664987D01*
X98396979Y-51604555D01*
X98440244Y-51561290D01*
X98485189Y-51550500D01*
X101113810Y-51550500D01*
X101172001Y-51569407D01*
X101183814Y-51579496D01*
X101520504Y-51916186D01*
X101548281Y-51970703D01*
X101549500Y-51986190D01*
X101549500Y-52000500D01*
X101530593Y-52058691D01*
X101481093Y-52094655D01*
X101450500Y-52099500D01*
X101445725Y-52099500D01*
X101415305Y-52102353D01*
X101415296Y-52102355D01*
X101287116Y-52147207D01*
X101177855Y-52227845D01*
X101177845Y-52227855D01*
X101097207Y-52337116D01*
X101052355Y-52465296D01*
X101052353Y-52465305D01*
X101049500Y-52495725D01*
X101049500Y-53104274D01*
X101052353Y-53134694D01*
X101052355Y-53134703D01*
X101097207Y-53262883D01*
X101177845Y-53372144D01*
X101177847Y-53372146D01*
X101177850Y-53372150D01*
X101177853Y-53372152D01*
X101177855Y-53372154D01*
X101287116Y-53452792D01*
X101287117Y-53452792D01*
X101287118Y-53452793D01*
X101415301Y-53497646D01*
X101445725Y-53500499D01*
X101445727Y-53500500D01*
X101445734Y-53500500D01*
X102354273Y-53500500D01*
X102354273Y-53500499D01*
X102384699Y-53497646D01*
X102512882Y-53452793D01*
X102622150Y-53372150D01*
X102689353Y-53281093D01*
X102702791Y-53262885D01*
X102702792Y-53262883D01*
X102702793Y-53262882D01*
X102718917Y-53216801D01*
X102755982Y-53168122D01*
X102812361Y-53150500D01*
X102890500Y-53150500D01*
X102948691Y-53169407D01*
X102984655Y-53218907D01*
X102989500Y-53249499D01*
X102989500Y-53399895D01*
X102989501Y-53399907D01*
X102996027Y-53449486D01*
X102996027Y-53449488D01*
X103046774Y-53558313D01*
X103046775Y-53558314D01*
X103046776Y-53558316D01*
X103118812Y-53630352D01*
X103146588Y-53684867D01*
X103137017Y-53745299D01*
X103118811Y-53770358D01*
X103047190Y-53841978D01*
X102996521Y-53950638D01*
X102996519Y-53950645D01*
X102990000Y-54000161D01*
X102990000Y-54079999D01*
X102990001Y-54080000D01*
X104009999Y-54080000D01*
X104010000Y-54079999D01*
X104010000Y-54000161D01*
X104003480Y-53950645D01*
X104003478Y-53950638D01*
X103952809Y-53841978D01*
X103881189Y-53770358D01*
X103853412Y-53715841D01*
X103862983Y-53655409D01*
X103881186Y-53630353D01*
X103953224Y-53558316D01*
X104003972Y-53449487D01*
X104010500Y-53399901D01*
X104010499Y-53040100D01*
X104003972Y-52990513D01*
X104003972Y-52990511D01*
X103953225Y-52881686D01*
X103953224Y-52881685D01*
X103953224Y-52881684D01*
X103868316Y-52796776D01*
X103868314Y-52796775D01*
X103868313Y-52796774D01*
X103759489Y-52746029D01*
X103759488Y-52746028D01*
X103734694Y-52742764D01*
X103709901Y-52739500D01*
X103709900Y-52739500D01*
X103556190Y-52739500D01*
X103497999Y-52720593D01*
X103486187Y-52710504D01*
X103295214Y-52519532D01*
X103295212Y-52519530D01*
X103215288Y-52473386D01*
X103126144Y-52449500D01*
X103126142Y-52449500D01*
X102812361Y-52449500D01*
X102754170Y-52430593D01*
X102718917Y-52383198D01*
X102702793Y-52337118D01*
X102702791Y-52337116D01*
X102702791Y-52337114D01*
X102622154Y-52227855D01*
X102622152Y-52227853D01*
X102622150Y-52227850D01*
X102622146Y-52227847D01*
X102622144Y-52227845D01*
X102512883Y-52147207D01*
X102384703Y-52102355D01*
X102384694Y-52102353D01*
X102354274Y-52099500D01*
X102354266Y-52099500D01*
X102349500Y-52099500D01*
X102291309Y-52080593D01*
X102255345Y-52031093D01*
X102250500Y-52000500D01*
X102250500Y-51753857D01*
X102248176Y-51745182D01*
X102226614Y-51664712D01*
X102216889Y-51647868D01*
X102215201Y-51644945D01*
X102191708Y-51604253D01*
X102180470Y-51584788D01*
X101515212Y-50919530D01*
X101435288Y-50873386D01*
X101346144Y-50849500D01*
X101346142Y-50849500D01*
X100320214Y-50849500D01*
X100262023Y-50830593D01*
X100226059Y-50781093D01*
X100226059Y-50719907D01*
X100230490Y-50708661D01*
X100253478Y-50659361D01*
X100253480Y-50659354D01*
X100260000Y-50609838D01*
X100260000Y-50500001D01*
X100259999Y-50500000D01*
X99879000Y-50500000D01*
X99820809Y-50481093D01*
X99808293Y-50470293D01*
X99720908Y-50381125D01*
X99720809Y-50381093D01*
X99720614Y-50380824D01*
X99710293Y-50370293D01*
X99704517Y-50358670D01*
X99684845Y-50331593D01*
X99680000Y-50301000D01*
X99680000Y-49890001D01*
X99880000Y-49890001D01*
X99880000Y-50260577D01*
X99918634Y-50300000D01*
X100259999Y-50300000D01*
X100260000Y-50299999D01*
X100260000Y-50190161D01*
X100253480Y-50140645D01*
X100253478Y-50140638D01*
X100202809Y-50031978D01*
X100118021Y-49947190D01*
X100009361Y-49896521D01*
X100009354Y-49896519D01*
X99959839Y-49890000D01*
X99880001Y-49890000D01*
X99880000Y-49890001D01*
X99680000Y-49890001D01*
X99679999Y-49890000D01*
X99600161Y-49890000D01*
X99550645Y-49896519D01*
X99550638Y-49896521D01*
X99441978Y-49947190D01*
X99441975Y-49947192D01*
X99370357Y-50018810D01*
X99315840Y-50046587D01*
X99255408Y-50037015D01*
X99230350Y-50018810D01*
X99199496Y-49987956D01*
X99171719Y-49933439D01*
X99170500Y-49917952D01*
X99170500Y-49366189D01*
X99189407Y-49307998D01*
X99199496Y-49296185D01*
X100656185Y-47839496D01*
X100710702Y-47811719D01*
X100726189Y-47810500D01*
X106560446Y-47810500D01*
X106618637Y-47829407D01*
X106654601Y-47878907D01*
X106657543Y-47890185D01*
X106661132Y-47908227D01*
X106661134Y-47908233D01*
X106682685Y-47940486D01*
X106705448Y-47974552D01*
X106705451Y-47974554D01*
X106762517Y-48012685D01*
X106800396Y-48060735D01*
X106802798Y-48121873D01*
X106768805Y-48172747D01*
X106762517Y-48177315D01*
X106705451Y-48215445D01*
X106705445Y-48215451D01*
X106661134Y-48281766D01*
X106661132Y-48281772D01*
X106649501Y-48340241D01*
X106649500Y-48340253D01*
X106649500Y-49119746D01*
X106649501Y-49119758D01*
X106661132Y-49178227D01*
X106661134Y-49178233D01*
X106705445Y-49244548D01*
X106705448Y-49244552D01*
X106705451Y-49244554D01*
X106762517Y-49282685D01*
X106800396Y-49330735D01*
X106802798Y-49391873D01*
X106768805Y-49442747D01*
X106762517Y-49447315D01*
X106705451Y-49485445D01*
X106705445Y-49485451D01*
X106661134Y-49551766D01*
X106661132Y-49551772D01*
X106657543Y-49569815D01*
X106627646Y-49623199D01*
X106572081Y-49648814D01*
X106560446Y-49649500D01*
X106353856Y-49649500D01*
X106296058Y-49664987D01*
X106264712Y-49673386D01*
X106184788Y-49719530D01*
X104519529Y-51384789D01*
X104487387Y-51440459D01*
X104487388Y-51440460D01*
X104473386Y-51464710D01*
X104449500Y-51553857D01*
X104449500Y-56613810D01*
X104430593Y-56672001D01*
X104420504Y-56683814D01*
X103783814Y-57320504D01*
X103729297Y-57348281D01*
X103713810Y-57349500D01*
X92486190Y-57349500D01*
X92427999Y-57330593D01*
X92416186Y-57320504D01*
X91379496Y-56283814D01*
X91351719Y-56229297D01*
X91350500Y-56213810D01*
X91350500Y-55163231D01*
X91369407Y-55105040D01*
X91418907Y-55069076D01*
X91480093Y-55069076D01*
X91491339Y-55073507D01*
X91589452Y-55119258D01*
X91589453Y-55119258D01*
X91589455Y-55119259D01*
X91636861Y-55125500D01*
X91963138Y-55125499D01*
X92010545Y-55119259D01*
X92010546Y-55119259D01*
X92066611Y-55093114D01*
X92114579Y-55070747D01*
X92129998Y-55055327D01*
X92184513Y-55027552D01*
X92244945Y-55037123D01*
X92270000Y-55055326D01*
X92285421Y-55070747D01*
X92389455Y-55119259D01*
X92436861Y-55125500D01*
X92763138Y-55125499D01*
X92810545Y-55119259D01*
X92810546Y-55119259D01*
X92866611Y-55093114D01*
X92914579Y-55070747D01*
X92929998Y-55055327D01*
X92984513Y-55027552D01*
X93044945Y-55037123D01*
X93070000Y-55055326D01*
X93085421Y-55070747D01*
X93189455Y-55119259D01*
X93236861Y-55125500D01*
X93563138Y-55125499D01*
X93610545Y-55119259D01*
X93610546Y-55119259D01*
X93666611Y-55093114D01*
X93714579Y-55070747D01*
X93729998Y-55055327D01*
X93784513Y-55027552D01*
X93844945Y-55037123D01*
X93870000Y-55055326D01*
X93885421Y-55070747D01*
X93989455Y-55119259D01*
X94036861Y-55125500D01*
X94363138Y-55125499D01*
X94410545Y-55119259D01*
X94410546Y-55119259D01*
X94466611Y-55093114D01*
X94514579Y-55070747D01*
X94529998Y-55055327D01*
X94584513Y-55027552D01*
X94644945Y-55037123D01*
X94670000Y-55055326D01*
X94685421Y-55070747D01*
X94789455Y-55119259D01*
X94836861Y-55125500D01*
X95163138Y-55125499D01*
X95210545Y-55119259D01*
X95210546Y-55119259D01*
X95266611Y-55093114D01*
X95314579Y-55070747D01*
X95330351Y-55054974D01*
X95384866Y-55027199D01*
X95445298Y-55036770D01*
X95470357Y-55054976D01*
X95485714Y-55070333D01*
X95589581Y-55118767D01*
X95589582Y-55118768D01*
X95636915Y-55124999D01*
X95699999Y-55124998D01*
X95700000Y-55124998D01*
X95700000Y-54275001D01*
X95900000Y-54275001D01*
X95900000Y-55124998D01*
X95900001Y-55124999D01*
X95963081Y-55124999D01*
X95963091Y-55124998D01*
X96010413Y-55118769D01*
X96010415Y-55118769D01*
X96114285Y-55070333D01*
X96195333Y-54989285D01*
X96243767Y-54885418D01*
X96243768Y-54885417D01*
X96250000Y-54838083D01*
X96250000Y-54677091D01*
X96268907Y-54618900D01*
X96318407Y-54582936D01*
X96379593Y-54582936D01*
X96429093Y-54618900D01*
X96442546Y-54652624D01*
X96444400Y-54652084D01*
X96446521Y-54659361D01*
X96497190Y-54768021D01*
X96581978Y-54852809D01*
X96690638Y-54903478D01*
X96690645Y-54903480D01*
X96740161Y-54910000D01*
X96819999Y-54910000D01*
X96820000Y-54909999D01*
X96820000Y-53890001D01*
X96819999Y-53890000D01*
X96740161Y-53890000D01*
X96690645Y-53896519D01*
X96690638Y-53896521D01*
X96581978Y-53947190D01*
X96497190Y-54031978D01*
X96446521Y-54140638D01*
X96446519Y-54140645D01*
X96440000Y-54190161D01*
X96440000Y-54225993D01*
X96421093Y-54284184D01*
X96371593Y-54320148D01*
X96310407Y-54320148D01*
X96270996Y-54295997D01*
X96249999Y-54275000D01*
X95900001Y-54275000D01*
X95900000Y-54275001D01*
X95700000Y-54275001D01*
X95700000Y-53225001D01*
X95900000Y-53225001D01*
X95900000Y-54074999D01*
X95900001Y-54075000D01*
X96249998Y-54075000D01*
X96249999Y-54074999D01*
X96249999Y-53511919D01*
X96249998Y-53511908D01*
X96243769Y-53464586D01*
X96243769Y-53464584D01*
X96195333Y-53360714D01*
X96114285Y-53279666D01*
X96010418Y-53231232D01*
X96010417Y-53231231D01*
X95963084Y-53225000D01*
X95900001Y-53225000D01*
X95900000Y-53225001D01*
X95700000Y-53225001D01*
X95700000Y-53224999D01*
X95636919Y-53225000D01*
X95636907Y-53225001D01*
X95589586Y-53231230D01*
X95589584Y-53231230D01*
X95485714Y-53279666D01*
X95485711Y-53279668D01*
X95470355Y-53295024D01*
X95415838Y-53322801D01*
X95355406Y-53313228D01*
X95330351Y-53295024D01*
X95314580Y-53279254D01*
X95314579Y-53279253D01*
X95210545Y-53230741D01*
X95163139Y-53224500D01*
X95163137Y-53224500D01*
X94836866Y-53224500D01*
X94836854Y-53224501D01*
X94789455Y-53230740D01*
X94789453Y-53230740D01*
X94685423Y-53279251D01*
X94685421Y-53279252D01*
X94685421Y-53279253D01*
X94670001Y-53294672D01*
X94615487Y-53322448D01*
X94555055Y-53312877D01*
X94529999Y-53294673D01*
X94514579Y-53279253D01*
X94410545Y-53230741D01*
X94363139Y-53224500D01*
X94363137Y-53224500D01*
X94036866Y-53224500D01*
X94036854Y-53224501D01*
X93989455Y-53230740D01*
X93989453Y-53230740D01*
X93885423Y-53279251D01*
X93885421Y-53279252D01*
X93885421Y-53279253D01*
X93870001Y-53294672D01*
X93815487Y-53322448D01*
X93755055Y-53312877D01*
X93729999Y-53294673D01*
X93714579Y-53279253D01*
X93610545Y-53230741D01*
X93563139Y-53224500D01*
X93563137Y-53224500D01*
X93236866Y-53224500D01*
X93236854Y-53224501D01*
X93189455Y-53230740D01*
X93189453Y-53230740D01*
X93085423Y-53279251D01*
X93085421Y-53279252D01*
X93085421Y-53279253D01*
X93070001Y-53294672D01*
X93015487Y-53322448D01*
X92955055Y-53312877D01*
X92929999Y-53294673D01*
X92914579Y-53279253D01*
X92810545Y-53230741D01*
X92763139Y-53224500D01*
X92763137Y-53224500D01*
X92436866Y-53224500D01*
X92436854Y-53224501D01*
X92389455Y-53230740D01*
X92389453Y-53230740D01*
X92285423Y-53279251D01*
X92285421Y-53279252D01*
X92285421Y-53279253D01*
X92270001Y-53294672D01*
X92215487Y-53322448D01*
X92155055Y-53312877D01*
X92129999Y-53294673D01*
X92114579Y-53279253D01*
X92010545Y-53230741D01*
X91963139Y-53224500D01*
X91963137Y-53224500D01*
X91636866Y-53224500D01*
X91636854Y-53224501D01*
X91589455Y-53230740D01*
X91589453Y-53230740D01*
X91485423Y-53279251D01*
X91485421Y-53279252D01*
X91485421Y-53279253D01*
X91470001Y-53294672D01*
X91415487Y-53322448D01*
X91355055Y-53312877D01*
X91329999Y-53294673D01*
X91314579Y-53279253D01*
X91210545Y-53230741D01*
X91163139Y-53224500D01*
X91163137Y-53224500D01*
X90836866Y-53224500D01*
X90836854Y-53224501D01*
X90789455Y-53230740D01*
X90789453Y-53230740D01*
X90685423Y-53279251D01*
X90685421Y-53279252D01*
X90685421Y-53279253D01*
X90670001Y-53294672D01*
X90615487Y-53322448D01*
X90555055Y-53312877D01*
X90529999Y-53294673D01*
X90514579Y-53279253D01*
X90410545Y-53230741D01*
X90363139Y-53224500D01*
X90363137Y-53224500D01*
X90036866Y-53224500D01*
X90036854Y-53224501D01*
X89989455Y-53230740D01*
X89989453Y-53230740D01*
X89885423Y-53279251D01*
X89804253Y-53360421D01*
X89755741Y-53464455D01*
X89749500Y-53511862D01*
X89749500Y-54838134D01*
X89749501Y-54838145D01*
X89755740Y-54885544D01*
X89755740Y-54885546D01*
X89804251Y-54989576D01*
X89804252Y-54989577D01*
X89804253Y-54989579D01*
X89885421Y-55070747D01*
X89989455Y-55119259D01*
X90036861Y-55125500D01*
X90363138Y-55125499D01*
X90410545Y-55119259D01*
X90508660Y-55073506D01*
X90569390Y-55066050D01*
X90622904Y-55095713D01*
X90648762Y-55151166D01*
X90649500Y-55163231D01*
X90649500Y-56446143D01*
X90664994Y-56503971D01*
X90673384Y-56535284D01*
X90673385Y-56535286D01*
X90673386Y-56535288D01*
X90719530Y-56615212D01*
X91319530Y-57215212D01*
X91884814Y-57780496D01*
X91912591Y-57835013D01*
X91903020Y-57895445D01*
X91859755Y-57938710D01*
X91814810Y-57949500D01*
X88186189Y-57949500D01*
X88127998Y-57930593D01*
X88116185Y-57920504D01*
X86879496Y-56683814D01*
X86851719Y-56629297D01*
X86850500Y-56613810D01*
X86850500Y-53586190D01*
X86869407Y-53527999D01*
X86879496Y-53516186D01*
X87216186Y-53179496D01*
X87270703Y-53151719D01*
X87286190Y-53150500D01*
X87924167Y-53150500D01*
X87982358Y-53169407D01*
X87994164Y-53179490D01*
X88010421Y-53195747D01*
X88114455Y-53244259D01*
X88161861Y-53250500D01*
X89488138Y-53250499D01*
X89535545Y-53244259D01*
X89535546Y-53244259D01*
X89609363Y-53209837D01*
X89639579Y-53195747D01*
X89720747Y-53114579D01*
X89769259Y-53010545D01*
X89775500Y-52963139D01*
X89775499Y-52636862D01*
X89772777Y-52616186D01*
X89769259Y-52589455D01*
X89769259Y-52589453D01*
X89720748Y-52485423D01*
X89720747Y-52485422D01*
X89720747Y-52485421D01*
X89705327Y-52470001D01*
X89677552Y-52415487D01*
X89687123Y-52355055D01*
X89705326Y-52329999D01*
X89720747Y-52314579D01*
X89769259Y-52210545D01*
X89775500Y-52163139D01*
X89775499Y-51836862D01*
X89769259Y-51789455D01*
X89769259Y-51789453D01*
X89720748Y-51685423D01*
X89720747Y-51685422D01*
X89720747Y-51685421D01*
X89705327Y-51670001D01*
X89677552Y-51615487D01*
X89687123Y-51555055D01*
X89705326Y-51529999D01*
X89720747Y-51514579D01*
X89769259Y-51410545D01*
X89775500Y-51363139D01*
X89775499Y-51036862D01*
X89774805Y-51031593D01*
X89769259Y-50989455D01*
X89769259Y-50989453D01*
X89720748Y-50885423D01*
X89720747Y-50885422D01*
X89720747Y-50885421D01*
X89705327Y-50870001D01*
X89677552Y-50815487D01*
X89687123Y-50755055D01*
X89705326Y-50729999D01*
X89720747Y-50714579D01*
X89769259Y-50610545D01*
X89775500Y-50563139D01*
X89775499Y-50236862D01*
X89769259Y-50189455D01*
X89769259Y-50189453D01*
X89720748Y-50085423D01*
X89720747Y-50085422D01*
X89720747Y-50085421D01*
X89705327Y-50070001D01*
X89677552Y-50015487D01*
X89687123Y-49955055D01*
X89705326Y-49929999D01*
X89720747Y-49914579D01*
X89769259Y-49810545D01*
X89775500Y-49763139D01*
X89775499Y-49436862D01*
X89769259Y-49389455D01*
X89769259Y-49389453D01*
X89720748Y-49285423D01*
X89720747Y-49285422D01*
X89720747Y-49285421D01*
X89705327Y-49270001D01*
X89677552Y-49215487D01*
X89687123Y-49155055D01*
X89705326Y-49129999D01*
X89720747Y-49114579D01*
X89769259Y-49010545D01*
X89775500Y-48963139D01*
X89775499Y-48636862D01*
X89769259Y-48589455D01*
X89769259Y-48589453D01*
X89720748Y-48485423D01*
X89720747Y-48485422D01*
X89720747Y-48485421D01*
X89705327Y-48470001D01*
X89677552Y-48415487D01*
X89687123Y-48355055D01*
X89705326Y-48329999D01*
X89720747Y-48314579D01*
X89769259Y-48210545D01*
X89775500Y-48163139D01*
X89775499Y-47836862D01*
X89769259Y-47789455D01*
X89769259Y-47789453D01*
X89720748Y-47685423D01*
X89720747Y-47685422D01*
X89720747Y-47685421D01*
X89705327Y-47670001D01*
X89677552Y-47615487D01*
X89687123Y-47555055D01*
X89705326Y-47529999D01*
X89720747Y-47514579D01*
X89769259Y-47410545D01*
X89775500Y-47363139D01*
X89775499Y-47036862D01*
X89769259Y-46989455D01*
X89769259Y-46989453D01*
X89720748Y-46885423D01*
X89720747Y-46885422D01*
X89720747Y-46885421D01*
X89639579Y-46804253D01*
X89535545Y-46755741D01*
X89488139Y-46749500D01*
X89488138Y-46749500D01*
X89322158Y-46749500D01*
X89263967Y-46730593D01*
X89228003Y-46681093D01*
X89226531Y-46676123D01*
X89225500Y-46672275D01*
X89225500Y-46672273D01*
X89198207Y-46570413D01*
X89197044Y-46568399D01*
X89145480Y-46479087D01*
X89070913Y-46404519D01*
X89070913Y-46404520D01*
X88945397Y-46279004D01*
X88917620Y-46224487D01*
X88927191Y-46164055D01*
X88951626Y-46139619D01*
X88951003Y-46138996D01*
X88980000Y-46109999D01*
X88980000Y-44700001D01*
X89180000Y-44700001D01*
X89180000Y-46109999D01*
X89180001Y-46110000D01*
X89259838Y-46110000D01*
X89309354Y-46103480D01*
X89309361Y-46103478D01*
X89418021Y-46052809D01*
X89502809Y-45968021D01*
X89522870Y-45925001D01*
X89750001Y-45925001D01*
X89750001Y-46488091D01*
X89756230Y-46535413D01*
X89756230Y-46535415D01*
X89804666Y-46639285D01*
X89885714Y-46720333D01*
X89989581Y-46768767D01*
X89989582Y-46768768D01*
X90036915Y-46774999D01*
X90099999Y-46774998D01*
X90100000Y-46774998D01*
X90100000Y-45925001D01*
X90099999Y-45925000D01*
X89750002Y-45925000D01*
X89750001Y-45925001D01*
X89522870Y-45925001D01*
X89553477Y-45859363D01*
X89553481Y-45859352D01*
X89560000Y-45809838D01*
X89560000Y-45774007D01*
X89578907Y-45715816D01*
X89628407Y-45679852D01*
X89689593Y-45679852D01*
X89729004Y-45704003D01*
X89750001Y-45725000D01*
X90099999Y-45725000D01*
X90100000Y-45724999D01*
X90100000Y-44875001D01*
X90300000Y-44875001D01*
X90300000Y-46774998D01*
X90300001Y-46774999D01*
X90363081Y-46774999D01*
X90363091Y-46774998D01*
X90410413Y-46768769D01*
X90410415Y-46768769D01*
X90514285Y-46720333D01*
X90529643Y-46704976D01*
X90584160Y-46677199D01*
X90644592Y-46686770D01*
X90669647Y-46704973D01*
X90685421Y-46720747D01*
X90789455Y-46769259D01*
X90836861Y-46775500D01*
X91163138Y-46775499D01*
X91210545Y-46769259D01*
X91210546Y-46769259D01*
X91293464Y-46730593D01*
X91314579Y-46720747D01*
X91330351Y-46704974D01*
X91384866Y-46677199D01*
X91445298Y-46686770D01*
X91470357Y-46704976D01*
X91485714Y-46720333D01*
X91589581Y-46768767D01*
X91589582Y-46768768D01*
X91636915Y-46774999D01*
X91699999Y-46774998D01*
X91700000Y-46774998D01*
X91700000Y-44875001D01*
X91900000Y-44875001D01*
X91900000Y-46774998D01*
X91900001Y-46774999D01*
X91963081Y-46774999D01*
X91963091Y-46774998D01*
X92010413Y-46768769D01*
X92010415Y-46768769D01*
X92114285Y-46720333D01*
X92129643Y-46704976D01*
X92184160Y-46677199D01*
X92244592Y-46686770D01*
X92269647Y-46704973D01*
X92285421Y-46720747D01*
X92389455Y-46769259D01*
X92436861Y-46775500D01*
X92763138Y-46775499D01*
X92810545Y-46769259D01*
X92810546Y-46769259D01*
X92893464Y-46730593D01*
X92914579Y-46720747D01*
X92929998Y-46705327D01*
X92984513Y-46677552D01*
X93044945Y-46687123D01*
X93070000Y-46705326D01*
X93085421Y-46720747D01*
X93189455Y-46769259D01*
X93236861Y-46775500D01*
X93563138Y-46775499D01*
X93610545Y-46769259D01*
X93610546Y-46769259D01*
X93693464Y-46730593D01*
X93714579Y-46720747D01*
X93729998Y-46705327D01*
X93784513Y-46677552D01*
X93844945Y-46687123D01*
X93870000Y-46705326D01*
X93885421Y-46720747D01*
X93989455Y-46769259D01*
X94036861Y-46775500D01*
X94363138Y-46775499D01*
X94410545Y-46769259D01*
X94410546Y-46769259D01*
X94493464Y-46730593D01*
X94514579Y-46720747D01*
X94529998Y-46705327D01*
X94584513Y-46677552D01*
X94644945Y-46687123D01*
X94670000Y-46705326D01*
X94685421Y-46720747D01*
X94789455Y-46769259D01*
X94836861Y-46775500D01*
X95163138Y-46775499D01*
X95210545Y-46769259D01*
X95210546Y-46769259D01*
X95293464Y-46730593D01*
X95314579Y-46720747D01*
X95329998Y-46705327D01*
X95384513Y-46677552D01*
X95444945Y-46687123D01*
X95470000Y-46705326D01*
X95485421Y-46720747D01*
X95589455Y-46769259D01*
X95636861Y-46775500D01*
X95963138Y-46775499D01*
X96010545Y-46769259D01*
X96010546Y-46769259D01*
X96093464Y-46730593D01*
X96114579Y-46720747D01*
X96195747Y-46639579D01*
X96244259Y-46535545D01*
X96250500Y-46488139D01*
X96250499Y-45161862D01*
X96244259Y-45114455D01*
X96244259Y-45114453D01*
X96195748Y-45010423D01*
X96195746Y-45010420D01*
X96179495Y-44994168D01*
X96151719Y-44939651D01*
X96150500Y-44924166D01*
X96150500Y-44086188D01*
X96169407Y-44027997D01*
X96179490Y-44016190D01*
X97280469Y-42915212D01*
X97326614Y-42835288D01*
X97336203Y-42799500D01*
X97350500Y-42746144D01*
X97350500Y-37994976D01*
X97369407Y-37936785D01*
X97379496Y-37924972D01*
X97380402Y-37924065D01*
X97380404Y-37924065D01*
X97464065Y-37840404D01*
X97514068Y-37733173D01*
X97520500Y-37684316D01*
X97520500Y-37335684D01*
X97514068Y-37286827D01*
X97508553Y-37275001D01*
X97464066Y-37179598D01*
X97464065Y-37179597D01*
X97464065Y-37179596D01*
X97380404Y-37095935D01*
X97367085Y-37089724D01*
X97322337Y-37047997D01*
X97310662Y-36987936D01*
X97336519Y-36932483D01*
X97367084Y-36910275D01*
X97380404Y-36904065D01*
X97464065Y-36820404D01*
X97514068Y-36713173D01*
X97520500Y-36664316D01*
X97520500Y-36315684D01*
X97514068Y-36266827D01*
X97464065Y-36159596D01*
X97464064Y-36159595D01*
X97429496Y-36125026D01*
X97401719Y-36070509D01*
X97400500Y-36055023D01*
X97400500Y-35463953D01*
X97419407Y-35405762D01*
X97454553Y-35375744D01*
X97505751Y-35349658D01*
X97599658Y-35255751D01*
X97659951Y-35137420D01*
X97675500Y-35039246D01*
X97675500Y-34535754D01*
X97659951Y-34437580D01*
X97599658Y-34319249D01*
X97505751Y-34225342D01*
X97501631Y-34223243D01*
X97387423Y-34165050D01*
X97387420Y-34165049D01*
X97362876Y-34161161D01*
X97289249Y-34149500D01*
X97289246Y-34149500D01*
X96710754Y-34149500D01*
X96710751Y-34149500D01*
X96612580Y-34165049D01*
X96612576Y-34165050D01*
X96494250Y-34225341D01*
X96400341Y-34319250D01*
X96340050Y-34437576D01*
X96340049Y-34437580D01*
X96324500Y-34535751D01*
X96324500Y-35039248D01*
X96340049Y-35137419D01*
X96340050Y-35137423D01*
X96343156Y-35143518D01*
X96400342Y-35255751D01*
X96494249Y-35349658D01*
X96545446Y-35375744D01*
X96588710Y-35419008D01*
X96599500Y-35463953D01*
X96599500Y-36055023D01*
X96580593Y-36113214D01*
X96570504Y-36125026D01*
X96535935Y-36159595D01*
X96535933Y-36159598D01*
X96485932Y-36266824D01*
X96485932Y-36266825D01*
X96479500Y-36315685D01*
X96479500Y-36664314D01*
X96485932Y-36713174D01*
X96485932Y-36713175D01*
X96535933Y-36820401D01*
X96535934Y-36820402D01*
X96535935Y-36820404D01*
X96619596Y-36904065D01*
X96619597Y-36904065D01*
X96619598Y-36904066D01*
X96632915Y-36910276D01*
X96677663Y-36952005D01*
X96689337Y-37012066D01*
X96663478Y-37067518D01*
X96632915Y-37089724D01*
X96619598Y-37095933D01*
X96535933Y-37179598D01*
X96485932Y-37286824D01*
X96485932Y-37286825D01*
X96479500Y-37335685D01*
X96479500Y-37684314D01*
X96485932Y-37733174D01*
X96485932Y-37733175D01*
X96535933Y-37840401D01*
X96535934Y-37840402D01*
X96535935Y-37840404D01*
X96619596Y-37924065D01*
X96619597Y-37924065D01*
X96620504Y-37924972D01*
X96648281Y-37979489D01*
X96649500Y-37994976D01*
X96649500Y-42513810D01*
X96630593Y-42572001D01*
X96620504Y-42583814D01*
X95519529Y-43684789D01*
X95476371Y-43759541D01*
X95473388Y-43764707D01*
X95473386Y-43764710D01*
X95473386Y-43764712D01*
X95455362Y-43831978D01*
X95449500Y-43853857D01*
X95449500Y-44836768D01*
X95430593Y-44894959D01*
X95381093Y-44930923D01*
X95319907Y-44930923D01*
X95308661Y-44926493D01*
X95244342Y-44896501D01*
X95210545Y-44880741D01*
X95163139Y-44874500D01*
X95163137Y-44874500D01*
X94836866Y-44874500D01*
X94836854Y-44874501D01*
X94789455Y-44880740D01*
X94789453Y-44880740D01*
X94685423Y-44929251D01*
X94685421Y-44929252D01*
X94685421Y-44929253D01*
X94670001Y-44944672D01*
X94615487Y-44972448D01*
X94555055Y-44962877D01*
X94529999Y-44944673D01*
X94514579Y-44929253D01*
X94410545Y-44880741D01*
X94363139Y-44874500D01*
X94363137Y-44874500D01*
X94036866Y-44874500D01*
X94036854Y-44874501D01*
X93989455Y-44880740D01*
X93989453Y-44880740D01*
X93885423Y-44929251D01*
X93885421Y-44929252D01*
X93885421Y-44929253D01*
X93870001Y-44944672D01*
X93815487Y-44972448D01*
X93755055Y-44962877D01*
X93729999Y-44944673D01*
X93714579Y-44929253D01*
X93610545Y-44880741D01*
X93563139Y-44874500D01*
X93563137Y-44874500D01*
X93236866Y-44874500D01*
X93236854Y-44874501D01*
X93189455Y-44880740D01*
X93189453Y-44880740D01*
X93085423Y-44929251D01*
X93085421Y-44929252D01*
X93085421Y-44929253D01*
X93070001Y-44944672D01*
X93015487Y-44972448D01*
X92955055Y-44962877D01*
X92929999Y-44944673D01*
X92914579Y-44929253D01*
X92810545Y-44880741D01*
X92763139Y-44874500D01*
X92763137Y-44874500D01*
X92436866Y-44874500D01*
X92436854Y-44874501D01*
X92389455Y-44880740D01*
X92389453Y-44880740D01*
X92285423Y-44929251D01*
X92285421Y-44929252D01*
X92285421Y-44929253D01*
X92269648Y-44945025D01*
X92215134Y-44972801D01*
X92154702Y-44963230D01*
X92129643Y-44945024D01*
X92114285Y-44929666D01*
X92042768Y-44896317D01*
X91998020Y-44854589D01*
X91991923Y-44823224D01*
X91950938Y-44864210D01*
X91905993Y-44875000D01*
X91900001Y-44875000D01*
X91900000Y-44875001D01*
X91700000Y-44875001D01*
X91700000Y-44871145D01*
X91676227Y-44824487D01*
X91685798Y-44764055D01*
X91729063Y-44720790D01*
X91774008Y-44710000D01*
X91779999Y-44710000D01*
X91780000Y-44709999D01*
X91780000Y-44300001D01*
X91980000Y-44300001D01*
X91980000Y-44713852D01*
X92002955Y-44758907D01*
X92012204Y-44739075D01*
X92065719Y-44709412D01*
X92071686Y-44708440D01*
X92109353Y-44703480D01*
X92109361Y-44703478D01*
X92218021Y-44652809D01*
X92302809Y-44568021D01*
X92353478Y-44459361D01*
X92353480Y-44459354D01*
X92360000Y-44409838D01*
X92360000Y-44300001D01*
X92359999Y-44300000D01*
X91980001Y-44300000D01*
X91980000Y-44300001D01*
X91780000Y-44300001D01*
X91780000Y-43300001D01*
X91980000Y-43300001D01*
X91980000Y-44099999D01*
X91980001Y-44100000D01*
X92359999Y-44100000D01*
X92360000Y-44099999D01*
X92360000Y-43990161D01*
X92353480Y-43940645D01*
X92353478Y-43940638D01*
X92302809Y-43831978D01*
X92240835Y-43770004D01*
X92213058Y-43715487D01*
X92222629Y-43655055D01*
X92240835Y-43629996D01*
X92302809Y-43568021D01*
X92353478Y-43459361D01*
X92353480Y-43459354D01*
X92360000Y-43409838D01*
X92360000Y-43300001D01*
X92359999Y-43300000D01*
X91980001Y-43300000D01*
X91980000Y-43300001D01*
X91780000Y-43300001D01*
X91780000Y-42690001D01*
X91980000Y-42690001D01*
X91980000Y-43099999D01*
X91980001Y-43100000D01*
X92359999Y-43100000D01*
X92360000Y-43099999D01*
X92360000Y-42990161D01*
X92353480Y-42940645D01*
X92353478Y-42940638D01*
X92302809Y-42831978D01*
X92218021Y-42747190D01*
X92109361Y-42696521D01*
X92109354Y-42696519D01*
X92059839Y-42690000D01*
X91980001Y-42690000D01*
X91980000Y-42690001D01*
X91780000Y-42690001D01*
X91779999Y-42690000D01*
X91700161Y-42690000D01*
X91650645Y-42696519D01*
X91650638Y-42696521D01*
X91541978Y-42747190D01*
X91470358Y-42818811D01*
X91415841Y-42846588D01*
X91355409Y-42837017D01*
X91330353Y-42818813D01*
X91258316Y-42746776D01*
X91258314Y-42746775D01*
X91258313Y-42746774D01*
X91149489Y-42696029D01*
X91149488Y-42696028D01*
X91132958Y-42693852D01*
X91099901Y-42689500D01*
X91099899Y-42689500D01*
X90740104Y-42689500D01*
X90740092Y-42689501D01*
X90690513Y-42696027D01*
X90690511Y-42696027D01*
X90581686Y-42746774D01*
X90496774Y-42831686D01*
X90446029Y-42940510D01*
X90446028Y-42940511D01*
X90439500Y-42990100D01*
X90439500Y-43409896D01*
X90439501Y-43409907D01*
X90446027Y-43459486D01*
X90446027Y-43459488D01*
X90496774Y-43568313D01*
X90496775Y-43568314D01*
X90496776Y-43568316D01*
X90545505Y-43617045D01*
X90573281Y-43671560D01*
X90574500Y-43687047D01*
X90574500Y-43712952D01*
X90555593Y-43771143D01*
X90545504Y-43782955D01*
X90496776Y-43831683D01*
X90496774Y-43831686D01*
X90446029Y-43940510D01*
X90446028Y-43940511D01*
X90439500Y-43990100D01*
X90439500Y-44409896D01*
X90439501Y-44409907D01*
X90446027Y-44459486D01*
X90446027Y-44459488D01*
X90496774Y-44568313D01*
X90496775Y-44568314D01*
X90496776Y-44568316D01*
X90554782Y-44626322D01*
X90582558Y-44680837D01*
X90580404Y-44721945D01*
X90574500Y-44743979D01*
X90574500Y-44802346D01*
X90555593Y-44860537D01*
X90506093Y-44896501D01*
X90444907Y-44896501D01*
X90433661Y-44892070D01*
X90410420Y-44881232D01*
X90410417Y-44881231D01*
X90363084Y-44875000D01*
X90300001Y-44875000D01*
X90300000Y-44875001D01*
X90100000Y-44875001D01*
X90100000Y-44874999D01*
X90036919Y-44875000D01*
X90036907Y-44875001D01*
X89989586Y-44881230D01*
X89989584Y-44881230D01*
X89885714Y-44929666D01*
X89804666Y-45010714D01*
X89756232Y-45114581D01*
X89756231Y-45114582D01*
X89750000Y-45161916D01*
X89750000Y-45322908D01*
X89731093Y-45381099D01*
X89681593Y-45417063D01*
X89620407Y-45417063D01*
X89570907Y-45381099D01*
X89557452Y-45347375D01*
X89555600Y-45347916D01*
X89553478Y-45340638D01*
X89502809Y-45231978D01*
X89440835Y-45170004D01*
X89413058Y-45115487D01*
X89422629Y-45055055D01*
X89440835Y-45029996D01*
X89502809Y-44968021D01*
X89553478Y-44859361D01*
X89553480Y-44859354D01*
X89560000Y-44809838D01*
X89560000Y-44700001D01*
X89559999Y-44700000D01*
X89180001Y-44700000D01*
X89180000Y-44700001D01*
X88980000Y-44700001D01*
X88980000Y-44090001D01*
X89180000Y-44090001D01*
X89180000Y-44499999D01*
X89180001Y-44500000D01*
X89559999Y-44500000D01*
X89560000Y-44499999D01*
X89560000Y-44390161D01*
X89553480Y-44340645D01*
X89553478Y-44340638D01*
X89502809Y-44231978D01*
X89418021Y-44147190D01*
X89309361Y-44096521D01*
X89309354Y-44096519D01*
X89259839Y-44090000D01*
X89180001Y-44090000D01*
X89180000Y-44090001D01*
X88980000Y-44090001D01*
X88979999Y-44090000D01*
X88900161Y-44090000D01*
X88850645Y-44096519D01*
X88850638Y-44096521D01*
X88741978Y-44147190D01*
X88670358Y-44218811D01*
X88615841Y-44246588D01*
X88555409Y-44237017D01*
X88530353Y-44218813D01*
X88458316Y-44146776D01*
X88458314Y-44146775D01*
X88458313Y-44146774D01*
X88349489Y-44096029D01*
X88349488Y-44096028D01*
X88332958Y-44093852D01*
X88299901Y-44089500D01*
X88299899Y-44089500D01*
X87940104Y-44089500D01*
X87940092Y-44089501D01*
X87890513Y-44096027D01*
X87890511Y-44096027D01*
X87781686Y-44146774D01*
X87696774Y-44231686D01*
X87646029Y-44340510D01*
X87646028Y-44340511D01*
X87639500Y-44390100D01*
X87639500Y-44809896D01*
X87639501Y-44809907D01*
X87646027Y-44859486D01*
X87646027Y-44859488D01*
X87692977Y-44960171D01*
X87700434Y-45020900D01*
X87698881Y-45027627D01*
X87694500Y-45043978D01*
X87694500Y-45156019D01*
X87698881Y-45172371D01*
X87695676Y-45233472D01*
X87692978Y-45239828D01*
X87646028Y-45340513D01*
X87639500Y-45390100D01*
X87639500Y-45809896D01*
X87639501Y-45809907D01*
X87646027Y-45859486D01*
X87646027Y-45859488D01*
X87692691Y-45959556D01*
X87696776Y-45968316D01*
X87696780Y-45968320D01*
X87701595Y-45975197D01*
X87719500Y-46031983D01*
X87719500Y-46072727D01*
X87727740Y-46103478D01*
X87746794Y-46174592D01*
X87799516Y-46265908D01*
X87799520Y-46265913D01*
X88102005Y-46568399D01*
X88117735Y-46588898D01*
X88138914Y-46625581D01*
X88151635Y-46685428D01*
X88126748Y-46741324D01*
X88095017Y-46764804D01*
X88010423Y-46804251D01*
X87929253Y-46885421D01*
X87880741Y-46989455D01*
X87874500Y-47036862D01*
X87874500Y-47363133D01*
X87874501Y-47363145D01*
X87880740Y-47410544D01*
X87880740Y-47410546D01*
X87929251Y-47514576D01*
X87929252Y-47514577D01*
X87929253Y-47514579D01*
X87944672Y-47529998D01*
X87972448Y-47584513D01*
X87962877Y-47644945D01*
X87944673Y-47670000D01*
X87932574Y-47682100D01*
X87929253Y-47685421D01*
X87880741Y-47789455D01*
X87874500Y-47836862D01*
X87874500Y-48163133D01*
X87874501Y-48163145D01*
X87880740Y-48210544D01*
X87880740Y-48210546D01*
X87929251Y-48314576D01*
X87929252Y-48314577D01*
X87929253Y-48314579D01*
X87944672Y-48329998D01*
X87972448Y-48384513D01*
X87962877Y-48444945D01*
X87944673Y-48470000D01*
X87929253Y-48485421D01*
X87880741Y-48589455D01*
X87874500Y-48636862D01*
X87874500Y-48963133D01*
X87874501Y-48963145D01*
X87880740Y-49010544D01*
X87880740Y-49010546D01*
X87929251Y-49114576D01*
X87929252Y-49114577D01*
X87929253Y-49114579D01*
X87944672Y-49129998D01*
X87972448Y-49184513D01*
X87962877Y-49244945D01*
X87944673Y-49270000D01*
X87929253Y-49285421D01*
X87880741Y-49389455D01*
X87874810Y-49434511D01*
X87874500Y-49436862D01*
X87874500Y-49763133D01*
X87874501Y-49763145D01*
X87880740Y-49810544D01*
X87880740Y-49810546D01*
X87929251Y-49914576D01*
X87929252Y-49914577D01*
X87929253Y-49914579D01*
X87944672Y-49929998D01*
X87972448Y-49984513D01*
X87962877Y-50044945D01*
X87944673Y-50070000D01*
X87944168Y-50070505D01*
X87889654Y-50098281D01*
X87874167Y-50099500D01*
X87660434Y-50099500D01*
X87584010Y-50119978D01*
X87542178Y-50144130D01*
X87535705Y-50147868D01*
X87529697Y-50151336D01*
X87515488Y-50159539D01*
X87429523Y-50245504D01*
X87375006Y-50273281D01*
X87359520Y-50274500D01*
X85840479Y-50274500D01*
X85782288Y-50255593D01*
X85770475Y-50245504D01*
X85054990Y-49530019D01*
X84334511Y-48809540D01*
X84334508Y-48809538D01*
X84334507Y-48809537D01*
X84315576Y-48798608D01*
X84315576Y-48798607D01*
X84315572Y-48798606D01*
X84284136Y-48780456D01*
X84265988Y-48769978D01*
X84189564Y-48749500D01*
X84189562Y-48749500D01*
X84028365Y-48749500D01*
X83970174Y-48730593D01*
X83944389Y-48699891D01*
X83943965Y-48700194D01*
X83940115Y-48694802D01*
X83939423Y-48693978D01*
X83939198Y-48693518D01*
X83939198Y-48693517D01*
X83856483Y-48610802D01*
X83856481Y-48610801D01*
X83751395Y-48559427D01*
X83721022Y-48555002D01*
X83683260Y-48549500D01*
X82591740Y-48549500D01*
X82557673Y-48554463D01*
X82523604Y-48559427D01*
X82418518Y-48610801D01*
X82335801Y-48693518D01*
X82284427Y-48798604D01*
X82282834Y-48809537D01*
X82274500Y-48866740D01*
X82274500Y-49233260D01*
X82276146Y-49244554D01*
X82284427Y-49301395D01*
X82335801Y-49406481D01*
X82340569Y-49413159D01*
X82339339Y-49414037D01*
X82362942Y-49460362D01*
X82353371Y-49520794D01*
X82310106Y-49564059D01*
X82262507Y-49572241D01*
X82262507Y-49574500D01*
X82256018Y-49574500D01*
X82143982Y-49574500D01*
X82077748Y-49592247D01*
X82035758Y-49603498D01*
X81938737Y-49659514D01*
X81857268Y-49740983D01*
X81802751Y-49768760D01*
X81742319Y-49759188D01*
X81699055Y-49715924D01*
X81698324Y-49714460D01*
X81663786Y-49643812D01*
X81615331Y-49595357D01*
X81587554Y-49540840D01*
X81597125Y-49480408D01*
X81615328Y-49455352D01*
X81664198Y-49406483D01*
X81715573Y-49301393D01*
X81725500Y-49233260D01*
X81725500Y-48866740D01*
X81715573Y-48798607D01*
X81664198Y-48693517D01*
X81581483Y-48610802D01*
X81581481Y-48610801D01*
X81476395Y-48559427D01*
X81446022Y-48555002D01*
X81408260Y-48549500D01*
X80316740Y-48549500D01*
X80282673Y-48554463D01*
X80248604Y-48559427D01*
X80143518Y-48610801D01*
X80060801Y-48693518D01*
X80060577Y-48693978D01*
X80060180Y-48694387D01*
X80056035Y-48700194D01*
X80055164Y-48699572D01*
X80018035Y-48737953D01*
X79971635Y-48749500D01*
X79089562Y-48749500D01*
X79010438Y-48749500D01*
X78963661Y-48762033D01*
X78934007Y-48769979D01*
X78865493Y-48809536D01*
X78865488Y-48809540D01*
X78754524Y-48920504D01*
X78700008Y-48948281D01*
X78684521Y-48949500D01*
X78254500Y-48949500D01*
X78196309Y-48930593D01*
X78160345Y-48881093D01*
X78155500Y-48850500D01*
X78155499Y-48647870D01*
X78155498Y-48647862D01*
X78139515Y-48567506D01*
X78139515Y-48567505D01*
X78131159Y-48555000D01*
X78114551Y-48496114D01*
X78131159Y-48444999D01*
X78139515Y-48432495D01*
X78155500Y-48352133D01*
X78155499Y-48147868D01*
X78154692Y-48143810D01*
X78161887Y-48083049D01*
X78203421Y-48038121D01*
X78251791Y-48025500D01*
X78256016Y-48025500D01*
X78256018Y-48025500D01*
X78364237Y-47996503D01*
X78364239Y-47996501D01*
X78364241Y-47996501D01*
X78402254Y-47974554D01*
X78461263Y-47940485D01*
X78540485Y-47861263D01*
X78596503Y-47764237D01*
X78625500Y-47656018D01*
X78625500Y-47543982D01*
X78596503Y-47435763D01*
X78596501Y-47435760D01*
X78596501Y-47435758D01*
X78540486Y-47338739D01*
X78540485Y-47338737D01*
X78461263Y-47259515D01*
X78461260Y-47259513D01*
X78364240Y-47203498D01*
X78364242Y-47203498D01*
X78322251Y-47192247D01*
X78256018Y-47174500D01*
X78241213Y-47174500D01*
X78183022Y-47155593D01*
X78147058Y-47106093D01*
X78146718Y-47059256D01*
X78143979Y-47058857D01*
X78155000Y-46983215D01*
X78155000Y-46900001D01*
X78154999Y-46900000D01*
X77479000Y-46900000D01*
X77420809Y-46881093D01*
X77384845Y-46831593D01*
X77380000Y-46801000D01*
X77380000Y-46799000D01*
X77398907Y-46740809D01*
X77448407Y-46704845D01*
X77479000Y-46700000D01*
X78154998Y-46700000D01*
X78154999Y-46699999D01*
X78154999Y-46616786D01*
X78154998Y-46616783D01*
X78145087Y-46548749D01*
X78093785Y-46443811D01*
X78011187Y-46361213D01*
X77902391Y-46308026D01*
X77858417Y-46265482D01*
X77847847Y-46205217D01*
X77874720Y-46150248D01*
X77875869Y-46149080D01*
X77898726Y-46126223D01*
X77975333Y-46011571D01*
X78028098Y-45884183D01*
X78028098Y-45884181D01*
X78048822Y-45780000D01*
X77638788Y-45780000D01*
X77655000Y-45719496D01*
X77655000Y-45640504D01*
X77638788Y-45580000D01*
X78048822Y-45580000D01*
X78028098Y-45475818D01*
X78028098Y-45475816D01*
X77975333Y-45348428D01*
X77898728Y-45233779D01*
X77801220Y-45136271D01*
X77686571Y-45059666D01*
X77559183Y-45006901D01*
X77423944Y-44980000D01*
X76905001Y-44980000D01*
X76905000Y-44980001D01*
X76905000Y-45380000D01*
X76705000Y-45380000D01*
X76705000Y-44980001D01*
X76704999Y-44980000D01*
X76186055Y-44980000D01*
X76050816Y-45006901D01*
X75923428Y-45059666D01*
X75808779Y-45136271D01*
X75711271Y-45233779D01*
X75671816Y-45292829D01*
X75623766Y-45330709D01*
X75562627Y-45333111D01*
X75511754Y-45299118D01*
X75490576Y-45241715D01*
X75490500Y-45237828D01*
X75490500Y-44534976D01*
X75509407Y-44476785D01*
X75519496Y-44464972D01*
X75520402Y-44464065D01*
X75520404Y-44464065D01*
X75604065Y-44380404D01*
X75610551Y-44366493D01*
X75652279Y-44321745D01*
X75712340Y-44310070D01*
X75767793Y-44335927D01*
X75790001Y-44366493D01*
X75796351Y-44380111D01*
X75879890Y-44463650D01*
X75986952Y-44513574D01*
X75986959Y-44513576D01*
X76035745Y-44519999D01*
X76109999Y-44519998D01*
X76110000Y-44519998D01*
X76110000Y-44100001D01*
X76310000Y-44100001D01*
X76310000Y-44519998D01*
X76310001Y-44519999D01*
X76384251Y-44519999D01*
X76384260Y-44519998D01*
X76433041Y-44513577D01*
X76540109Y-44463650D01*
X76623650Y-44380109D01*
X76673574Y-44273047D01*
X76673576Y-44273040D01*
X76680000Y-44224253D01*
X76680000Y-44100001D01*
X76679999Y-44100000D01*
X76310001Y-44100000D01*
X76310000Y-44100001D01*
X76110000Y-44100001D01*
X76110000Y-43480001D01*
X76310000Y-43480001D01*
X76310000Y-43899999D01*
X76310001Y-43900000D01*
X76679998Y-43900000D01*
X76679999Y-43899999D01*
X76679999Y-43775749D01*
X76679998Y-43775739D01*
X76673577Y-43726958D01*
X76623650Y-43619890D01*
X76540109Y-43536349D01*
X76433047Y-43486425D01*
X76433040Y-43486423D01*
X76384254Y-43480000D01*
X76310001Y-43480000D01*
X76310000Y-43480001D01*
X76110000Y-43480001D01*
X76110000Y-43479999D01*
X76035749Y-43480000D01*
X76035738Y-43480001D01*
X75986959Y-43486422D01*
X75879890Y-43536349D01*
X75796349Y-43619890D01*
X75790000Y-43633507D01*
X75748271Y-43678255D01*
X75688210Y-43689929D01*
X75632757Y-43664070D01*
X75610552Y-43633507D01*
X75604066Y-43619598D01*
X75604065Y-43619597D01*
X75604065Y-43619596D01*
X75520404Y-43535935D01*
X75520402Y-43535934D01*
X75520401Y-43535933D01*
X75413175Y-43485932D01*
X75380601Y-43481644D01*
X75364316Y-43479500D01*
X75015684Y-43479500D01*
X74999398Y-43481644D01*
X74966825Y-43485932D01*
X74966824Y-43485932D01*
X74859598Y-43535933D01*
X74775933Y-43619598D01*
X74725932Y-43726824D01*
X74725932Y-43726825D01*
X74722360Y-43753960D01*
X74720945Y-43764712D01*
X74719500Y-43775685D01*
X70500500Y-43775685D01*
X70500500Y-39943982D01*
X74074500Y-39943982D01*
X74074500Y-40056018D01*
X74081245Y-40081189D01*
X74103498Y-40164241D01*
X74159513Y-40261260D01*
X74159515Y-40261263D01*
X74238737Y-40340485D01*
X74238739Y-40340486D01*
X74335759Y-40396501D01*
X74335757Y-40396501D01*
X74335761Y-40396502D01*
X74335763Y-40396503D01*
X74443982Y-40425500D01*
X74443984Y-40425500D01*
X74548785Y-40425500D01*
X74606976Y-40444407D01*
X74636993Y-40479553D01*
X74650342Y-40505751D01*
X74744249Y-40599658D01*
X74862580Y-40659951D01*
X74929130Y-40670491D01*
X74960751Y-40675500D01*
X74960754Y-40675500D01*
X75464249Y-40675500D01*
X75492803Y-40670976D01*
X75562420Y-40659951D01*
X75680751Y-40599658D01*
X75774658Y-40505751D01*
X75834951Y-40387420D01*
X75850500Y-40289246D01*
X75850500Y-39710754D01*
X75850500Y-39710751D01*
X76149500Y-39710751D01*
X76149500Y-40289248D01*
X76165049Y-40387419D01*
X76165050Y-40387423D01*
X76211994Y-40479554D01*
X76225342Y-40505751D01*
X76319249Y-40599658D01*
X76437580Y-40659951D01*
X76504130Y-40670491D01*
X76535751Y-40675500D01*
X76535754Y-40675500D01*
X77039249Y-40675500D01*
X77067803Y-40670976D01*
X77137420Y-40659951D01*
X77255751Y-40599658D01*
X77349658Y-40505751D01*
X77375744Y-40454553D01*
X77419008Y-40411290D01*
X77463953Y-40400500D01*
X78323547Y-40400500D01*
X78381738Y-40419407D01*
X78411755Y-40454553D01*
X78437842Y-40505751D01*
X78531749Y-40599658D01*
X78650080Y-40659951D01*
X78716630Y-40670491D01*
X78748251Y-40675500D01*
X78748254Y-40675500D01*
X79251749Y-40675500D01*
X79280303Y-40670976D01*
X79349920Y-40659951D01*
X79468251Y-40599658D01*
X79562158Y-40505751D01*
X79622451Y-40387420D01*
X79638000Y-40289246D01*
X79638000Y-39710754D01*
X79638000Y-39710751D01*
X79937000Y-39710751D01*
X79937000Y-40289248D01*
X79952549Y-40387419D01*
X79952550Y-40387423D01*
X79999494Y-40479554D01*
X80012842Y-40505751D01*
X80106749Y-40599658D01*
X80225080Y-40659951D01*
X80291630Y-40670491D01*
X80323251Y-40675500D01*
X80323254Y-40675500D01*
X80826749Y-40675500D01*
X80855303Y-40670976D01*
X80924920Y-40659951D01*
X81043251Y-40599658D01*
X81137158Y-40505751D01*
X81161586Y-40457807D01*
X81204849Y-40414546D01*
X81265281Y-40404974D01*
X81275413Y-40407127D01*
X81343982Y-40425500D01*
X81343984Y-40425500D01*
X81456016Y-40425500D01*
X81456018Y-40425500D01*
X81564237Y-40396503D01*
X81564239Y-40396501D01*
X81564241Y-40396501D01*
X81593064Y-40379859D01*
X81661263Y-40340485D01*
X81740485Y-40261263D01*
X81796503Y-40164237D01*
X81825500Y-40056018D01*
X81825500Y-39943982D01*
X81796503Y-39835763D01*
X81775856Y-39800001D01*
X84040000Y-39800001D01*
X84040000Y-39909838D01*
X84046519Y-39959354D01*
X84046521Y-39959361D01*
X84097190Y-40068021D01*
X84181978Y-40152809D01*
X84290638Y-40203478D01*
X84290645Y-40203480D01*
X84340161Y-40210000D01*
X84419999Y-40210000D01*
X84420000Y-40209999D01*
X84420000Y-39800001D01*
X84419999Y-39800000D01*
X84040001Y-39800000D01*
X84040000Y-39800001D01*
X81775856Y-39800001D01*
X81740485Y-39738737D01*
X81661263Y-39659515D01*
X81661260Y-39659513D01*
X81564240Y-39603498D01*
X81564242Y-39603498D01*
X81536306Y-39596013D01*
X81456018Y-39574500D01*
X81343982Y-39574500D01*
X81343979Y-39574500D01*
X81275415Y-39592871D01*
X81214314Y-39589668D01*
X81166765Y-39551162D01*
X81161589Y-39542198D01*
X81137158Y-39494249D01*
X81133070Y-39490161D01*
X84040000Y-39490161D01*
X84040000Y-39599999D01*
X84040001Y-39600000D01*
X84419999Y-39600000D01*
X84420000Y-39599999D01*
X84420000Y-39190001D01*
X84620000Y-39190001D01*
X84620000Y-40209999D01*
X84620001Y-40210000D01*
X84699838Y-40210000D01*
X84749354Y-40203480D01*
X84749361Y-40203478D01*
X84858021Y-40152809D01*
X84929642Y-40081189D01*
X84984159Y-40053412D01*
X85044591Y-40062983D01*
X85069646Y-40081186D01*
X85141684Y-40153224D01*
X85250513Y-40203972D01*
X85300099Y-40210500D01*
X85659900Y-40210499D01*
X85709487Y-40203972D01*
X85709488Y-40203972D01*
X85794690Y-40164241D01*
X85818316Y-40153224D01*
X85903224Y-40068316D01*
X85953972Y-39959487D01*
X85960500Y-39909901D01*
X85960499Y-39576949D01*
X85979406Y-39518759D01*
X86006242Y-39494597D01*
X86006117Y-39494434D01*
X86008200Y-39492835D01*
X86010003Y-39491212D01*
X86011263Y-39490485D01*
X86090485Y-39411263D01*
X86132266Y-39338894D01*
X86147991Y-39318399D01*
X86195911Y-39270480D01*
X86195913Y-39270480D01*
X86270480Y-39195913D01*
X86323207Y-39104587D01*
X86338693Y-39046793D01*
X86350501Y-39002727D01*
X86350501Y-38936187D01*
X86369408Y-38877996D01*
X86379491Y-38866189D01*
X86389198Y-38856483D01*
X86440573Y-38751393D01*
X86450500Y-38683260D01*
X86450500Y-37591740D01*
X86440573Y-37523607D01*
X86389198Y-37418517D01*
X86306483Y-37335802D01*
X86306242Y-37335684D01*
X86201395Y-37284427D01*
X86174139Y-37280456D01*
X86133260Y-37274500D01*
X85766740Y-37274500D01*
X85732673Y-37279463D01*
X85698604Y-37284427D01*
X85593518Y-37335801D01*
X85510801Y-37418518D01*
X85459427Y-37523604D01*
X85459427Y-37523607D01*
X85449500Y-37591740D01*
X85449500Y-38683260D01*
X85459427Y-38751393D01*
X85459428Y-38751397D01*
X85461696Y-38758736D01*
X85458929Y-38759591D01*
X85465660Y-38807207D01*
X85438155Y-38860097D01*
X85409513Y-38888739D01*
X85367736Y-38961099D01*
X85352004Y-38981601D01*
X85159520Y-39174086D01*
X85159516Y-39174091D01*
X85106794Y-39265408D01*
X85104310Y-39271406D01*
X85102669Y-39270726D01*
X85082083Y-39306376D01*
X85069646Y-39318812D01*
X85015128Y-39346588D01*
X84954696Y-39337014D01*
X84929641Y-39318810D01*
X84858021Y-39247190D01*
X84749361Y-39196521D01*
X84749354Y-39196519D01*
X84699839Y-39190000D01*
X84620001Y-39190000D01*
X84620000Y-39190001D01*
X84420000Y-39190001D01*
X84419999Y-39190000D01*
X84340161Y-39190000D01*
X84290645Y-39196519D01*
X84290638Y-39196521D01*
X84181978Y-39247190D01*
X84097190Y-39331978D01*
X84046521Y-39440638D01*
X84046519Y-39440645D01*
X84040000Y-39490161D01*
X81133070Y-39490161D01*
X81043251Y-39400342D01*
X81039131Y-39398243D01*
X80924923Y-39340050D01*
X80924920Y-39340049D01*
X80900376Y-39336161D01*
X80826749Y-39324500D01*
X80826746Y-39324500D01*
X80323254Y-39324500D01*
X80323251Y-39324500D01*
X80225080Y-39340049D01*
X80225076Y-39340050D01*
X80106750Y-39400341D01*
X80012841Y-39494250D01*
X79952550Y-39612576D01*
X79952549Y-39612580D01*
X79937000Y-39710751D01*
X79638000Y-39710751D01*
X79622451Y-39612580D01*
X79562158Y-39494249D01*
X79468251Y-39400342D01*
X79464131Y-39398243D01*
X79349923Y-39340050D01*
X79349920Y-39340049D01*
X79325376Y-39336161D01*
X79251749Y-39324500D01*
X79251746Y-39324500D01*
X78748254Y-39324500D01*
X78748251Y-39324500D01*
X78650080Y-39340049D01*
X78650076Y-39340050D01*
X78531750Y-39400341D01*
X78531749Y-39400342D01*
X78437842Y-39494249D01*
X78411755Y-39545446D01*
X78368492Y-39588710D01*
X78323547Y-39599500D01*
X77463953Y-39599500D01*
X77405762Y-39580593D01*
X77375744Y-39545446D01*
X77349658Y-39494249D01*
X77255751Y-39400342D01*
X77251631Y-39398243D01*
X77137423Y-39340050D01*
X77137420Y-39340049D01*
X77112876Y-39336161D01*
X77039249Y-39324500D01*
X77039246Y-39324500D01*
X76535754Y-39324500D01*
X76535751Y-39324500D01*
X76437580Y-39340049D01*
X76437576Y-39340050D01*
X76319250Y-39400341D01*
X76225341Y-39494250D01*
X76165050Y-39612576D01*
X76165049Y-39612580D01*
X76149500Y-39710751D01*
X75850500Y-39710751D01*
X75834951Y-39612580D01*
X75774658Y-39494249D01*
X75680751Y-39400342D01*
X75676631Y-39398243D01*
X75562423Y-39340050D01*
X75562420Y-39340049D01*
X75537876Y-39336161D01*
X75464249Y-39324500D01*
X75464246Y-39324500D01*
X74960754Y-39324500D01*
X74960751Y-39324500D01*
X74862580Y-39340049D01*
X74862576Y-39340050D01*
X74744250Y-39400341D01*
X74650341Y-39494250D01*
X74644808Y-39505109D01*
X74636993Y-39520446D01*
X74593730Y-39563709D01*
X74548785Y-39574500D01*
X74443982Y-39574500D01*
X74387374Y-39589668D01*
X74335758Y-39603498D01*
X74238739Y-39659513D01*
X74159513Y-39738739D01*
X74103498Y-39835758D01*
X74103497Y-39835763D01*
X74074500Y-39943982D01*
X70500500Y-39943982D01*
X70500500Y-38237501D01*
X83550001Y-38237501D01*
X83550001Y-38683216D01*
X83559912Y-38751250D01*
X83611214Y-38856188D01*
X83693812Y-38938786D01*
X83798751Y-38990087D01*
X83866784Y-38999999D01*
X83950000Y-38999999D01*
X83950000Y-38237501D01*
X84150000Y-38237501D01*
X84150000Y-38999998D01*
X84150001Y-38999999D01*
X84233213Y-38999999D01*
X84233216Y-38999998D01*
X84301250Y-38990087D01*
X84406188Y-38938785D01*
X84488786Y-38856187D01*
X84540087Y-38751248D01*
X84550000Y-38683215D01*
X84550000Y-38237501D01*
X84549999Y-38237500D01*
X84150001Y-38237500D01*
X84150000Y-38237501D01*
X83950000Y-38237501D01*
X83949999Y-38237500D01*
X83550002Y-38237500D01*
X83550001Y-38237501D01*
X70500500Y-38237501D01*
X70500500Y-37580001D01*
X82190000Y-37580001D01*
X82190000Y-37659838D01*
X82196519Y-37709354D01*
X82196521Y-37709361D01*
X82247190Y-37818021D01*
X82331978Y-37902809D01*
X82440638Y-37953478D01*
X82440645Y-37953480D01*
X82490161Y-37960000D01*
X82599999Y-37960000D01*
X82600000Y-37959999D01*
X82600000Y-37580001D01*
X82800000Y-37580001D01*
X82800000Y-37959999D01*
X82800001Y-37960000D01*
X82909838Y-37960000D01*
X82959354Y-37953480D01*
X82959361Y-37953478D01*
X83068021Y-37902809D01*
X83152809Y-37818021D01*
X83203478Y-37709361D01*
X83203480Y-37709354D01*
X83210000Y-37659838D01*
X83210000Y-37591784D01*
X83550000Y-37591784D01*
X83550000Y-38037499D01*
X83550001Y-38037500D01*
X83949999Y-38037500D01*
X83950000Y-38037499D01*
X83950000Y-37275001D01*
X84150000Y-37275001D01*
X84150000Y-38037499D01*
X84150001Y-38037500D01*
X84549998Y-38037500D01*
X84549999Y-38037499D01*
X84549999Y-37591786D01*
X84549998Y-37591783D01*
X84540087Y-37523749D01*
X84488785Y-37418811D01*
X84406187Y-37336213D01*
X84301248Y-37284912D01*
X84233216Y-37275000D01*
X84150001Y-37275000D01*
X84150000Y-37275001D01*
X83950000Y-37275001D01*
X83950000Y-37275000D01*
X83866785Y-37275000D01*
X83866782Y-37275001D01*
X83798750Y-37284912D01*
X83693811Y-37336214D01*
X83611213Y-37418812D01*
X83559912Y-37523751D01*
X83550000Y-37591784D01*
X83210000Y-37591784D01*
X83210000Y-37580001D01*
X83209999Y-37580000D01*
X82800001Y-37580000D01*
X82800000Y-37580001D01*
X82600000Y-37580001D01*
X82599999Y-37580000D01*
X82190001Y-37580000D01*
X82190000Y-37580001D01*
X70500500Y-37580001D01*
X70500500Y-36340100D01*
X82189500Y-36340100D01*
X82189500Y-36699895D01*
X82189501Y-36699907D01*
X82196027Y-36749486D01*
X82196027Y-36749488D01*
X82246774Y-36858313D01*
X82246775Y-36858314D01*
X82246776Y-36858316D01*
X82318812Y-36930352D01*
X82346588Y-36984867D01*
X82337017Y-37045299D01*
X82318811Y-37070358D01*
X82247190Y-37141978D01*
X82196521Y-37250638D01*
X82196519Y-37250645D01*
X82190000Y-37300161D01*
X82190000Y-37379999D01*
X82190001Y-37380000D01*
X83209999Y-37380000D01*
X83210000Y-37379999D01*
X83210000Y-37300161D01*
X83203480Y-37250645D01*
X83203478Y-37250638D01*
X83152809Y-37141978D01*
X83081189Y-37070358D01*
X83053412Y-37015841D01*
X83062983Y-36955409D01*
X83081186Y-36930353D01*
X83153224Y-36858316D01*
X83203972Y-36749487D01*
X83210500Y-36699901D01*
X83210499Y-36340100D01*
X83203972Y-36290513D01*
X83203972Y-36290511D01*
X83153225Y-36181686D01*
X83153224Y-36181685D01*
X83153224Y-36181684D01*
X83145216Y-36173676D01*
X83117441Y-36119162D01*
X83119595Y-36078052D01*
X83125500Y-36056018D01*
X83125500Y-35943982D01*
X83096503Y-35835763D01*
X83096501Y-35835760D01*
X83096501Y-35835758D01*
X83040486Y-35738739D01*
X83040485Y-35738737D01*
X82961263Y-35659515D01*
X82961260Y-35659513D01*
X82864240Y-35603498D01*
X82864242Y-35603498D01*
X82822251Y-35592247D01*
X82756018Y-35574500D01*
X82643982Y-35574500D01*
X82577748Y-35592247D01*
X82535758Y-35603498D01*
X82438739Y-35659513D01*
X82359513Y-35738739D01*
X82303498Y-35835758D01*
X82274500Y-35943983D01*
X82274500Y-36056018D01*
X82280404Y-36078053D01*
X82277201Y-36139155D01*
X82254783Y-36173676D01*
X82246777Y-36181682D01*
X82246774Y-36181686D01*
X82196029Y-36290510D01*
X82196028Y-36290511D01*
X82189500Y-36340100D01*
X70500500Y-36340100D01*
X70500500Y-35316740D01*
X84499500Y-35316740D01*
X84499500Y-36408260D01*
X84506118Y-36453682D01*
X84509427Y-36476395D01*
X84560801Y-36581481D01*
X84560804Y-36581486D01*
X84565531Y-36586213D01*
X84593306Y-36640731D01*
X84591151Y-36681834D01*
X84574500Y-36743979D01*
X84574500Y-36743982D01*
X84574500Y-36856018D01*
X84594417Y-36930350D01*
X84603498Y-36964241D01*
X84659513Y-37061260D01*
X84659515Y-37061263D01*
X84738737Y-37140485D01*
X84738739Y-37140486D01*
X84835759Y-37196501D01*
X84835757Y-37196501D01*
X84835761Y-37196502D01*
X84835763Y-37196503D01*
X84943982Y-37225500D01*
X84943984Y-37225500D01*
X85056016Y-37225500D01*
X85056018Y-37225500D01*
X85164237Y-37196503D01*
X85164239Y-37196501D01*
X85164241Y-37196501D01*
X85193521Y-37179596D01*
X85261263Y-37140485D01*
X85340485Y-37061263D01*
X85396503Y-36964237D01*
X85425500Y-36856018D01*
X85425500Y-36743982D01*
X85408848Y-36681834D01*
X85412051Y-36620734D01*
X85434469Y-36586211D01*
X85439198Y-36581483D01*
X85490573Y-36476393D01*
X85500500Y-36408260D01*
X85500500Y-35316740D01*
X85490573Y-35248607D01*
X85439198Y-35143517D01*
X85356483Y-35060802D01*
X85356481Y-35060801D01*
X85251395Y-35009427D01*
X85224139Y-35005456D01*
X85183260Y-34999500D01*
X84816740Y-34999500D01*
X84782673Y-35004463D01*
X84748604Y-35009427D01*
X84643518Y-35060801D01*
X84560801Y-35143518D01*
X84509427Y-35248604D01*
X84509427Y-35248607D01*
X84499500Y-35316740D01*
X70500500Y-35316740D01*
X70500500Y-34535751D01*
X93324500Y-34535751D01*
X93324500Y-35039248D01*
X93340049Y-35137419D01*
X93340050Y-35137423D01*
X93343156Y-35143518D01*
X93400342Y-35255751D01*
X93494249Y-35349658D01*
X93545446Y-35375744D01*
X93588710Y-35419008D01*
X93599500Y-35463953D01*
X93599500Y-36055023D01*
X93580593Y-36113214D01*
X93570504Y-36125026D01*
X93535935Y-36159595D01*
X93535933Y-36159598D01*
X93485932Y-36266824D01*
X93485932Y-36266825D01*
X93479500Y-36315685D01*
X93479500Y-36664314D01*
X93485932Y-36713174D01*
X93485932Y-36713175D01*
X93535933Y-36820401D01*
X93535934Y-36820402D01*
X93535935Y-36820404D01*
X93619596Y-36904065D01*
X93619597Y-36904065D01*
X93619598Y-36904066D01*
X93632915Y-36910276D01*
X93677663Y-36952005D01*
X93689337Y-37012066D01*
X93663478Y-37067518D01*
X93632915Y-37089724D01*
X93619598Y-37095933D01*
X93535933Y-37179598D01*
X93485932Y-37286824D01*
X93485932Y-37286825D01*
X93479500Y-37335685D01*
X93479500Y-37684314D01*
X93485932Y-37733174D01*
X93485932Y-37733175D01*
X93535933Y-37840401D01*
X93535934Y-37840402D01*
X93535935Y-37840404D01*
X93547820Y-37852289D01*
X93547824Y-37852293D01*
X93575600Y-37906811D01*
X93574004Y-37937374D01*
X93575347Y-37937551D01*
X93574500Y-37943980D01*
X93574500Y-37943982D01*
X93574500Y-38056018D01*
X93600072Y-38151455D01*
X93603498Y-38164241D01*
X93659513Y-38261260D01*
X93659515Y-38261263D01*
X93738737Y-38340485D01*
X93738739Y-38340486D01*
X93835759Y-38396501D01*
X93835757Y-38396501D01*
X93835761Y-38396502D01*
X93835763Y-38396503D01*
X93943982Y-38425500D01*
X93943984Y-38425500D01*
X94056016Y-38425500D01*
X94056018Y-38425500D01*
X94164237Y-38396503D01*
X94164239Y-38396501D01*
X94164241Y-38396501D01*
X94193064Y-38379859D01*
X94261263Y-38340485D01*
X94340485Y-38261263D01*
X94396503Y-38164237D01*
X94425500Y-38056018D01*
X94425500Y-37943982D01*
X94425499Y-37943981D01*
X94424653Y-37937550D01*
X94427116Y-37937225D01*
X94429755Y-37886822D01*
X94452177Y-37852291D01*
X94464065Y-37840404D01*
X94474503Y-37818021D01*
X94514067Y-37733175D01*
X94514068Y-37733173D01*
X94520500Y-37684316D01*
X94520500Y-37335684D01*
X94514068Y-37286827D01*
X94508553Y-37275001D01*
X94464066Y-37179598D01*
X94464065Y-37179597D01*
X94464065Y-37179596D01*
X94380404Y-37095935D01*
X94367085Y-37089724D01*
X94322337Y-37047997D01*
X94310662Y-36987936D01*
X94336519Y-36932483D01*
X94367084Y-36910275D01*
X94380404Y-36904065D01*
X94464065Y-36820404D01*
X94514068Y-36713173D01*
X94520500Y-36664316D01*
X94520500Y-36315684D01*
X94514068Y-36266827D01*
X94464065Y-36159596D01*
X94464064Y-36159595D01*
X94429496Y-36125026D01*
X94401719Y-36070509D01*
X94400500Y-36055023D01*
X94400500Y-35463953D01*
X94419407Y-35405762D01*
X94454553Y-35375744D01*
X94505751Y-35349658D01*
X94599658Y-35255751D01*
X94659951Y-35137420D01*
X94675500Y-35039246D01*
X94675500Y-34535754D01*
X94659951Y-34437580D01*
X94599658Y-34319249D01*
X94505751Y-34225342D01*
X94501631Y-34223243D01*
X94387423Y-34165050D01*
X94387420Y-34165049D01*
X94362876Y-34161161D01*
X94289249Y-34149500D01*
X94289246Y-34149500D01*
X93710754Y-34149500D01*
X93710751Y-34149500D01*
X93612580Y-34165049D01*
X93612576Y-34165050D01*
X93494250Y-34225341D01*
X93400341Y-34319250D01*
X93340050Y-34437576D01*
X93340049Y-34437580D01*
X93324500Y-34535751D01*
X70500500Y-34535751D01*
X70500500Y-34002435D01*
X70500619Y-33997578D01*
X70516198Y-33680452D01*
X70517113Y-33661824D01*
X70518063Y-33652186D01*
X70567029Y-33322080D01*
X70568918Y-33312582D01*
X70568938Y-33312501D01*
X93325001Y-33312501D01*
X93325001Y-33464209D01*
X93340531Y-33562262D01*
X93400751Y-33680452D01*
X93494547Y-33774248D01*
X93612735Y-33834468D01*
X93710791Y-33849999D01*
X93900000Y-33849999D01*
X93900000Y-33312501D01*
X94100000Y-33312501D01*
X94100000Y-33849998D01*
X94100001Y-33849999D01*
X94289209Y-33849999D01*
X94387262Y-33834468D01*
X94505452Y-33774248D01*
X94599248Y-33680452D01*
X94659468Y-33562264D01*
X94675000Y-33464208D01*
X94675000Y-33312501D01*
X96325001Y-33312501D01*
X96325001Y-33464209D01*
X96340531Y-33562262D01*
X96400751Y-33680452D01*
X96494547Y-33774248D01*
X96612735Y-33834468D01*
X96710791Y-33849999D01*
X96900000Y-33849999D01*
X96900000Y-33312501D01*
X97100000Y-33312501D01*
X97100000Y-33849998D01*
X97100001Y-33849999D01*
X97289209Y-33849999D01*
X97387262Y-33834468D01*
X97505452Y-33774248D01*
X97599248Y-33680452D01*
X97659468Y-33562264D01*
X97675000Y-33464208D01*
X97675000Y-33312501D01*
X97674999Y-33312500D01*
X97100001Y-33312500D01*
X97100000Y-33312501D01*
X96900000Y-33312501D01*
X96899999Y-33312500D01*
X96325002Y-33312500D01*
X96325001Y-33312501D01*
X94675000Y-33312501D01*
X94674999Y-33312500D01*
X94100001Y-33312500D01*
X94100000Y-33312501D01*
X93900000Y-33312501D01*
X93899999Y-33312500D01*
X93325002Y-33312500D01*
X93325001Y-33312501D01*
X70568938Y-33312501D01*
X70650009Y-32988849D01*
X70652818Y-32979590D01*
X70659544Y-32960791D01*
X93325000Y-32960791D01*
X93325000Y-33112499D01*
X93325001Y-33112500D01*
X93899999Y-33112500D01*
X93900000Y-33112499D01*
X93900000Y-32575001D01*
X94100000Y-32575001D01*
X94100000Y-33112499D01*
X94100001Y-33112500D01*
X94674998Y-33112500D01*
X94674999Y-33112499D01*
X94674999Y-32960791D01*
X96325000Y-32960791D01*
X96325000Y-33112499D01*
X96325001Y-33112500D01*
X96899999Y-33112500D01*
X96900000Y-33112499D01*
X96900000Y-32575001D01*
X97100000Y-32575001D01*
X97100000Y-33112499D01*
X97100001Y-33112500D01*
X97674998Y-33112500D01*
X97674999Y-33112499D01*
X97674999Y-32960790D01*
X97659468Y-32862737D01*
X97599248Y-32744547D01*
X97505452Y-32650751D01*
X97387264Y-32590531D01*
X97289209Y-32575000D01*
X97100001Y-32575000D01*
X97100000Y-32575001D01*
X96900000Y-32575001D01*
X96899999Y-32575000D01*
X96710790Y-32575000D01*
X96612737Y-32590531D01*
X96494547Y-32650751D01*
X96400751Y-32744547D01*
X96340531Y-32862735D01*
X96325000Y-32960791D01*
X94674999Y-32960791D01*
X94674999Y-32960790D01*
X94659468Y-32862737D01*
X94599248Y-32744547D01*
X94505452Y-32650751D01*
X94387264Y-32590531D01*
X94289209Y-32575000D01*
X94100001Y-32575000D01*
X94100000Y-32575001D01*
X93900000Y-32575001D01*
X93899999Y-32575000D01*
X93710790Y-32575000D01*
X93612737Y-32590531D01*
X93494547Y-32650751D01*
X93400751Y-32744547D01*
X93340531Y-32862735D01*
X93325000Y-32960791D01*
X70659544Y-32960791D01*
X70765249Y-32665367D01*
X70768958Y-32656412D01*
X70911644Y-32354728D01*
X70916211Y-32346185D01*
X71087780Y-32059938D01*
X71093163Y-32051883D01*
X71291957Y-31783841D01*
X71298107Y-31776346D01*
X71522228Y-31529067D01*
X71529067Y-31522228D01*
X71776346Y-31298107D01*
X71783841Y-31291957D01*
X72051883Y-31093163D01*
X72059938Y-31087780D01*
X72346185Y-30916211D01*
X72354728Y-30911644D01*
X72656412Y-30768958D01*
X72665367Y-30765249D01*
X72979590Y-30652818D01*
X72988849Y-30650009D01*
X73312582Y-30568918D01*
X73322080Y-30567029D01*
X73652186Y-30518063D01*
X73661824Y-30517113D01*
X73970606Y-30501944D01*
X73997579Y-30500619D01*
X74002436Y-30500500D01*
X74065892Y-30500500D01*
X115934108Y-30500500D01*
X115997564Y-30500500D01*
X116002421Y-30500619D01*
G37*
%TD.AperFunction*%
%TD*%
M02*
