%TF.GenerationSoftware,KiCad,Pcbnew,10.0.6*%
%TF.CreationDate,2026-09-18T11:43:59+02:00*%
%TF.ProjectId,kicad_td,6b696361-645f-4746-942e-6b696361645f,rev?*%
%TF.SameCoordinates,Original*%
%TF.FileFunction,Legend,Top*%
%TF.FilePolarity,Positive*%
%FSLAX46Y46*%
G04 Gerber Fmt 4.6, Leading zero omitted, Abs format (unit mm)*
G04 Created by KiCad (PCBNEW 10.0.6) date 2026-09-18 11:43:59*
%MOMM*%
%LPD*%
G01*
G04 APERTURE LIST*
%ADD10C,0.100000*%
%ADD11C,0.150000*%
%ADD12C,0.120000*%
G04 APERTURE END LIST*
D10*
X82361027Y-61542587D02*
X82932455Y-61542587D01*
X82646741Y-62542587D02*
X82646741Y-61542587D01*
X83694360Y-61875920D02*
X83694360Y-62542587D01*
X83265789Y-61875920D02*
X83265789Y-62399729D01*
X83265789Y-62399729D02*
X83313408Y-62494968D01*
X83313408Y-62494968D02*
X83408646Y-62542587D01*
X83408646Y-62542587D02*
X83551503Y-62542587D01*
X83551503Y-62542587D02*
X83646741Y-62494968D01*
X83646741Y-62494968D02*
X83694360Y-62447348D01*
X84027694Y-61875920D02*
X84408646Y-61875920D01*
X84170551Y-61542587D02*
X84170551Y-62399729D01*
X84170551Y-62399729D02*
X84218170Y-62494968D01*
X84218170Y-62494968D02*
X84313408Y-62542587D01*
X84313408Y-62542587D02*
X84408646Y-62542587D01*
X84884837Y-62542587D02*
X84789599Y-62494968D01*
X84789599Y-62494968D02*
X84741980Y-62447348D01*
X84741980Y-62447348D02*
X84694361Y-62352110D01*
X84694361Y-62352110D02*
X84694361Y-62066396D01*
X84694361Y-62066396D02*
X84741980Y-61971158D01*
X84741980Y-61971158D02*
X84789599Y-61923539D01*
X84789599Y-61923539D02*
X84884837Y-61875920D01*
X84884837Y-61875920D02*
X85027694Y-61875920D01*
X85027694Y-61875920D02*
X85122932Y-61923539D01*
X85122932Y-61923539D02*
X85170551Y-61971158D01*
X85170551Y-61971158D02*
X85218170Y-62066396D01*
X85218170Y-62066396D02*
X85218170Y-62352110D01*
X85218170Y-62352110D02*
X85170551Y-62447348D01*
X85170551Y-62447348D02*
X85122932Y-62494968D01*
X85122932Y-62494968D02*
X85027694Y-62542587D01*
X85027694Y-62542587D02*
X84884837Y-62542587D01*
X86408647Y-61542587D02*
X86408647Y-62352110D01*
X86408647Y-62352110D02*
X86456266Y-62447348D01*
X86456266Y-62447348D02*
X86503885Y-62494968D01*
X86503885Y-62494968D02*
X86599123Y-62542587D01*
X86599123Y-62542587D02*
X86789599Y-62542587D01*
X86789599Y-62542587D02*
X86884837Y-62494968D01*
X86884837Y-62494968D02*
X86932456Y-62447348D01*
X86932456Y-62447348D02*
X86980075Y-62352110D01*
X86980075Y-62352110D02*
X86980075Y-61542587D01*
X87408647Y-62494968D02*
X87551504Y-62542587D01*
X87551504Y-62542587D02*
X87789599Y-62542587D01*
X87789599Y-62542587D02*
X87884837Y-62494968D01*
X87884837Y-62494968D02*
X87932456Y-62447348D01*
X87932456Y-62447348D02*
X87980075Y-62352110D01*
X87980075Y-62352110D02*
X87980075Y-62256872D01*
X87980075Y-62256872D02*
X87932456Y-62161634D01*
X87932456Y-62161634D02*
X87884837Y-62114015D01*
X87884837Y-62114015D02*
X87789599Y-62066396D01*
X87789599Y-62066396D02*
X87599123Y-62018777D01*
X87599123Y-62018777D02*
X87503885Y-61971158D01*
X87503885Y-61971158D02*
X87456266Y-61923539D01*
X87456266Y-61923539D02*
X87408647Y-61828301D01*
X87408647Y-61828301D02*
X87408647Y-61733063D01*
X87408647Y-61733063D02*
X87456266Y-61637825D01*
X87456266Y-61637825D02*
X87503885Y-61590206D01*
X87503885Y-61590206D02*
X87599123Y-61542587D01*
X87599123Y-61542587D02*
X87837218Y-61542587D01*
X87837218Y-61542587D02*
X87980075Y-61590206D01*
X88741980Y-62018777D02*
X88884837Y-62066396D01*
X88884837Y-62066396D02*
X88932456Y-62114015D01*
X88932456Y-62114015D02*
X88980075Y-62209253D01*
X88980075Y-62209253D02*
X88980075Y-62352110D01*
X88980075Y-62352110D02*
X88932456Y-62447348D01*
X88932456Y-62447348D02*
X88884837Y-62494968D01*
X88884837Y-62494968D02*
X88789599Y-62542587D01*
X88789599Y-62542587D02*
X88408647Y-62542587D01*
X88408647Y-62542587D02*
X88408647Y-61542587D01*
X88408647Y-61542587D02*
X88741980Y-61542587D01*
X88741980Y-61542587D02*
X88837218Y-61590206D01*
X88837218Y-61590206D02*
X88884837Y-61637825D01*
X88884837Y-61637825D02*
X88932456Y-61733063D01*
X88932456Y-61733063D02*
X88932456Y-61828301D01*
X88932456Y-61828301D02*
X88884837Y-61923539D01*
X88884837Y-61923539D02*
X88837218Y-61971158D01*
X88837218Y-61971158D02*
X88741980Y-62018777D01*
X88741980Y-62018777D02*
X88408647Y-62018777D01*
X89408647Y-62161634D02*
X90170552Y-62161634D01*
X91218170Y-62447348D02*
X91170551Y-62494968D01*
X91170551Y-62494968D02*
X91027694Y-62542587D01*
X91027694Y-62542587D02*
X90932456Y-62542587D01*
X90932456Y-62542587D02*
X90789599Y-62494968D01*
X90789599Y-62494968D02*
X90694361Y-62399729D01*
X90694361Y-62399729D02*
X90646742Y-62304491D01*
X90646742Y-62304491D02*
X90599123Y-62114015D01*
X90599123Y-62114015D02*
X90599123Y-61971158D01*
X90599123Y-61971158D02*
X90646742Y-61780682D01*
X90646742Y-61780682D02*
X90694361Y-61685444D01*
X90694361Y-61685444D02*
X90789599Y-61590206D01*
X90789599Y-61590206D02*
X90932456Y-61542587D01*
X90932456Y-61542587D02*
X91027694Y-61542587D01*
X91027694Y-61542587D02*
X91170551Y-61590206D01*
X91170551Y-61590206D02*
X91218170Y-61637825D01*
X83027693Y-64152531D02*
X82456265Y-64152531D01*
X82741979Y-64152531D02*
X82741979Y-63152531D01*
X82741979Y-63152531D02*
X82646741Y-63295388D01*
X82646741Y-63295388D02*
X82551503Y-63390626D01*
X82551503Y-63390626D02*
X82456265Y-63438245D01*
X83599122Y-63581102D02*
X83503884Y-63533483D01*
X83503884Y-63533483D02*
X83456265Y-63485864D01*
X83456265Y-63485864D02*
X83408646Y-63390626D01*
X83408646Y-63390626D02*
X83408646Y-63343007D01*
X83408646Y-63343007D02*
X83456265Y-63247769D01*
X83456265Y-63247769D02*
X83503884Y-63200150D01*
X83503884Y-63200150D02*
X83599122Y-63152531D01*
X83599122Y-63152531D02*
X83789598Y-63152531D01*
X83789598Y-63152531D02*
X83884836Y-63200150D01*
X83884836Y-63200150D02*
X83932455Y-63247769D01*
X83932455Y-63247769D02*
X83980074Y-63343007D01*
X83980074Y-63343007D02*
X83980074Y-63390626D01*
X83980074Y-63390626D02*
X83932455Y-63485864D01*
X83932455Y-63485864D02*
X83884836Y-63533483D01*
X83884836Y-63533483D02*
X83789598Y-63581102D01*
X83789598Y-63581102D02*
X83599122Y-63581102D01*
X83599122Y-63581102D02*
X83503884Y-63628721D01*
X83503884Y-63628721D02*
X83456265Y-63676340D01*
X83456265Y-63676340D02*
X83408646Y-63771578D01*
X83408646Y-63771578D02*
X83408646Y-63962054D01*
X83408646Y-63962054D02*
X83456265Y-64057292D01*
X83456265Y-64057292D02*
X83503884Y-64104912D01*
X83503884Y-64104912D02*
X83599122Y-64152531D01*
X83599122Y-64152531D02*
X83789598Y-64152531D01*
X83789598Y-64152531D02*
X83884836Y-64104912D01*
X83884836Y-64104912D02*
X83932455Y-64057292D01*
X83932455Y-64057292D02*
X83980074Y-63962054D01*
X83980074Y-63962054D02*
X83980074Y-63771578D01*
X83980074Y-63771578D02*
X83932455Y-63676340D01*
X83932455Y-63676340D02*
X83884836Y-63628721D01*
X83884836Y-63628721D02*
X83789598Y-63581102D01*
X85122931Y-63104912D02*
X84265789Y-64390626D01*
X85646741Y-63152531D02*
X85741979Y-63152531D01*
X85741979Y-63152531D02*
X85837217Y-63200150D01*
X85837217Y-63200150D02*
X85884836Y-63247769D01*
X85884836Y-63247769D02*
X85932455Y-63343007D01*
X85932455Y-63343007D02*
X85980074Y-63533483D01*
X85980074Y-63533483D02*
X85980074Y-63771578D01*
X85980074Y-63771578D02*
X85932455Y-63962054D01*
X85932455Y-63962054D02*
X85884836Y-64057292D01*
X85884836Y-64057292D02*
X85837217Y-64104912D01*
X85837217Y-64104912D02*
X85741979Y-64152531D01*
X85741979Y-64152531D02*
X85646741Y-64152531D01*
X85646741Y-64152531D02*
X85551503Y-64104912D01*
X85551503Y-64104912D02*
X85503884Y-64057292D01*
X85503884Y-64057292D02*
X85456265Y-63962054D01*
X85456265Y-63962054D02*
X85408646Y-63771578D01*
X85408646Y-63771578D02*
X85408646Y-63533483D01*
X85408646Y-63533483D02*
X85456265Y-63343007D01*
X85456265Y-63343007D02*
X85503884Y-63247769D01*
X85503884Y-63247769D02*
X85551503Y-63200150D01*
X85551503Y-63200150D02*
X85646741Y-63152531D01*
X86456265Y-64152531D02*
X86646741Y-64152531D01*
X86646741Y-64152531D02*
X86741979Y-64104912D01*
X86741979Y-64104912D02*
X86789598Y-64057292D01*
X86789598Y-64057292D02*
X86884836Y-63914435D01*
X86884836Y-63914435D02*
X86932455Y-63723959D01*
X86932455Y-63723959D02*
X86932455Y-63343007D01*
X86932455Y-63343007D02*
X86884836Y-63247769D01*
X86884836Y-63247769D02*
X86837217Y-63200150D01*
X86837217Y-63200150D02*
X86741979Y-63152531D01*
X86741979Y-63152531D02*
X86551503Y-63152531D01*
X86551503Y-63152531D02*
X86456265Y-63200150D01*
X86456265Y-63200150D02*
X86408646Y-63247769D01*
X86408646Y-63247769D02*
X86361027Y-63343007D01*
X86361027Y-63343007D02*
X86361027Y-63581102D01*
X86361027Y-63581102D02*
X86408646Y-63676340D01*
X86408646Y-63676340D02*
X86456265Y-63723959D01*
X86456265Y-63723959D02*
X86551503Y-63771578D01*
X86551503Y-63771578D02*
X86741979Y-63771578D01*
X86741979Y-63771578D02*
X86837217Y-63723959D01*
X86837217Y-63723959D02*
X86884836Y-63676340D01*
X86884836Y-63676340D02*
X86932455Y-63581102D01*
X88075312Y-63104912D02*
X87218170Y-64390626D01*
X88361027Y-63247769D02*
X88408646Y-63200150D01*
X88408646Y-63200150D02*
X88503884Y-63152531D01*
X88503884Y-63152531D02*
X88741979Y-63152531D01*
X88741979Y-63152531D02*
X88837217Y-63200150D01*
X88837217Y-63200150D02*
X88884836Y-63247769D01*
X88884836Y-63247769D02*
X88932455Y-63343007D01*
X88932455Y-63343007D02*
X88932455Y-63438245D01*
X88932455Y-63438245D02*
X88884836Y-63581102D01*
X88884836Y-63581102D02*
X88313408Y-64152531D01*
X88313408Y-64152531D02*
X88932455Y-64152531D01*
X89789598Y-63152531D02*
X89599122Y-63152531D01*
X89599122Y-63152531D02*
X89503884Y-63200150D01*
X89503884Y-63200150D02*
X89456265Y-63247769D01*
X89456265Y-63247769D02*
X89361027Y-63390626D01*
X89361027Y-63390626D02*
X89313408Y-63581102D01*
X89313408Y-63581102D02*
X89313408Y-63962054D01*
X89313408Y-63962054D02*
X89361027Y-64057292D01*
X89361027Y-64057292D02*
X89408646Y-64104912D01*
X89408646Y-64104912D02*
X89503884Y-64152531D01*
X89503884Y-64152531D02*
X89694360Y-64152531D01*
X89694360Y-64152531D02*
X89789598Y-64104912D01*
X89789598Y-64104912D02*
X89837217Y-64057292D01*
X89837217Y-64057292D02*
X89884836Y-63962054D01*
X89884836Y-63962054D02*
X89884836Y-63723959D01*
X89884836Y-63723959D02*
X89837217Y-63628721D01*
X89837217Y-63628721D02*
X89789598Y-63581102D01*
X89789598Y-63581102D02*
X89694360Y-63533483D01*
X89694360Y-63533483D02*
X89503884Y-63533483D01*
X89503884Y-63533483D02*
X89408646Y-63581102D01*
X89408646Y-63581102D02*
X89361027Y-63628721D01*
X89361027Y-63628721D02*
X89313408Y-63723959D01*
X82980074Y-65762475D02*
X82503884Y-65762475D01*
X82503884Y-65762475D02*
X82503884Y-64762475D01*
X83741979Y-65762475D02*
X83741979Y-65238665D01*
X83741979Y-65238665D02*
X83694360Y-65143427D01*
X83694360Y-65143427D02*
X83599122Y-65095808D01*
X83599122Y-65095808D02*
X83408646Y-65095808D01*
X83408646Y-65095808D02*
X83313408Y-65143427D01*
X83741979Y-65714856D02*
X83646741Y-65762475D01*
X83646741Y-65762475D02*
X83408646Y-65762475D01*
X83408646Y-65762475D02*
X83313408Y-65714856D01*
X83313408Y-65714856D02*
X83265789Y-65619617D01*
X83265789Y-65619617D02*
X83265789Y-65524379D01*
X83265789Y-65524379D02*
X83313408Y-65429141D01*
X83313408Y-65429141D02*
X83408646Y-65381522D01*
X83408646Y-65381522D02*
X83646741Y-65381522D01*
X83646741Y-65381522D02*
X83741979Y-65333903D01*
X84646741Y-65095808D02*
X84646741Y-65762475D01*
X84218170Y-65095808D02*
X84218170Y-65619617D01*
X84218170Y-65619617D02*
X84265789Y-65714856D01*
X84265789Y-65714856D02*
X84361027Y-65762475D01*
X84361027Y-65762475D02*
X84503884Y-65762475D01*
X84503884Y-65762475D02*
X84599122Y-65714856D01*
X84599122Y-65714856D02*
X84646741Y-65667236D01*
X85122932Y-65762475D02*
X85122932Y-65095808D01*
X85122932Y-65286284D02*
X85170551Y-65191046D01*
X85170551Y-65191046D02*
X85218170Y-65143427D01*
X85218170Y-65143427D02*
X85313408Y-65095808D01*
X85313408Y-65095808D02*
X85408646Y-65095808D01*
X86122932Y-65714856D02*
X86027694Y-65762475D01*
X86027694Y-65762475D02*
X85837218Y-65762475D01*
X85837218Y-65762475D02*
X85741980Y-65714856D01*
X85741980Y-65714856D02*
X85694361Y-65619617D01*
X85694361Y-65619617D02*
X85694361Y-65238665D01*
X85694361Y-65238665D02*
X85741980Y-65143427D01*
X85741980Y-65143427D02*
X85837218Y-65095808D01*
X85837218Y-65095808D02*
X86027694Y-65095808D01*
X86027694Y-65095808D02*
X86122932Y-65143427D01*
X86122932Y-65143427D02*
X86170551Y-65238665D01*
X86170551Y-65238665D02*
X86170551Y-65333903D01*
X86170551Y-65333903D02*
X85694361Y-65429141D01*
X86599123Y-65095808D02*
X86599123Y-65762475D01*
X86599123Y-65191046D02*
X86646742Y-65143427D01*
X86646742Y-65143427D02*
X86741980Y-65095808D01*
X86741980Y-65095808D02*
X86884837Y-65095808D01*
X86884837Y-65095808D02*
X86980075Y-65143427D01*
X86980075Y-65143427D02*
X87027694Y-65238665D01*
X87027694Y-65238665D02*
X87027694Y-65762475D01*
X87361028Y-65095808D02*
X87741980Y-65095808D01*
X87503885Y-64762475D02*
X87503885Y-65619617D01*
X87503885Y-65619617D02*
X87551504Y-65714856D01*
X87551504Y-65714856D02*
X87646742Y-65762475D01*
X87646742Y-65762475D02*
X87741980Y-65762475D01*
X89170552Y-65238665D02*
X88837219Y-65238665D01*
X88837219Y-65762475D02*
X88837219Y-64762475D01*
X88837219Y-64762475D02*
X89313409Y-64762475D01*
X89694362Y-65762475D02*
X89694362Y-65095808D01*
X89694362Y-64762475D02*
X89646743Y-64810094D01*
X89646743Y-64810094D02*
X89694362Y-64857713D01*
X89694362Y-64857713D02*
X89741981Y-64810094D01*
X89741981Y-64810094D02*
X89694362Y-64762475D01*
X89694362Y-64762475D02*
X89694362Y-64857713D01*
X90599123Y-65762475D02*
X90599123Y-65238665D01*
X90599123Y-65238665D02*
X90551504Y-65143427D01*
X90551504Y-65143427D02*
X90456266Y-65095808D01*
X90456266Y-65095808D02*
X90265790Y-65095808D01*
X90265790Y-65095808D02*
X90170552Y-65143427D01*
X90599123Y-65714856D02*
X90503885Y-65762475D01*
X90503885Y-65762475D02*
X90265790Y-65762475D01*
X90265790Y-65762475D02*
X90170552Y-65714856D01*
X90170552Y-65714856D02*
X90122933Y-65619617D01*
X90122933Y-65619617D02*
X90122933Y-65524379D01*
X90122933Y-65524379D02*
X90170552Y-65429141D01*
X90170552Y-65429141D02*
X90265790Y-65381522D01*
X90265790Y-65381522D02*
X90503885Y-65381522D01*
X90503885Y-65381522D02*
X90599123Y-65333903D01*
X91503885Y-65714856D02*
X91408647Y-65762475D01*
X91408647Y-65762475D02*
X91218171Y-65762475D01*
X91218171Y-65762475D02*
X91122933Y-65714856D01*
X91122933Y-65714856D02*
X91075314Y-65667236D01*
X91075314Y-65667236D02*
X91027695Y-65571998D01*
X91027695Y-65571998D02*
X91027695Y-65286284D01*
X91027695Y-65286284D02*
X91075314Y-65191046D01*
X91075314Y-65191046D02*
X91122933Y-65143427D01*
X91122933Y-65143427D02*
X91218171Y-65095808D01*
X91218171Y-65095808D02*
X91408647Y-65095808D01*
X91408647Y-65095808D02*
X91503885Y-65143427D01*
X91932457Y-65762475D02*
X91932457Y-64762475D01*
X92027695Y-65381522D02*
X92313409Y-65762475D01*
X92313409Y-65095808D02*
X91932457Y-65476760D01*
X83075312Y-67372419D02*
X82741979Y-66896228D01*
X82503884Y-67372419D02*
X82503884Y-66372419D01*
X82503884Y-66372419D02*
X82884836Y-66372419D01*
X82884836Y-66372419D02*
X82980074Y-66420038D01*
X82980074Y-66420038D02*
X83027693Y-66467657D01*
X83027693Y-66467657D02*
X83075312Y-66562895D01*
X83075312Y-66562895D02*
X83075312Y-66705752D01*
X83075312Y-66705752D02*
X83027693Y-66800990D01*
X83027693Y-66800990D02*
X82980074Y-66848609D01*
X82980074Y-66848609D02*
X82884836Y-66896228D01*
X82884836Y-66896228D02*
X82503884Y-66896228D01*
X83884836Y-67324800D02*
X83789598Y-67372419D01*
X83789598Y-67372419D02*
X83599122Y-67372419D01*
X83599122Y-67372419D02*
X83503884Y-67324800D01*
X83503884Y-67324800D02*
X83456265Y-67229561D01*
X83456265Y-67229561D02*
X83456265Y-66848609D01*
X83456265Y-66848609D02*
X83503884Y-66753371D01*
X83503884Y-66753371D02*
X83599122Y-66705752D01*
X83599122Y-66705752D02*
X83789598Y-66705752D01*
X83789598Y-66705752D02*
X83884836Y-66753371D01*
X83884836Y-66753371D02*
X83932455Y-66848609D01*
X83932455Y-66848609D02*
X83932455Y-66943847D01*
X83932455Y-66943847D02*
X83456265Y-67039085D01*
X84265789Y-66705752D02*
X84503884Y-67372419D01*
X84503884Y-67372419D02*
X84741979Y-66705752D01*
X86408646Y-67372419D02*
X85837218Y-67372419D01*
X86122932Y-67372419D02*
X86122932Y-66372419D01*
X86122932Y-66372419D02*
X86027694Y-66515276D01*
X86027694Y-66515276D02*
X85932456Y-66610514D01*
X85932456Y-66610514D02*
X85837218Y-66658133D01*
X86837218Y-67277180D02*
X86884837Y-67324800D01*
X86884837Y-67324800D02*
X86837218Y-67372419D01*
X86837218Y-67372419D02*
X86789599Y-67324800D01*
X86789599Y-67324800D02*
X86837218Y-67277180D01*
X86837218Y-67277180D02*
X86837218Y-67372419D01*
X87503884Y-66372419D02*
X87599122Y-66372419D01*
X87599122Y-66372419D02*
X87694360Y-66420038D01*
X87694360Y-66420038D02*
X87741979Y-66467657D01*
X87741979Y-66467657D02*
X87789598Y-66562895D01*
X87789598Y-66562895D02*
X87837217Y-66753371D01*
X87837217Y-66753371D02*
X87837217Y-66991466D01*
X87837217Y-66991466D02*
X87789598Y-67181942D01*
X87789598Y-67181942D02*
X87741979Y-67277180D01*
X87741979Y-67277180D02*
X87694360Y-67324800D01*
X87694360Y-67324800D02*
X87599122Y-67372419D01*
X87599122Y-67372419D02*
X87503884Y-67372419D01*
X87503884Y-67372419D02*
X87408646Y-67324800D01*
X87408646Y-67324800D02*
X87361027Y-67277180D01*
X87361027Y-67277180D02*
X87313408Y-67181942D01*
X87313408Y-67181942D02*
X87265789Y-66991466D01*
X87265789Y-66991466D02*
X87265789Y-66753371D01*
X87265789Y-66753371D02*
X87313408Y-66562895D01*
X87313408Y-66562895D02*
X87361027Y-66467657D01*
X87361027Y-66467657D02*
X87408646Y-66420038D01*
X87408646Y-66420038D02*
X87503884Y-66372419D01*
D11*
X97233333Y-55919580D02*
X97185714Y-55967200D01*
X97185714Y-55967200D02*
X97042857Y-56014819D01*
X97042857Y-56014819D02*
X96947619Y-56014819D01*
X96947619Y-56014819D02*
X96804762Y-55967200D01*
X96804762Y-55967200D02*
X96709524Y-55871961D01*
X96709524Y-55871961D02*
X96661905Y-55776723D01*
X96661905Y-55776723D02*
X96614286Y-55586247D01*
X96614286Y-55586247D02*
X96614286Y-55443390D01*
X96614286Y-55443390D02*
X96661905Y-55252914D01*
X96661905Y-55252914D02*
X96709524Y-55157676D01*
X96709524Y-55157676D02*
X96804762Y-55062438D01*
X96804762Y-55062438D02*
X96947619Y-55014819D01*
X96947619Y-55014819D02*
X97042857Y-55014819D01*
X97042857Y-55014819D02*
X97185714Y-55062438D01*
X97185714Y-55062438D02*
X97233333Y-55110057D01*
X98090476Y-55348152D02*
X98090476Y-56014819D01*
X97852381Y-54967200D02*
X97614286Y-55681485D01*
X97614286Y-55681485D02*
X98233333Y-55681485D01*
X101523809Y-51178628D02*
X101523809Y-51654819D01*
X101190476Y-50654819D02*
X101523809Y-51178628D01*
X101523809Y-51178628D02*
X101857142Y-50654819D01*
X102714285Y-51654819D02*
X102142857Y-51654819D01*
X102428571Y-51654819D02*
X102428571Y-50654819D01*
X102428571Y-50654819D02*
X102333333Y-50797676D01*
X102333333Y-50797676D02*
X102238095Y-50892914D01*
X102238095Y-50892914D02*
X102142857Y-50940533D01*
X92238095Y-55334819D02*
X92238095Y-56144342D01*
X92238095Y-56144342D02*
X92285714Y-56239580D01*
X92285714Y-56239580D02*
X92333333Y-56287200D01*
X92333333Y-56287200D02*
X92428571Y-56334819D01*
X92428571Y-56334819D02*
X92619047Y-56334819D01*
X92619047Y-56334819D02*
X92714285Y-56287200D01*
X92714285Y-56287200D02*
X92761904Y-56239580D01*
X92761904Y-56239580D02*
X92809523Y-56144342D01*
X92809523Y-56144342D02*
X92809523Y-55334819D01*
X93190476Y-55334819D02*
X93809523Y-55334819D01*
X93809523Y-55334819D02*
X93476190Y-55715771D01*
X93476190Y-55715771D02*
X93619047Y-55715771D01*
X93619047Y-55715771D02*
X93714285Y-55763390D01*
X93714285Y-55763390D02*
X93761904Y-55811009D01*
X93761904Y-55811009D02*
X93809523Y-55906247D01*
X93809523Y-55906247D02*
X93809523Y-56144342D01*
X93809523Y-56144342D02*
X93761904Y-56239580D01*
X93761904Y-56239580D02*
X93714285Y-56287200D01*
X93714285Y-56287200D02*
X93619047Y-56334819D01*
X93619047Y-56334819D02*
X93333333Y-56334819D01*
X93333333Y-56334819D02*
X93238095Y-56287200D01*
X93238095Y-56287200D02*
X93190476Y-56239580D01*
X86954819Y-37761904D02*
X87764342Y-37761904D01*
X87764342Y-37761904D02*
X87859580Y-37714285D01*
X87859580Y-37714285D02*
X87907200Y-37666666D01*
X87907200Y-37666666D02*
X87954819Y-37571428D01*
X87954819Y-37571428D02*
X87954819Y-37380952D01*
X87954819Y-37380952D02*
X87907200Y-37285714D01*
X87907200Y-37285714D02*
X87859580Y-37238095D01*
X87859580Y-37238095D02*
X87764342Y-37190476D01*
X87764342Y-37190476D02*
X86954819Y-37190476D01*
X87050057Y-36761904D02*
X87002438Y-36714285D01*
X87002438Y-36714285D02*
X86954819Y-36619047D01*
X86954819Y-36619047D02*
X86954819Y-36380952D01*
X86954819Y-36380952D02*
X87002438Y-36285714D01*
X87002438Y-36285714D02*
X87050057Y-36238095D01*
X87050057Y-36238095D02*
X87145295Y-36190476D01*
X87145295Y-36190476D02*
X87240533Y-36190476D01*
X87240533Y-36190476D02*
X87383390Y-36238095D01*
X87383390Y-36238095D02*
X87954819Y-36809523D01*
X87954819Y-36809523D02*
X87954819Y-36190476D01*
X81238095Y-47054819D02*
X81238095Y-47864342D01*
X81238095Y-47864342D02*
X81285714Y-47959580D01*
X81285714Y-47959580D02*
X81333333Y-48007200D01*
X81333333Y-48007200D02*
X81428571Y-48054819D01*
X81428571Y-48054819D02*
X81619047Y-48054819D01*
X81619047Y-48054819D02*
X81714285Y-48007200D01*
X81714285Y-48007200D02*
X81761904Y-47959580D01*
X81761904Y-47959580D02*
X81809523Y-47864342D01*
X81809523Y-47864342D02*
X81809523Y-47054819D01*
X82809523Y-48054819D02*
X82238095Y-48054819D01*
X82523809Y-48054819D02*
X82523809Y-47054819D01*
X82523809Y-47054819D02*
X82428571Y-47197676D01*
X82428571Y-47197676D02*
X82333333Y-47292914D01*
X82333333Y-47292914D02*
X82238095Y-47340533D01*
X99254819Y-37066666D02*
X98778628Y-37399999D01*
X99254819Y-37638094D02*
X98254819Y-37638094D01*
X98254819Y-37638094D02*
X98254819Y-37257142D01*
X98254819Y-37257142D02*
X98302438Y-37161904D01*
X98302438Y-37161904D02*
X98350057Y-37114285D01*
X98350057Y-37114285D02*
X98445295Y-37066666D01*
X98445295Y-37066666D02*
X98588152Y-37066666D01*
X98588152Y-37066666D02*
X98683390Y-37114285D01*
X98683390Y-37114285D02*
X98731009Y-37161904D01*
X98731009Y-37161904D02*
X98778628Y-37257142D01*
X98778628Y-37257142D02*
X98778628Y-37638094D01*
X98588152Y-36209523D02*
X99254819Y-36209523D01*
X98207200Y-36447618D02*
X98921485Y-36685713D01*
X98921485Y-36685713D02*
X98921485Y-36066666D01*
X92454819Y-37166666D02*
X91978628Y-37499999D01*
X92454819Y-37738094D02*
X91454819Y-37738094D01*
X91454819Y-37738094D02*
X91454819Y-37357142D01*
X91454819Y-37357142D02*
X91502438Y-37261904D01*
X91502438Y-37261904D02*
X91550057Y-37214285D01*
X91550057Y-37214285D02*
X91645295Y-37166666D01*
X91645295Y-37166666D02*
X91788152Y-37166666D01*
X91788152Y-37166666D02*
X91883390Y-37214285D01*
X91883390Y-37214285D02*
X91931009Y-37261904D01*
X91931009Y-37261904D02*
X91978628Y-37357142D01*
X91978628Y-37357142D02*
X91978628Y-37738094D01*
X91454819Y-36833332D02*
X91454819Y-36214285D01*
X91454819Y-36214285D02*
X91835771Y-36547618D01*
X91835771Y-36547618D02*
X91835771Y-36404761D01*
X91835771Y-36404761D02*
X91883390Y-36309523D01*
X91883390Y-36309523D02*
X91931009Y-36261904D01*
X91931009Y-36261904D02*
X92026247Y-36214285D01*
X92026247Y-36214285D02*
X92264342Y-36214285D01*
X92264342Y-36214285D02*
X92359580Y-36261904D01*
X92359580Y-36261904D02*
X92407200Y-36309523D01*
X92407200Y-36309523D02*
X92454819Y-36404761D01*
X92454819Y-36404761D02*
X92454819Y-36690475D01*
X92454819Y-36690475D02*
X92407200Y-36785713D01*
X92407200Y-36785713D02*
X92359580Y-36833332D01*
X75533333Y-43284819D02*
X75200000Y-42808628D01*
X74961905Y-43284819D02*
X74961905Y-42284819D01*
X74961905Y-42284819D02*
X75342857Y-42284819D01*
X75342857Y-42284819D02*
X75438095Y-42332438D01*
X75438095Y-42332438D02*
X75485714Y-42380057D01*
X75485714Y-42380057D02*
X75533333Y-42475295D01*
X75533333Y-42475295D02*
X75533333Y-42618152D01*
X75533333Y-42618152D02*
X75485714Y-42713390D01*
X75485714Y-42713390D02*
X75438095Y-42761009D01*
X75438095Y-42761009D02*
X75342857Y-42808628D01*
X75342857Y-42808628D02*
X74961905Y-42808628D01*
X75914286Y-42380057D02*
X75961905Y-42332438D01*
X75961905Y-42332438D02*
X76057143Y-42284819D01*
X76057143Y-42284819D02*
X76295238Y-42284819D01*
X76295238Y-42284819D02*
X76390476Y-42332438D01*
X76390476Y-42332438D02*
X76438095Y-42380057D01*
X76438095Y-42380057D02*
X76485714Y-42475295D01*
X76485714Y-42475295D02*
X76485714Y-42570533D01*
X76485714Y-42570533D02*
X76438095Y-42713390D01*
X76438095Y-42713390D02*
X75866667Y-43284819D01*
X75866667Y-43284819D02*
X76485714Y-43284819D01*
X75533333Y-57654819D02*
X75200000Y-57178628D01*
X74961905Y-57654819D02*
X74961905Y-56654819D01*
X74961905Y-56654819D02*
X75342857Y-56654819D01*
X75342857Y-56654819D02*
X75438095Y-56702438D01*
X75438095Y-56702438D02*
X75485714Y-56750057D01*
X75485714Y-56750057D02*
X75533333Y-56845295D01*
X75533333Y-56845295D02*
X75533333Y-56988152D01*
X75533333Y-56988152D02*
X75485714Y-57083390D01*
X75485714Y-57083390D02*
X75438095Y-57131009D01*
X75438095Y-57131009D02*
X75342857Y-57178628D01*
X75342857Y-57178628D02*
X74961905Y-57178628D01*
X76485714Y-57654819D02*
X75914286Y-57654819D01*
X76200000Y-57654819D02*
X76200000Y-56654819D01*
X76200000Y-56654819D02*
X76104762Y-56797676D01*
X76104762Y-56797676D02*
X76009524Y-56892914D01*
X76009524Y-56892914D02*
X75914286Y-56940533D01*
X109666666Y-55009819D02*
X109666666Y-55724104D01*
X109666666Y-55724104D02*
X109619047Y-55866961D01*
X109619047Y-55866961D02*
X109523809Y-55962200D01*
X109523809Y-55962200D02*
X109380952Y-56009819D01*
X109380952Y-56009819D02*
X109285714Y-56009819D01*
X110095238Y-55105057D02*
X110142857Y-55057438D01*
X110142857Y-55057438D02*
X110238095Y-55009819D01*
X110238095Y-55009819D02*
X110476190Y-55009819D01*
X110476190Y-55009819D02*
X110571428Y-55057438D01*
X110571428Y-55057438D02*
X110619047Y-55105057D01*
X110619047Y-55105057D02*
X110666666Y-55200295D01*
X110666666Y-55200295D02*
X110666666Y-55295533D01*
X110666666Y-55295533D02*
X110619047Y-55438390D01*
X110619047Y-55438390D02*
X110047619Y-56009819D01*
X110047619Y-56009819D02*
X110666666Y-56009819D01*
X71466666Y-43154819D02*
X71466666Y-43869104D01*
X71466666Y-43869104D02*
X71419047Y-44011961D01*
X71419047Y-44011961D02*
X71323809Y-44107200D01*
X71323809Y-44107200D02*
X71180952Y-44154819D01*
X71180952Y-44154819D02*
X71085714Y-44154819D01*
X72466666Y-44154819D02*
X71895238Y-44154819D01*
X72180952Y-44154819D02*
X72180952Y-43154819D01*
X72180952Y-43154819D02*
X72085714Y-43297676D01*
X72085714Y-43297676D02*
X71990476Y-43392914D01*
X71990476Y-43392914D02*
X71895238Y-43440533D01*
X75166666Y-38501009D02*
X74833333Y-38501009D01*
X74833333Y-39024819D02*
X74833333Y-38024819D01*
X74833333Y-38024819D02*
X75309523Y-38024819D01*
X76023809Y-38501009D02*
X76166666Y-38548628D01*
X76166666Y-38548628D02*
X76214285Y-38596247D01*
X76214285Y-38596247D02*
X76261904Y-38691485D01*
X76261904Y-38691485D02*
X76261904Y-38834342D01*
X76261904Y-38834342D02*
X76214285Y-38929580D01*
X76214285Y-38929580D02*
X76166666Y-38977200D01*
X76166666Y-38977200D02*
X76071428Y-39024819D01*
X76071428Y-39024819D02*
X75690476Y-39024819D01*
X75690476Y-39024819D02*
X75690476Y-38024819D01*
X75690476Y-38024819D02*
X76023809Y-38024819D01*
X76023809Y-38024819D02*
X76119047Y-38072438D01*
X76119047Y-38072438D02*
X76166666Y-38120057D01*
X76166666Y-38120057D02*
X76214285Y-38215295D01*
X76214285Y-38215295D02*
X76214285Y-38310533D01*
X76214285Y-38310533D02*
X76166666Y-38405771D01*
X76166666Y-38405771D02*
X76119047Y-38453390D01*
X76119047Y-38453390D02*
X76023809Y-38501009D01*
X76023809Y-38501009D02*
X75690476Y-38501009D01*
X77214285Y-39024819D02*
X76642857Y-39024819D01*
X76928571Y-39024819D02*
X76928571Y-38024819D01*
X76928571Y-38024819D02*
X76833333Y-38167676D01*
X76833333Y-38167676D02*
X76738095Y-38262914D01*
X76738095Y-38262914D02*
X76642857Y-38310533D01*
X79454166Y-38501009D02*
X79120833Y-38501009D01*
X79120833Y-39024819D02*
X79120833Y-38024819D01*
X79120833Y-38024819D02*
X79597023Y-38024819D01*
X80501785Y-39024819D02*
X79930357Y-39024819D01*
X80216071Y-39024819D02*
X80216071Y-38024819D01*
X80216071Y-38024819D02*
X80120833Y-38167676D01*
X80120833Y-38167676D02*
X80025595Y-38262914D01*
X80025595Y-38262914D02*
X79930357Y-38310533D01*
X92454819Y-34738094D02*
X91454819Y-34738094D01*
X91454819Y-34738094D02*
X91454819Y-34499999D01*
X91454819Y-34499999D02*
X91502438Y-34357142D01*
X91502438Y-34357142D02*
X91597676Y-34261904D01*
X91597676Y-34261904D02*
X91692914Y-34214285D01*
X91692914Y-34214285D02*
X91883390Y-34166666D01*
X91883390Y-34166666D02*
X92026247Y-34166666D01*
X92026247Y-34166666D02*
X92216723Y-34214285D01*
X92216723Y-34214285D02*
X92311961Y-34261904D01*
X92311961Y-34261904D02*
X92407200Y-34357142D01*
X92407200Y-34357142D02*
X92454819Y-34499999D01*
X92454819Y-34499999D02*
X92454819Y-34738094D01*
X91550057Y-33785713D02*
X91502438Y-33738094D01*
X91502438Y-33738094D02*
X91454819Y-33642856D01*
X91454819Y-33642856D02*
X91454819Y-33404761D01*
X91454819Y-33404761D02*
X91502438Y-33309523D01*
X91502438Y-33309523D02*
X91550057Y-33261904D01*
X91550057Y-33261904D02*
X91645295Y-33214285D01*
X91645295Y-33214285D02*
X91740533Y-33214285D01*
X91740533Y-33214285D02*
X91883390Y-33261904D01*
X91883390Y-33261904D02*
X92454819Y-33833332D01*
X92454819Y-33833332D02*
X92454819Y-33214285D01*
X99254819Y-34738094D02*
X98254819Y-34738094D01*
X98254819Y-34738094D02*
X98254819Y-34499999D01*
X98254819Y-34499999D02*
X98302438Y-34357142D01*
X98302438Y-34357142D02*
X98397676Y-34261904D01*
X98397676Y-34261904D02*
X98492914Y-34214285D01*
X98492914Y-34214285D02*
X98683390Y-34166666D01*
X98683390Y-34166666D02*
X98826247Y-34166666D01*
X98826247Y-34166666D02*
X99016723Y-34214285D01*
X99016723Y-34214285D02*
X99111961Y-34261904D01*
X99111961Y-34261904D02*
X99207200Y-34357142D01*
X99207200Y-34357142D02*
X99254819Y-34499999D01*
X99254819Y-34499999D02*
X99254819Y-34738094D01*
X99254819Y-33214285D02*
X99254819Y-33785713D01*
X99254819Y-33499999D02*
X98254819Y-33499999D01*
X98254819Y-33499999D02*
X98397676Y-33595237D01*
X98397676Y-33595237D02*
X98492914Y-33690475D01*
X98492914Y-33690475D02*
X98540533Y-33785713D01*
X100157142Y-57559580D02*
X100109523Y-57607200D01*
X100109523Y-57607200D02*
X99966666Y-57654819D01*
X99966666Y-57654819D02*
X99871428Y-57654819D01*
X99871428Y-57654819D02*
X99728571Y-57607200D01*
X99728571Y-57607200D02*
X99633333Y-57511961D01*
X99633333Y-57511961D02*
X99585714Y-57416723D01*
X99585714Y-57416723D02*
X99538095Y-57226247D01*
X99538095Y-57226247D02*
X99538095Y-57083390D01*
X99538095Y-57083390D02*
X99585714Y-56892914D01*
X99585714Y-56892914D02*
X99633333Y-56797676D01*
X99633333Y-56797676D02*
X99728571Y-56702438D01*
X99728571Y-56702438D02*
X99871428Y-56654819D01*
X99871428Y-56654819D02*
X99966666Y-56654819D01*
X99966666Y-56654819D02*
X100109523Y-56702438D01*
X100109523Y-56702438D02*
X100157142Y-56750057D01*
X101109523Y-57654819D02*
X100538095Y-57654819D01*
X100823809Y-57654819D02*
X100823809Y-56654819D01*
X100823809Y-56654819D02*
X100728571Y-56797676D01*
X100728571Y-56797676D02*
X100633333Y-56892914D01*
X100633333Y-56892914D02*
X100538095Y-56940533D01*
X101728571Y-56654819D02*
X101823809Y-56654819D01*
X101823809Y-56654819D02*
X101919047Y-56702438D01*
X101919047Y-56702438D02*
X101966666Y-56750057D01*
X101966666Y-56750057D02*
X102014285Y-56845295D01*
X102014285Y-56845295D02*
X102061904Y-57035771D01*
X102061904Y-57035771D02*
X102061904Y-57273866D01*
X102061904Y-57273866D02*
X102014285Y-57464342D01*
X102014285Y-57464342D02*
X101966666Y-57559580D01*
X101966666Y-57559580D02*
X101919047Y-57607200D01*
X101919047Y-57607200D02*
X101823809Y-57654819D01*
X101823809Y-57654819D02*
X101728571Y-57654819D01*
X101728571Y-57654819D02*
X101633333Y-57607200D01*
X101633333Y-57607200D02*
X101585714Y-57559580D01*
X101585714Y-57559580D02*
X101538095Y-57464342D01*
X101538095Y-57464342D02*
X101490476Y-57273866D01*
X101490476Y-57273866D02*
X101490476Y-57035771D01*
X101490476Y-57035771D02*
X101538095Y-56845295D01*
X101538095Y-56845295D02*
X101585714Y-56750057D01*
X101585714Y-56750057D02*
X101633333Y-56702438D01*
X101633333Y-56702438D02*
X101728571Y-56654819D01*
X105019580Y-53866666D02*
X105067200Y-53914285D01*
X105067200Y-53914285D02*
X105114819Y-54057142D01*
X105114819Y-54057142D02*
X105114819Y-54152380D01*
X105114819Y-54152380D02*
X105067200Y-54295237D01*
X105067200Y-54295237D02*
X104971961Y-54390475D01*
X104971961Y-54390475D02*
X104876723Y-54438094D01*
X104876723Y-54438094D02*
X104686247Y-54485713D01*
X104686247Y-54485713D02*
X104543390Y-54485713D01*
X104543390Y-54485713D02*
X104352914Y-54438094D01*
X104352914Y-54438094D02*
X104257676Y-54390475D01*
X104257676Y-54390475D02*
X104162438Y-54295237D01*
X104162438Y-54295237D02*
X104114819Y-54152380D01*
X104114819Y-54152380D02*
X104114819Y-54057142D01*
X104114819Y-54057142D02*
X104162438Y-53914285D01*
X104162438Y-53914285D02*
X104210057Y-53866666D01*
X105114819Y-53390475D02*
X105114819Y-53199999D01*
X105114819Y-53199999D02*
X105067200Y-53104761D01*
X105067200Y-53104761D02*
X105019580Y-53057142D01*
X105019580Y-53057142D02*
X104876723Y-52961904D01*
X104876723Y-52961904D02*
X104686247Y-52914285D01*
X104686247Y-52914285D02*
X104305295Y-52914285D01*
X104305295Y-52914285D02*
X104210057Y-52961904D01*
X104210057Y-52961904D02*
X104162438Y-53009523D01*
X104162438Y-53009523D02*
X104114819Y-53104761D01*
X104114819Y-53104761D02*
X104114819Y-53295237D01*
X104114819Y-53295237D02*
X104162438Y-53390475D01*
X104162438Y-53390475D02*
X104210057Y-53438094D01*
X104210057Y-53438094D02*
X104305295Y-53485713D01*
X104305295Y-53485713D02*
X104543390Y-53485713D01*
X104543390Y-53485713D02*
X104638628Y-53438094D01*
X104638628Y-53438094D02*
X104686247Y-53390475D01*
X104686247Y-53390475D02*
X104733866Y-53295237D01*
X104733866Y-53295237D02*
X104733866Y-53104761D01*
X104733866Y-53104761D02*
X104686247Y-53009523D01*
X104686247Y-53009523D02*
X104638628Y-52961904D01*
X104638628Y-52961904D02*
X104543390Y-52914285D01*
X99133333Y-49599580D02*
X99085714Y-49647200D01*
X99085714Y-49647200D02*
X98942857Y-49694819D01*
X98942857Y-49694819D02*
X98847619Y-49694819D01*
X98847619Y-49694819D02*
X98704762Y-49647200D01*
X98704762Y-49647200D02*
X98609524Y-49551961D01*
X98609524Y-49551961D02*
X98561905Y-49456723D01*
X98561905Y-49456723D02*
X98514286Y-49266247D01*
X98514286Y-49266247D02*
X98514286Y-49123390D01*
X98514286Y-49123390D02*
X98561905Y-48932914D01*
X98561905Y-48932914D02*
X98609524Y-48837676D01*
X98609524Y-48837676D02*
X98704762Y-48742438D01*
X98704762Y-48742438D02*
X98847619Y-48694819D01*
X98847619Y-48694819D02*
X98942857Y-48694819D01*
X98942857Y-48694819D02*
X99085714Y-48742438D01*
X99085714Y-48742438D02*
X99133333Y-48790057D01*
X99704762Y-49123390D02*
X99609524Y-49075771D01*
X99609524Y-49075771D02*
X99561905Y-49028152D01*
X99561905Y-49028152D02*
X99514286Y-48932914D01*
X99514286Y-48932914D02*
X99514286Y-48885295D01*
X99514286Y-48885295D02*
X99561905Y-48790057D01*
X99561905Y-48790057D02*
X99609524Y-48742438D01*
X99609524Y-48742438D02*
X99704762Y-48694819D01*
X99704762Y-48694819D02*
X99895238Y-48694819D01*
X99895238Y-48694819D02*
X99990476Y-48742438D01*
X99990476Y-48742438D02*
X100038095Y-48790057D01*
X100038095Y-48790057D02*
X100085714Y-48885295D01*
X100085714Y-48885295D02*
X100085714Y-48932914D01*
X100085714Y-48932914D02*
X100038095Y-49028152D01*
X100038095Y-49028152D02*
X99990476Y-49075771D01*
X99990476Y-49075771D02*
X99895238Y-49123390D01*
X99895238Y-49123390D02*
X99704762Y-49123390D01*
X99704762Y-49123390D02*
X99609524Y-49171009D01*
X99609524Y-49171009D02*
X99561905Y-49218628D01*
X99561905Y-49218628D02*
X99514286Y-49313866D01*
X99514286Y-49313866D02*
X99514286Y-49504342D01*
X99514286Y-49504342D02*
X99561905Y-49599580D01*
X99561905Y-49599580D02*
X99609524Y-49647200D01*
X99609524Y-49647200D02*
X99704762Y-49694819D01*
X99704762Y-49694819D02*
X99895238Y-49694819D01*
X99895238Y-49694819D02*
X99990476Y-49647200D01*
X99990476Y-49647200D02*
X100038095Y-49599580D01*
X100038095Y-49599580D02*
X100085714Y-49504342D01*
X100085714Y-49504342D02*
X100085714Y-49313866D01*
X100085714Y-49313866D02*
X100038095Y-49218628D01*
X100038095Y-49218628D02*
X99990476Y-49171009D01*
X99990476Y-49171009D02*
X99895238Y-49123390D01*
X93233333Y-43259580D02*
X93185714Y-43307200D01*
X93185714Y-43307200D02*
X93042857Y-43354819D01*
X93042857Y-43354819D02*
X92947619Y-43354819D01*
X92947619Y-43354819D02*
X92804762Y-43307200D01*
X92804762Y-43307200D02*
X92709524Y-43211961D01*
X92709524Y-43211961D02*
X92661905Y-43116723D01*
X92661905Y-43116723D02*
X92614286Y-42926247D01*
X92614286Y-42926247D02*
X92614286Y-42783390D01*
X92614286Y-42783390D02*
X92661905Y-42592914D01*
X92661905Y-42592914D02*
X92709524Y-42497676D01*
X92709524Y-42497676D02*
X92804762Y-42402438D01*
X92804762Y-42402438D02*
X92947619Y-42354819D01*
X92947619Y-42354819D02*
X93042857Y-42354819D01*
X93042857Y-42354819D02*
X93185714Y-42402438D01*
X93185714Y-42402438D02*
X93233333Y-42450057D01*
X93566667Y-42354819D02*
X94233333Y-42354819D01*
X94233333Y-42354819D02*
X93804762Y-43354819D01*
X93233333Y-44559580D02*
X93185714Y-44607200D01*
X93185714Y-44607200D02*
X93042857Y-44654819D01*
X93042857Y-44654819D02*
X92947619Y-44654819D01*
X92947619Y-44654819D02*
X92804762Y-44607200D01*
X92804762Y-44607200D02*
X92709524Y-44511961D01*
X92709524Y-44511961D02*
X92661905Y-44416723D01*
X92661905Y-44416723D02*
X92614286Y-44226247D01*
X92614286Y-44226247D02*
X92614286Y-44083390D01*
X92614286Y-44083390D02*
X92661905Y-43892914D01*
X92661905Y-43892914D02*
X92709524Y-43797676D01*
X92709524Y-43797676D02*
X92804762Y-43702438D01*
X92804762Y-43702438D02*
X92947619Y-43654819D01*
X92947619Y-43654819D02*
X93042857Y-43654819D01*
X93042857Y-43654819D02*
X93185714Y-43702438D01*
X93185714Y-43702438D02*
X93233333Y-43750057D01*
X94090476Y-43654819D02*
X93900000Y-43654819D01*
X93900000Y-43654819D02*
X93804762Y-43702438D01*
X93804762Y-43702438D02*
X93757143Y-43750057D01*
X93757143Y-43750057D02*
X93661905Y-43892914D01*
X93661905Y-43892914D02*
X93614286Y-44083390D01*
X93614286Y-44083390D02*
X93614286Y-44464342D01*
X93614286Y-44464342D02*
X93661905Y-44559580D01*
X93661905Y-44559580D02*
X93709524Y-44607200D01*
X93709524Y-44607200D02*
X93804762Y-44654819D01*
X93804762Y-44654819D02*
X93995238Y-44654819D01*
X93995238Y-44654819D02*
X94090476Y-44607200D01*
X94090476Y-44607200D02*
X94138095Y-44559580D01*
X94138095Y-44559580D02*
X94185714Y-44464342D01*
X94185714Y-44464342D02*
X94185714Y-44226247D01*
X94185714Y-44226247D02*
X94138095Y-44131009D01*
X94138095Y-44131009D02*
X94090476Y-44083390D01*
X94090476Y-44083390D02*
X93995238Y-44035771D01*
X93995238Y-44035771D02*
X93804762Y-44035771D01*
X93804762Y-44035771D02*
X93709524Y-44083390D01*
X93709524Y-44083390D02*
X93661905Y-44131009D01*
X93661905Y-44131009D02*
X93614286Y-44226247D01*
X86333333Y-44659580D02*
X86285714Y-44707200D01*
X86285714Y-44707200D02*
X86142857Y-44754819D01*
X86142857Y-44754819D02*
X86047619Y-44754819D01*
X86047619Y-44754819D02*
X85904762Y-44707200D01*
X85904762Y-44707200D02*
X85809524Y-44611961D01*
X85809524Y-44611961D02*
X85761905Y-44516723D01*
X85761905Y-44516723D02*
X85714286Y-44326247D01*
X85714286Y-44326247D02*
X85714286Y-44183390D01*
X85714286Y-44183390D02*
X85761905Y-43992914D01*
X85761905Y-43992914D02*
X85809524Y-43897676D01*
X85809524Y-43897676D02*
X85904762Y-43802438D01*
X85904762Y-43802438D02*
X86047619Y-43754819D01*
X86047619Y-43754819D02*
X86142857Y-43754819D01*
X86142857Y-43754819D02*
X86285714Y-43802438D01*
X86285714Y-43802438D02*
X86333333Y-43850057D01*
X87238095Y-43754819D02*
X86761905Y-43754819D01*
X86761905Y-43754819D02*
X86714286Y-44231009D01*
X86714286Y-44231009D02*
X86761905Y-44183390D01*
X86761905Y-44183390D02*
X86857143Y-44135771D01*
X86857143Y-44135771D02*
X87095238Y-44135771D01*
X87095238Y-44135771D02*
X87190476Y-44183390D01*
X87190476Y-44183390D02*
X87238095Y-44231009D01*
X87238095Y-44231009D02*
X87285714Y-44326247D01*
X87285714Y-44326247D02*
X87285714Y-44564342D01*
X87285714Y-44564342D02*
X87238095Y-44659580D01*
X87238095Y-44659580D02*
X87190476Y-44707200D01*
X87190476Y-44707200D02*
X87095238Y-44754819D01*
X87095238Y-44754819D02*
X86857143Y-44754819D01*
X86857143Y-44754819D02*
X86761905Y-44707200D01*
X86761905Y-44707200D02*
X86714286Y-44659580D01*
X86333333Y-46159580D02*
X86285714Y-46207200D01*
X86285714Y-46207200D02*
X86142857Y-46254819D01*
X86142857Y-46254819D02*
X86047619Y-46254819D01*
X86047619Y-46254819D02*
X85904762Y-46207200D01*
X85904762Y-46207200D02*
X85809524Y-46111961D01*
X85809524Y-46111961D02*
X85761905Y-46016723D01*
X85761905Y-46016723D02*
X85714286Y-45826247D01*
X85714286Y-45826247D02*
X85714286Y-45683390D01*
X85714286Y-45683390D02*
X85761905Y-45492914D01*
X85761905Y-45492914D02*
X85809524Y-45397676D01*
X85809524Y-45397676D02*
X85904762Y-45302438D01*
X85904762Y-45302438D02*
X86047619Y-45254819D01*
X86047619Y-45254819D02*
X86142857Y-45254819D01*
X86142857Y-45254819D02*
X86285714Y-45302438D01*
X86285714Y-45302438D02*
X86333333Y-45350057D01*
X86666667Y-45254819D02*
X87285714Y-45254819D01*
X87285714Y-45254819D02*
X86952381Y-45635771D01*
X86952381Y-45635771D02*
X87095238Y-45635771D01*
X87095238Y-45635771D02*
X87190476Y-45683390D01*
X87190476Y-45683390D02*
X87238095Y-45731009D01*
X87238095Y-45731009D02*
X87285714Y-45826247D01*
X87285714Y-45826247D02*
X87285714Y-46064342D01*
X87285714Y-46064342D02*
X87238095Y-46159580D01*
X87238095Y-46159580D02*
X87190476Y-46207200D01*
X87190476Y-46207200D02*
X87095238Y-46254819D01*
X87095238Y-46254819D02*
X86809524Y-46254819D01*
X86809524Y-46254819D02*
X86714286Y-46207200D01*
X86714286Y-46207200D02*
X86666667Y-46159580D01*
X84833333Y-41219580D02*
X84785714Y-41267200D01*
X84785714Y-41267200D02*
X84642857Y-41314819D01*
X84642857Y-41314819D02*
X84547619Y-41314819D01*
X84547619Y-41314819D02*
X84404762Y-41267200D01*
X84404762Y-41267200D02*
X84309524Y-41171961D01*
X84309524Y-41171961D02*
X84261905Y-41076723D01*
X84261905Y-41076723D02*
X84214286Y-40886247D01*
X84214286Y-40886247D02*
X84214286Y-40743390D01*
X84214286Y-40743390D02*
X84261905Y-40552914D01*
X84261905Y-40552914D02*
X84309524Y-40457676D01*
X84309524Y-40457676D02*
X84404762Y-40362438D01*
X84404762Y-40362438D02*
X84547619Y-40314819D01*
X84547619Y-40314819D02*
X84642857Y-40314819D01*
X84642857Y-40314819D02*
X84785714Y-40362438D01*
X84785714Y-40362438D02*
X84833333Y-40410057D01*
X85214286Y-40410057D02*
X85261905Y-40362438D01*
X85261905Y-40362438D02*
X85357143Y-40314819D01*
X85357143Y-40314819D02*
X85595238Y-40314819D01*
X85595238Y-40314819D02*
X85690476Y-40362438D01*
X85690476Y-40362438D02*
X85738095Y-40410057D01*
X85738095Y-40410057D02*
X85785714Y-40505295D01*
X85785714Y-40505295D02*
X85785714Y-40600533D01*
X85785714Y-40600533D02*
X85738095Y-40743390D01*
X85738095Y-40743390D02*
X85166667Y-41314819D01*
X85166667Y-41314819D02*
X85785714Y-41314819D01*
X81959580Y-37166666D02*
X82007200Y-37214285D01*
X82007200Y-37214285D02*
X82054819Y-37357142D01*
X82054819Y-37357142D02*
X82054819Y-37452380D01*
X82054819Y-37452380D02*
X82007200Y-37595237D01*
X82007200Y-37595237D02*
X81911961Y-37690475D01*
X81911961Y-37690475D02*
X81816723Y-37738094D01*
X81816723Y-37738094D02*
X81626247Y-37785713D01*
X81626247Y-37785713D02*
X81483390Y-37785713D01*
X81483390Y-37785713D02*
X81292914Y-37738094D01*
X81292914Y-37738094D02*
X81197676Y-37690475D01*
X81197676Y-37690475D02*
X81102438Y-37595237D01*
X81102438Y-37595237D02*
X81054819Y-37452380D01*
X81054819Y-37452380D02*
X81054819Y-37357142D01*
X81054819Y-37357142D02*
X81102438Y-37214285D01*
X81102438Y-37214285D02*
X81150057Y-37166666D01*
X82054819Y-36214285D02*
X82054819Y-36785713D01*
X82054819Y-36499999D02*
X81054819Y-36499999D01*
X81054819Y-36499999D02*
X81197676Y-36595237D01*
X81197676Y-36595237D02*
X81292914Y-36690475D01*
X81292914Y-36690475D02*
X81340533Y-36785713D01*
%TO.C,C4*%
D12*
X97507836Y-54040000D02*
X97292164Y-54040000D01*
X97507836Y-54760000D02*
X97292164Y-54760000D01*
%TO.C,Y1*%
X98790000Y-52040000D02*
X98790000Y-55360000D01*
X98790000Y-55360000D02*
X102810000Y-55360000D01*
%TO.C,U3*%
X96610000Y-53610000D02*
X96310000Y-53610000D01*
X96610000Y-53310000D02*
X96610000Y-53610000D01*
X96610000Y-46390000D02*
X96610000Y-46690000D01*
X96310000Y-46390000D02*
X96610000Y-46390000D01*
X89690000Y-53610000D02*
X89390000Y-53610000D01*
X89390000Y-53610000D02*
X89390000Y-53310000D01*
X89390000Y-46690000D02*
X89390000Y-46390000D01*
X89390000Y-46390000D02*
X89690000Y-46390000D01*
X97250000Y-53320000D02*
X97590000Y-53790000D01*
X96910000Y-53790000D01*
X97250000Y-53320000D01*
G36*
X97590000Y-53790000D02*
G01*
X96910000Y-53790000D01*
X97250000Y-53320000D01*
X97590000Y-53790000D01*
G37*
%TO.C,U2*%
X83440000Y-37910000D02*
X83440000Y-36090000D01*
X83490000Y-37910000D02*
X83440000Y-37910000D01*
X85390000Y-37910000D02*
X84610000Y-37910000D01*
X86560000Y-37910000D02*
X86510000Y-37910000D01*
X83440000Y-36090000D02*
X84440000Y-36090000D01*
X85560000Y-36090000D02*
X86560000Y-36090000D01*
X86560000Y-36090000D02*
X86560000Y-37910000D01*
X84620000Y-38450000D02*
X84950000Y-38210000D01*
X84950000Y-38690000D01*
X84620000Y-38450000D01*
G36*
X84950000Y-38690000D02*
G01*
X84620000Y-38450000D01*
X84950000Y-38210000D01*
X84950000Y-38690000D01*
G37*
%TO.C,U1*%
X81090000Y-48440000D02*
X82910000Y-48440000D01*
X81090000Y-48490000D02*
X81090000Y-48440000D01*
X81090000Y-51560000D02*
X81090000Y-51510000D01*
X82910000Y-48440000D02*
X82910000Y-48490000D01*
X82910000Y-51510000D02*
X82910000Y-51560000D01*
X82910000Y-51560000D02*
X81090000Y-51560000D01*
X80550000Y-48490000D02*
X80310000Y-48160000D01*
X80790000Y-48160000D01*
X80550000Y-48490000D01*
G36*
X80550000Y-48490000D02*
G01*
X80310000Y-48160000D01*
X80790000Y-48160000D01*
X80550000Y-48490000D01*
G37*
%TO.C,R4*%
X96620000Y-37153641D02*
X96620000Y-36846359D01*
X97380000Y-37153641D02*
X97380000Y-36846359D01*
%TO.C,R3*%
X93620000Y-37153641D02*
X93620000Y-36846359D01*
X94380000Y-37153641D02*
X94380000Y-36846359D01*
%TO.C,R2*%
X75546359Y-43620000D02*
X75853641Y-43620000D01*
X75546359Y-44380000D02*
X75853641Y-44380000D01*
%TO.C,R1*%
X75546359Y-55620000D02*
X75853641Y-55620000D01*
X75546359Y-56380000D02*
X75853641Y-56380000D01*
%TO.C,J2*%
X113090000Y-54490000D02*
X111815000Y-54490000D01*
X111815000Y-54555000D02*
X111815000Y-54490000D01*
X111815000Y-54555000D02*
X108185000Y-54555000D01*
X111815000Y-45510000D02*
X111815000Y-45445000D01*
X111815000Y-45445000D02*
X108185000Y-45445000D01*
X108185000Y-54555000D02*
X108185000Y-54490000D01*
X108185000Y-45510000D02*
X108185000Y-45445000D01*
%TO.C,J1*%
X73800000Y-45330000D02*
X75500000Y-45330000D01*
X73800000Y-54670000D02*
X75500000Y-54670000D01*
%TO.C,FB1*%
X75837221Y-39490000D02*
X76162779Y-39490000D01*
X75837221Y-40510000D02*
X76162779Y-40510000D01*
%TO.C,F1*%
X79624721Y-39490000D02*
X79950279Y-39490000D01*
X79624721Y-40510000D02*
X79950279Y-40510000D01*
%TO.C,D2*%
X94735000Y-32515000D02*
X93265000Y-32515000D01*
X93265000Y-32515000D02*
X93265000Y-34800000D01*
X94735000Y-34800000D02*
X94735000Y-32515000D01*
%TO.C,D1*%
X97735000Y-32515000D02*
X96265000Y-32515000D01*
X96265000Y-32515000D02*
X96265000Y-34800000D01*
X97735000Y-34800000D02*
X97735000Y-32515000D01*
%TO.C,C10*%
X100692164Y-55640000D02*
X100907836Y-55640000D01*
X100692164Y-56360000D02*
X100907836Y-56360000D01*
%TO.C,C9*%
X103860000Y-53592164D02*
X103860000Y-53807836D01*
X103140000Y-53592164D02*
X103140000Y-53807836D01*
%TO.C,C8*%
X99192164Y-50040000D02*
X99407836Y-50040000D01*
X99192164Y-50760000D02*
X99407836Y-50760000D01*
%TO.C,C7*%
X91292164Y-42840000D02*
X91507836Y-42840000D01*
X91292164Y-43560000D02*
X91507836Y-43560000D01*
%TO.C,C6*%
X91292164Y-43840000D02*
X91507836Y-43840000D01*
X91292164Y-44560000D02*
X91507836Y-44560000D01*
%TO.C,C5*%
X88492164Y-44240000D02*
X88707836Y-44240000D01*
X88492164Y-44960000D02*
X88707836Y-44960000D01*
%TO.C,C3*%
X88492164Y-45240000D02*
X88707836Y-45240000D01*
X88492164Y-45960000D02*
X88707836Y-45960000D01*
%TO.C,C2*%
X85107836Y-40060000D02*
X84892164Y-40060000D01*
X85107836Y-39340000D02*
X84892164Y-39340000D01*
%TO.C,C1*%
X82340000Y-36892164D02*
X82340000Y-37107836D01*
X83060000Y-36892164D02*
X83060000Y-37107836D01*
%TD*%
M02*
