%TF.GenerationSoftware,KiCad,Pcbnew,10.0.6*%
%TF.CreationDate,2026-09-18T11:43:59+02:00*%
%TF.ProjectId,kicad_td,6b696361-645f-4746-942e-6b696361645f,rev?*%
%TF.SameCoordinates,Original*%
%TF.FileFunction,Copper,L4,Bot*%
%TF.FilePolarity,Positive*%
%FSLAX46Y46*%
G04 Gerber Fmt 4.6, Leading zero omitted, Abs format (unit mm)*
G04 Created by KiCad (PCBNEW 10.0.6) date 2026-09-18 11:43:59*
%MOMM*%
%LPD*%
G01*
G04 APERTURE LIST*
%TA.AperFunction,ComponentPad*%
%ADD10C,0.800000*%
%TD*%
%TA.AperFunction,ComponentPad*%
%ADD11C,6.400000*%
%TD*%
%TA.AperFunction,ComponentPad*%
%ADD12O,2.100000X1.000000*%
%TD*%
%TA.AperFunction,ComponentPad*%
%ADD13O,1.800000X1.000000*%
%TD*%
%TA.AperFunction,ViaPad*%
%ADD14C,0.450000*%
%TD*%
G04 APERTURE END LIST*
D10*
%TO.P,H4,1,1_1*%
%TO.N,GND*%
X113600000Y-66000000D03*
X114302944Y-64302944D03*
X114302944Y-67697056D03*
X116000000Y-63600000D03*
D11*
X116000000Y-66000000D03*
D10*
X116000000Y-68400000D03*
X117697056Y-64302944D03*
X117697056Y-67697056D03*
X118400000Y-66000000D03*
%TD*%
%TO.P,H3,1,1_1*%
%TO.N,GND*%
X71600000Y-66000000D03*
X72302944Y-64302944D03*
X72302944Y-67697056D03*
X74000000Y-63600000D03*
D11*
X74000000Y-66000000D03*
D10*
X74000000Y-68400000D03*
X75697056Y-64302944D03*
X75697056Y-67697056D03*
X76400000Y-66000000D03*
%TD*%
%TO.P,H2,1,1_1*%
%TO.N,GND*%
X113600000Y-34000000D03*
X114302944Y-32302944D03*
X114302944Y-35697056D03*
X116000000Y-31600000D03*
D11*
X116000000Y-34000000D03*
D10*
X116000000Y-36400000D03*
X117697056Y-32302944D03*
X117697056Y-35697056D03*
X118400000Y-34000000D03*
%TD*%
%TO.P,H1,1,1_1*%
%TO.N,GND*%
X71600000Y-34000000D03*
X72302944Y-32302944D03*
X72302944Y-35697056D03*
X74000000Y-31600000D03*
D11*
X74000000Y-34000000D03*
D10*
X74000000Y-36400000D03*
X75697056Y-32302944D03*
X75697056Y-35697056D03*
X76400000Y-34000000D03*
%TD*%
D12*
%TO.P,J1,SH,SHIELD_SH*%
%TO.N,GND*%
X76805000Y-45680000D03*
D13*
X72625000Y-45680000D03*
D12*
X76805000Y-54320000D03*
D13*
X72625000Y-54320000D03*
%TD*%
D14*
%TO.N,GND*%
X91300000Y-57600000D03*
X85800000Y-51600000D03*
X78900000Y-49800000D03*
X82000000Y-49300000D03*
%TO.N,VBUS*%
X74500000Y-40000000D03*
X82200000Y-50000000D03*
X78200000Y-52400000D03*
X78200000Y-47600000D03*
%TO.N,+5V*%
X81400000Y-40000000D03*
X82700000Y-36000000D03*
X85000000Y-36800000D03*
%TO.N,+3.3V*%
X94000000Y-38000000D03*
X85750000Y-39150000D03*
X88120000Y-45100000D03*
X88500000Y-46400000D03*
X91000000Y-44800000D03*
X91000000Y-43700000D03*
X97500000Y-53500000D03*
X113400000Y-52500000D03*
%TO.N,GND*%
X100300000Y-50400000D03*
X84100000Y-39100000D03*
X83100000Y-38137500D03*
X89080000Y-45100000D03*
X89600000Y-45600000D03*
X91800000Y-43700000D03*
X91800000Y-44800000D03*
X95500000Y-33212500D03*
X113400000Y-47500000D03*
X111950000Y-50600000D03*
X101900000Y-55380000D03*
X103080000Y-54600000D03*
X100800000Y-53700000D03*
X96300000Y-54400000D03*
X76700000Y-56000000D03*
X80000000Y-50000000D03*
X78200000Y-46800000D03*
X78200000Y-53200000D03*
X76700000Y-44000000D03*
%TD*%
%TA.AperFunction,Conductor*%
%TO.N,GND*%
G36*
X116002421Y-30500619D02*
G01*
X116031158Y-30502030D01*
X116338173Y-30517113D01*
X116347815Y-30518063D01*
X116677915Y-30567029D01*
X116687421Y-30568919D01*
X117011144Y-30650008D01*
X117020415Y-30652820D01*
X117334625Y-30765246D01*
X117343594Y-30768961D01*
X117645263Y-30911640D01*
X117653826Y-30916218D01*
X117940049Y-31087773D01*
X117948127Y-31093171D01*
X118216150Y-31291951D01*
X118223660Y-31298114D01*
X118470921Y-31522218D01*
X118477781Y-31529078D01*
X118603484Y-31667770D01*
X118701885Y-31776339D01*
X118708048Y-31783849D01*
X118906828Y-32051872D01*
X118912226Y-32059950D01*
X119083781Y-32346173D01*
X119088361Y-32354741D01*
X119231036Y-32656402D01*
X119234754Y-32665378D01*
X119347175Y-32979571D01*
X119349995Y-32988868D01*
X119431077Y-33312567D01*
X119432972Y-33322096D01*
X119481934Y-33652170D01*
X119482887Y-33661838D01*
X119499381Y-33997577D01*
X119499500Y-34002435D01*
X119499500Y-65997564D01*
X119499381Y-66002422D01*
X119482887Y-66338161D01*
X119481934Y-66347829D01*
X119432972Y-66677903D01*
X119431077Y-66687432D01*
X119349995Y-67011131D01*
X119347175Y-67020428D01*
X119234754Y-67334621D01*
X119231036Y-67343597D01*
X119088361Y-67645258D01*
X119083781Y-67653826D01*
X118912226Y-67940049D01*
X118906828Y-67948127D01*
X118708048Y-68216150D01*
X118701885Y-68223660D01*
X118477786Y-68470916D01*
X118470916Y-68477786D01*
X118223660Y-68701885D01*
X118216150Y-68708048D01*
X117948127Y-68906828D01*
X117940049Y-68912226D01*
X117653826Y-69083781D01*
X117645258Y-69088361D01*
X117343597Y-69231036D01*
X117334621Y-69234754D01*
X117020428Y-69347175D01*
X117011131Y-69349995D01*
X116687432Y-69431077D01*
X116677903Y-69432972D01*
X116347829Y-69481934D01*
X116338161Y-69482887D01*
X116002422Y-69499381D01*
X115997564Y-69499500D01*
X74002436Y-69499500D01*
X73997578Y-69499381D01*
X73661838Y-69482887D01*
X73652170Y-69481934D01*
X73322096Y-69432972D01*
X73312567Y-69431077D01*
X72988868Y-69349995D01*
X72979571Y-69347175D01*
X72665378Y-69234754D01*
X72656402Y-69231036D01*
X72354741Y-69088361D01*
X72346173Y-69083781D01*
X72059950Y-68912226D01*
X72051872Y-68906828D01*
X71783849Y-68708048D01*
X71776339Y-68701885D01*
X71529083Y-68477786D01*
X71522218Y-68470921D01*
X71298114Y-68223660D01*
X71291951Y-68216150D01*
X71093171Y-67948127D01*
X71087773Y-67940049D01*
X70958223Y-67723908D01*
X70916216Y-67653823D01*
X70911638Y-67645258D01*
X70768963Y-67343597D01*
X70765245Y-67334621D01*
X70652820Y-67020415D01*
X70650008Y-67011144D01*
X70568919Y-66687421D01*
X70567029Y-66677915D01*
X70518063Y-66347815D01*
X70517113Y-66338173D01*
X70500619Y-66002421D01*
X70500500Y-65997564D01*
X70500500Y-54220000D01*
X71531177Y-54220000D01*
X71941212Y-54220000D01*
X71925000Y-54280504D01*
X71925000Y-54359496D01*
X71941212Y-54420000D01*
X71531178Y-54420000D01*
X71551901Y-54524181D01*
X71551901Y-54524183D01*
X71604666Y-54651571D01*
X71681271Y-54766220D01*
X71778779Y-54863728D01*
X71893428Y-54940333D01*
X72020816Y-54993098D01*
X72156055Y-55019999D01*
X72156057Y-55020000D01*
X72524999Y-55020000D01*
X72525000Y-55019999D01*
X72525000Y-54620000D01*
X72725000Y-54620000D01*
X72725000Y-55019999D01*
X72725001Y-55020000D01*
X73093943Y-55020000D01*
X73093944Y-55019999D01*
X73229183Y-54993098D01*
X73356571Y-54940333D01*
X73471220Y-54863728D01*
X73568728Y-54766220D01*
X73645333Y-54651571D01*
X73698098Y-54524183D01*
X73698098Y-54524181D01*
X73718822Y-54420000D01*
X73308788Y-54420000D01*
X73325000Y-54359496D01*
X73325000Y-54280504D01*
X73308788Y-54220000D01*
X73718822Y-54220000D01*
X75561177Y-54220000D01*
X75971212Y-54220000D01*
X75955000Y-54280504D01*
X75955000Y-54359496D01*
X75971212Y-54420000D01*
X75561178Y-54420000D01*
X75581901Y-54524181D01*
X75581901Y-54524183D01*
X75634666Y-54651571D01*
X75711271Y-54766220D01*
X75808779Y-54863728D01*
X75923428Y-54940333D01*
X76050816Y-54993098D01*
X76186055Y-55019999D01*
X76186057Y-55020000D01*
X76704999Y-55020000D01*
X76705000Y-55019999D01*
X76705000Y-54620000D01*
X76905000Y-54620000D01*
X76905000Y-55019999D01*
X76905001Y-55020000D01*
X77423943Y-55020000D01*
X77423944Y-55019999D01*
X77559183Y-54993098D01*
X77686571Y-54940333D01*
X77801220Y-54863728D01*
X77898728Y-54766220D01*
X77975333Y-54651571D01*
X78028098Y-54524183D01*
X78028098Y-54524181D01*
X78048822Y-54420000D01*
X77638788Y-54420000D01*
X77655000Y-54359496D01*
X77655000Y-54280504D01*
X77638788Y-54220000D01*
X78048822Y-54220000D01*
X78028098Y-54115818D01*
X78028098Y-54115816D01*
X77975333Y-53988428D01*
X77898728Y-53873779D01*
X77801220Y-53776271D01*
X77686571Y-53699666D01*
X77559183Y-53646901D01*
X77423944Y-53620000D01*
X76905001Y-53620000D01*
X76905000Y-53620001D01*
X76905000Y-54020000D01*
X76705000Y-54020000D01*
X76705000Y-53620001D01*
X76704999Y-53620000D01*
X76186055Y-53620000D01*
X76050816Y-53646901D01*
X75923428Y-53699666D01*
X75808779Y-53776271D01*
X75711271Y-53873779D01*
X75634666Y-53988428D01*
X75581901Y-54115816D01*
X75581901Y-54115818D01*
X75561177Y-54220000D01*
X73718822Y-54220000D01*
X73698098Y-54115818D01*
X73698098Y-54115816D01*
X73645333Y-53988428D01*
X73568728Y-53873779D01*
X73471220Y-53776271D01*
X73356571Y-53699666D01*
X73229183Y-53646901D01*
X73093944Y-53620000D01*
X72725001Y-53620000D01*
X72725000Y-53620001D01*
X72725000Y-54020000D01*
X72525000Y-54020000D01*
X72525000Y-53620001D01*
X72524999Y-53620000D01*
X72156055Y-53620000D01*
X72020816Y-53646901D01*
X71893428Y-53699666D01*
X71778779Y-53776271D01*
X71681271Y-53873779D01*
X71604666Y-53988428D01*
X71551901Y-54115816D01*
X71551901Y-54115818D01*
X71531177Y-54220000D01*
X70500500Y-54220000D01*
X70500500Y-53443982D01*
X97074500Y-53443982D01*
X97074500Y-53556018D01*
X97091644Y-53620000D01*
X97103498Y-53664241D01*
X97159513Y-53761260D01*
X97159515Y-53761263D01*
X97238737Y-53840485D01*
X97238739Y-53840486D01*
X97335759Y-53896501D01*
X97335757Y-53896501D01*
X97335761Y-53896502D01*
X97335763Y-53896503D01*
X97443982Y-53925500D01*
X97443984Y-53925500D01*
X97556016Y-53925500D01*
X97556018Y-53925500D01*
X97664237Y-53896503D01*
X97664239Y-53896501D01*
X97664241Y-53896501D01*
X97703596Y-53873779D01*
X97761263Y-53840485D01*
X97840485Y-53761263D01*
X97896503Y-53664237D01*
X97925500Y-53556018D01*
X97925500Y-53443982D01*
X97896503Y-53335763D01*
X97896501Y-53335760D01*
X97896501Y-53335758D01*
X97840486Y-53238739D01*
X97840485Y-53238737D01*
X97761263Y-53159515D01*
X97761260Y-53159513D01*
X97664240Y-53103498D01*
X97664242Y-53103498D01*
X97622251Y-53092247D01*
X97556018Y-53074500D01*
X97443982Y-53074500D01*
X97377748Y-53092247D01*
X97335758Y-53103498D01*
X97238739Y-53159513D01*
X97159513Y-53238739D01*
X97103498Y-53335758D01*
X97096721Y-53361051D01*
X97074500Y-53443982D01*
X70500500Y-53443982D01*
X70500500Y-52823450D01*
X75799500Y-52823450D01*
X75799500Y-52956550D01*
X75829880Y-53069930D01*
X75833950Y-53085120D01*
X75876903Y-53159515D01*
X75900499Y-53200384D01*
X75994616Y-53294501D01*
X75994618Y-53294502D01*
X76109880Y-53361049D01*
X76109878Y-53361049D01*
X76109882Y-53361050D01*
X76109884Y-53361051D01*
X76238450Y-53395500D01*
X76238452Y-53395500D01*
X76371548Y-53395500D01*
X76371550Y-53395500D01*
X76500116Y-53361051D01*
X76500118Y-53361049D01*
X76500120Y-53361049D01*
X76516215Y-53351757D01*
X76566742Y-53322584D01*
X76615384Y-53294501D01*
X76709501Y-53200384D01*
X76776051Y-53085116D01*
X76810500Y-52956550D01*
X76810500Y-52823450D01*
X76776051Y-52694884D01*
X76776049Y-52694881D01*
X76776049Y-52694879D01*
X76709502Y-52579618D01*
X76709501Y-52579616D01*
X76615384Y-52485499D01*
X76588851Y-52470180D01*
X76507530Y-52423229D01*
X76507529Y-52423228D01*
X76500119Y-52418950D01*
X76500116Y-52418949D01*
X76371550Y-52384500D01*
X76238450Y-52384500D01*
X76159764Y-52405583D01*
X76109879Y-52418950D01*
X75994618Y-52485497D01*
X75900497Y-52579618D01*
X75833950Y-52694879D01*
X75833949Y-52694884D01*
X75799500Y-52823450D01*
X70500500Y-52823450D01*
X70500500Y-52343982D01*
X77774500Y-52343982D01*
X77774500Y-52456018D01*
X77800072Y-52551455D01*
X77803498Y-52564241D01*
X77859513Y-52661260D01*
X77859515Y-52661263D01*
X77938737Y-52740485D01*
X77938739Y-52740486D01*
X78035759Y-52796501D01*
X78035757Y-52796501D01*
X78035761Y-52796502D01*
X78035763Y-52796503D01*
X78143982Y-52825500D01*
X78143984Y-52825500D01*
X78256016Y-52825500D01*
X78256018Y-52825500D01*
X78364237Y-52796503D01*
X78364239Y-52796501D01*
X78364241Y-52796501D01*
X78425274Y-52761263D01*
X78461263Y-52740485D01*
X78540485Y-52661263D01*
X78596503Y-52564237D01*
X78625500Y-52456018D01*
X78625500Y-52443982D01*
X112974500Y-52443982D01*
X112974500Y-52556018D01*
X112980823Y-52579616D01*
X113003498Y-52664241D01*
X113047519Y-52740486D01*
X113059515Y-52761263D01*
X113138737Y-52840485D01*
X113138739Y-52840486D01*
X113235759Y-52896501D01*
X113235757Y-52896501D01*
X113235761Y-52896502D01*
X113235763Y-52896503D01*
X113343982Y-52925500D01*
X113343984Y-52925500D01*
X113456016Y-52925500D01*
X113456018Y-52925500D01*
X113564237Y-52896503D01*
X113564239Y-52896501D01*
X113564241Y-52896501D01*
X113593064Y-52879859D01*
X113661263Y-52840485D01*
X113740485Y-52761263D01*
X113796503Y-52664237D01*
X113825500Y-52556018D01*
X113825500Y-52443982D01*
X113796503Y-52335763D01*
X113796501Y-52335760D01*
X113796501Y-52335758D01*
X113740486Y-52238739D01*
X113740485Y-52238737D01*
X113661263Y-52159515D01*
X113661260Y-52159513D01*
X113564240Y-52103498D01*
X113564242Y-52103498D01*
X113522251Y-52092247D01*
X113456018Y-52074500D01*
X113343982Y-52074500D01*
X113277748Y-52092247D01*
X113235758Y-52103498D01*
X113138739Y-52159513D01*
X113059513Y-52238739D01*
X113003498Y-52335758D01*
X113001294Y-52343983D01*
X112974500Y-52443982D01*
X78625500Y-52443982D01*
X78625500Y-52343982D01*
X78596503Y-52235763D01*
X78596501Y-52235760D01*
X78596501Y-52235758D01*
X78540486Y-52138739D01*
X78540485Y-52138737D01*
X78461263Y-52059515D01*
X78461260Y-52059513D01*
X78364240Y-52003498D01*
X78364242Y-52003498D01*
X78322251Y-51992247D01*
X78256018Y-51974500D01*
X78143982Y-51974500D01*
X78077748Y-51992247D01*
X78035758Y-52003498D01*
X77938739Y-52059513D01*
X77859513Y-52138739D01*
X77803498Y-52235758D01*
X77787286Y-52296263D01*
X77774500Y-52343982D01*
X70500500Y-52343982D01*
X70500500Y-49943982D01*
X81774500Y-49943982D01*
X81774500Y-50056018D01*
X81800072Y-50151455D01*
X81803498Y-50164241D01*
X81859513Y-50261260D01*
X81859515Y-50261263D01*
X81938737Y-50340485D01*
X81938739Y-50340486D01*
X82035759Y-50396501D01*
X82035757Y-50396501D01*
X82035761Y-50396502D01*
X82035763Y-50396503D01*
X82143982Y-50425500D01*
X82143984Y-50425500D01*
X82256016Y-50425500D01*
X82256018Y-50425500D01*
X82364237Y-50396503D01*
X82364239Y-50396501D01*
X82364241Y-50396501D01*
X82393064Y-50379859D01*
X82461263Y-50340485D01*
X82540485Y-50261263D01*
X82596503Y-50164237D01*
X82625500Y-50056018D01*
X82625500Y-49943982D01*
X82596503Y-49835763D01*
X82596501Y-49835760D01*
X82596501Y-49835758D01*
X82540486Y-49738739D01*
X82540485Y-49738737D01*
X82461263Y-49659515D01*
X82461260Y-49659513D01*
X82364240Y-49603498D01*
X82364242Y-49603498D01*
X82322251Y-49592247D01*
X82256018Y-49574500D01*
X82143982Y-49574500D01*
X82077748Y-49592247D01*
X82035758Y-49603498D01*
X81938739Y-49659513D01*
X81859513Y-49738739D01*
X81803498Y-49835758D01*
X81803497Y-49835763D01*
X81774500Y-49943982D01*
X70500500Y-49943982D01*
X70500500Y-47043450D01*
X75799500Y-47043450D01*
X75799500Y-47176550D01*
X75806721Y-47203498D01*
X75833950Y-47305120D01*
X75900497Y-47420381D01*
X75900499Y-47420384D01*
X75994616Y-47514501D01*
X75994618Y-47514502D01*
X76109880Y-47581049D01*
X76109878Y-47581049D01*
X76109882Y-47581050D01*
X76109884Y-47581051D01*
X76238450Y-47615500D01*
X76238452Y-47615500D01*
X76371548Y-47615500D01*
X76371550Y-47615500D01*
X76500116Y-47581051D01*
X76500118Y-47581049D01*
X76500120Y-47581049D01*
X76534362Y-47561278D01*
X76564320Y-47543982D01*
X77774500Y-47543982D01*
X77774500Y-47656018D01*
X77800072Y-47751455D01*
X77803498Y-47764241D01*
X77859513Y-47861260D01*
X77859515Y-47861263D01*
X77938737Y-47940485D01*
X77938739Y-47940486D01*
X78035759Y-47996501D01*
X78035757Y-47996501D01*
X78035761Y-47996502D01*
X78035763Y-47996503D01*
X78143982Y-48025500D01*
X78143984Y-48025500D01*
X78256016Y-48025500D01*
X78256018Y-48025500D01*
X78364237Y-47996503D01*
X78364239Y-47996501D01*
X78364241Y-47996501D01*
X78393064Y-47979859D01*
X78461263Y-47940485D01*
X78540485Y-47861263D01*
X78596503Y-47764237D01*
X78625500Y-47656018D01*
X78625500Y-47543982D01*
X78596503Y-47435763D01*
X78596501Y-47435760D01*
X78596501Y-47435758D01*
X78540486Y-47338739D01*
X78540485Y-47338737D01*
X78461263Y-47259515D01*
X78461260Y-47259513D01*
X78364240Y-47203498D01*
X78364242Y-47203498D01*
X78322251Y-47192247D01*
X78256018Y-47174500D01*
X78143982Y-47174500D01*
X78077748Y-47192247D01*
X78035758Y-47203498D01*
X77938739Y-47259513D01*
X77859513Y-47338739D01*
X77803498Y-47435758D01*
X77803497Y-47435763D01*
X77774500Y-47543982D01*
X76564320Y-47543982D01*
X76615384Y-47514501D01*
X76709501Y-47420384D01*
X76776051Y-47305116D01*
X76810500Y-47176550D01*
X76810500Y-47043450D01*
X76776051Y-46914884D01*
X76776049Y-46914881D01*
X76776049Y-46914879D01*
X76709502Y-46799618D01*
X76709501Y-46799616D01*
X76615384Y-46705499D01*
X76615381Y-46705497D01*
X76500119Y-46638950D01*
X76500121Y-46638950D01*
X76450235Y-46625583D01*
X76371550Y-46604500D01*
X76238450Y-46604500D01*
X76159764Y-46625583D01*
X76109879Y-46638950D01*
X75994618Y-46705497D01*
X75900497Y-46799618D01*
X75833950Y-46914879D01*
X75833949Y-46914884D01*
X75799500Y-47043450D01*
X70500500Y-47043450D01*
X70500500Y-45580000D01*
X71531177Y-45580000D01*
X71941212Y-45580000D01*
X71925000Y-45640504D01*
X71925000Y-45719496D01*
X71941212Y-45780000D01*
X71531178Y-45780000D01*
X71551901Y-45884181D01*
X71551901Y-45884183D01*
X71604666Y-46011571D01*
X71681271Y-46126220D01*
X71778779Y-46223728D01*
X71893428Y-46300333D01*
X72020816Y-46353098D01*
X72156055Y-46379999D01*
X72156057Y-46380000D01*
X72524999Y-46380000D01*
X72525000Y-46379999D01*
X72525000Y-45980000D01*
X72725000Y-45980000D01*
X72725000Y-46379999D01*
X72725001Y-46380000D01*
X73093943Y-46380000D01*
X73093944Y-46379999D01*
X73229183Y-46353098D01*
X73356571Y-46300333D01*
X73471220Y-46223728D01*
X73568728Y-46126220D01*
X73645333Y-46011571D01*
X73698098Y-45884183D01*
X73698098Y-45884181D01*
X73718822Y-45780000D01*
X73308788Y-45780000D01*
X73325000Y-45719496D01*
X73325000Y-45640504D01*
X73308788Y-45580000D01*
X73718822Y-45580000D01*
X75561177Y-45580000D01*
X75971212Y-45580000D01*
X75955000Y-45640504D01*
X75955000Y-45719496D01*
X75971212Y-45780000D01*
X75561178Y-45780000D01*
X75581901Y-45884181D01*
X75581901Y-45884183D01*
X75634666Y-46011571D01*
X75711271Y-46126220D01*
X75808779Y-46223728D01*
X75923428Y-46300333D01*
X76050816Y-46353098D01*
X76186055Y-46379999D01*
X76186057Y-46380000D01*
X76704999Y-46380000D01*
X76705000Y-46379999D01*
X76705000Y-45980000D01*
X76905000Y-45980000D01*
X76905000Y-46379999D01*
X76905001Y-46380000D01*
X77423943Y-46380000D01*
X77423944Y-46379999D01*
X77559183Y-46353098D01*
X77581191Y-46343982D01*
X88074500Y-46343982D01*
X88074500Y-46456018D01*
X88100072Y-46551455D01*
X88103498Y-46564241D01*
X88159513Y-46661260D01*
X88159515Y-46661263D01*
X88238737Y-46740485D01*
X88238739Y-46740486D01*
X88335759Y-46796501D01*
X88335757Y-46796501D01*
X88335761Y-46796502D01*
X88335763Y-46796503D01*
X88443982Y-46825500D01*
X88443984Y-46825500D01*
X88556016Y-46825500D01*
X88556018Y-46825500D01*
X88664237Y-46796503D01*
X88664239Y-46796501D01*
X88664241Y-46796501D01*
X88693064Y-46779859D01*
X88761263Y-46740485D01*
X88840485Y-46661263D01*
X88896503Y-46564237D01*
X88925500Y-46456018D01*
X88925500Y-46343982D01*
X88896503Y-46235763D01*
X88896501Y-46235760D01*
X88896501Y-46235758D01*
X88840486Y-46138739D01*
X88840485Y-46138737D01*
X88761263Y-46059515D01*
X88761260Y-46059513D01*
X88664240Y-46003498D01*
X88664242Y-46003498D01*
X88622251Y-45992247D01*
X88556018Y-45974500D01*
X88443982Y-45974500D01*
X88377748Y-45992247D01*
X88335758Y-46003498D01*
X88238739Y-46059513D01*
X88159513Y-46138739D01*
X88103498Y-46235758D01*
X88103497Y-46235763D01*
X88074500Y-46343982D01*
X77581191Y-46343982D01*
X77686571Y-46300333D01*
X77754154Y-46255177D01*
X77801220Y-46223728D01*
X77898728Y-46126220D01*
X77975333Y-46011571D01*
X78028098Y-45884183D01*
X78028098Y-45884181D01*
X78048822Y-45780000D01*
X77638788Y-45780000D01*
X77655000Y-45719496D01*
X77655000Y-45640504D01*
X77638788Y-45580000D01*
X78048822Y-45580000D01*
X78028098Y-45475818D01*
X78028098Y-45475816D01*
X77975333Y-45348428D01*
X77898728Y-45233779D01*
X77801220Y-45136271D01*
X77776582Y-45119809D01*
X77686571Y-45059666D01*
X77648706Y-45043982D01*
X87694500Y-45043982D01*
X87694500Y-45156018D01*
X87705348Y-45196503D01*
X87723498Y-45264241D01*
X87779513Y-45361260D01*
X87779515Y-45361263D01*
X87858737Y-45440485D01*
X87858739Y-45440486D01*
X87955759Y-45496501D01*
X87955757Y-45496501D01*
X87955761Y-45496502D01*
X87955763Y-45496503D01*
X88063982Y-45525500D01*
X88063984Y-45525500D01*
X88176016Y-45525500D01*
X88176018Y-45525500D01*
X88284237Y-45496503D01*
X88284239Y-45496501D01*
X88284241Y-45496501D01*
X88320068Y-45475816D01*
X88381263Y-45440485D01*
X88460485Y-45361263D01*
X88516503Y-45264237D01*
X88545500Y-45156018D01*
X88545500Y-45043982D01*
X88516503Y-44935763D01*
X88516501Y-44935760D01*
X88516501Y-44935758D01*
X88460486Y-44838739D01*
X88460485Y-44838737D01*
X88381263Y-44759515D01*
X88354361Y-44743983D01*
X88354359Y-44743982D01*
X90574500Y-44743982D01*
X90574500Y-44856018D01*
X90600072Y-44951455D01*
X90603498Y-44964241D01*
X90649538Y-45043983D01*
X90659515Y-45061263D01*
X90738737Y-45140485D01*
X90765641Y-45156018D01*
X90835759Y-45196501D01*
X90835757Y-45196501D01*
X90835761Y-45196502D01*
X90835763Y-45196503D01*
X90943982Y-45225500D01*
X90943984Y-45225500D01*
X91056016Y-45225500D01*
X91056018Y-45225500D01*
X91164237Y-45196503D01*
X91164239Y-45196501D01*
X91164241Y-45196501D01*
X91193064Y-45179859D01*
X91261263Y-45140485D01*
X91340485Y-45061263D01*
X91396503Y-44964237D01*
X91425500Y-44856018D01*
X91425500Y-44743982D01*
X91396503Y-44635763D01*
X91396501Y-44635760D01*
X91396501Y-44635758D01*
X91340486Y-44538739D01*
X91340485Y-44538737D01*
X91261263Y-44459515D01*
X91261260Y-44459513D01*
X91164240Y-44403498D01*
X91164242Y-44403498D01*
X91122251Y-44392247D01*
X91056018Y-44374500D01*
X90943982Y-44374500D01*
X90877748Y-44392247D01*
X90835758Y-44403498D01*
X90738739Y-44459513D01*
X90659513Y-44538739D01*
X90603498Y-44635758D01*
X90587286Y-44696263D01*
X90574500Y-44743982D01*
X88354359Y-44743982D01*
X88284240Y-44703498D01*
X88284242Y-44703498D01*
X88242251Y-44692247D01*
X88176018Y-44674500D01*
X88063982Y-44674500D01*
X87997748Y-44692247D01*
X87955758Y-44703498D01*
X87858739Y-44759513D01*
X87779513Y-44838739D01*
X87723498Y-44935758D01*
X87707286Y-44996263D01*
X87694500Y-45043982D01*
X77648706Y-45043982D01*
X77559183Y-45006901D01*
X77423944Y-44980000D01*
X76905001Y-44980000D01*
X76905000Y-44980001D01*
X76905000Y-45380000D01*
X76705000Y-45380000D01*
X76705000Y-44980001D01*
X76704999Y-44980000D01*
X76186055Y-44980000D01*
X76050816Y-45006901D01*
X75923428Y-45059666D01*
X75808779Y-45136271D01*
X75711271Y-45233779D01*
X75634666Y-45348428D01*
X75581901Y-45475816D01*
X75581901Y-45475818D01*
X75561177Y-45580000D01*
X73718822Y-45580000D01*
X73698098Y-45475818D01*
X73698098Y-45475816D01*
X73645333Y-45348428D01*
X73568728Y-45233779D01*
X73471220Y-45136271D01*
X73356571Y-45059666D01*
X73229183Y-45006901D01*
X73093944Y-44980000D01*
X72725001Y-44980000D01*
X72725000Y-44980001D01*
X72725000Y-45380000D01*
X72525000Y-45380000D01*
X72525000Y-44980001D01*
X72524999Y-44980000D01*
X72156055Y-44980000D01*
X72020816Y-45006901D01*
X71893428Y-45059666D01*
X71778779Y-45136271D01*
X71681271Y-45233779D01*
X71604666Y-45348428D01*
X71551901Y-45475816D01*
X71551901Y-45475818D01*
X71531177Y-45580000D01*
X70500500Y-45580000D01*
X70500500Y-43643982D01*
X90574500Y-43643982D01*
X90574500Y-43756018D01*
X90600072Y-43851455D01*
X90603498Y-43864241D01*
X90659513Y-43961260D01*
X90659515Y-43961263D01*
X90738737Y-44040485D01*
X90738739Y-44040486D01*
X90835759Y-44096501D01*
X90835757Y-44096501D01*
X90835761Y-44096502D01*
X90835763Y-44096503D01*
X90943982Y-44125500D01*
X90943984Y-44125500D01*
X91056016Y-44125500D01*
X91056018Y-44125500D01*
X91164237Y-44096503D01*
X91164239Y-44096501D01*
X91164241Y-44096501D01*
X91193064Y-44079859D01*
X91261263Y-44040485D01*
X91340485Y-43961263D01*
X91396503Y-43864237D01*
X91425500Y-43756018D01*
X91425500Y-43643982D01*
X91396503Y-43535763D01*
X91396501Y-43535760D01*
X91396501Y-43535758D01*
X91340486Y-43438739D01*
X91340485Y-43438737D01*
X91261263Y-43359515D01*
X91261260Y-43359513D01*
X91164240Y-43303498D01*
X91164242Y-43303498D01*
X91122251Y-43292247D01*
X91056018Y-43274500D01*
X90943982Y-43274500D01*
X90877748Y-43292247D01*
X90835758Y-43303498D01*
X90738739Y-43359513D01*
X90659513Y-43438739D01*
X90603498Y-43535758D01*
X90603497Y-43535763D01*
X90574500Y-43643982D01*
X70500500Y-43643982D01*
X70500500Y-39943982D01*
X74074500Y-39943982D01*
X74074500Y-40056018D01*
X74100072Y-40151455D01*
X74103498Y-40164241D01*
X74159513Y-40261260D01*
X74159515Y-40261263D01*
X74238737Y-40340485D01*
X74238739Y-40340486D01*
X74335759Y-40396501D01*
X74335757Y-40396501D01*
X74335761Y-40396502D01*
X74335763Y-40396503D01*
X74443982Y-40425500D01*
X74443984Y-40425500D01*
X74556016Y-40425500D01*
X74556018Y-40425500D01*
X74664237Y-40396503D01*
X74664239Y-40396501D01*
X74664241Y-40396501D01*
X74693064Y-40379859D01*
X74761263Y-40340485D01*
X74840485Y-40261263D01*
X74896503Y-40164237D01*
X74925500Y-40056018D01*
X74925500Y-39943982D01*
X80974500Y-39943982D01*
X80974500Y-40056018D01*
X81000072Y-40151455D01*
X81003498Y-40164241D01*
X81059513Y-40261260D01*
X81059515Y-40261263D01*
X81138737Y-40340485D01*
X81138739Y-40340486D01*
X81235759Y-40396501D01*
X81235757Y-40396501D01*
X81235761Y-40396502D01*
X81235763Y-40396503D01*
X81343982Y-40425500D01*
X81343984Y-40425500D01*
X81456016Y-40425500D01*
X81456018Y-40425500D01*
X81564237Y-40396503D01*
X81564239Y-40396501D01*
X81564241Y-40396501D01*
X81593064Y-40379859D01*
X81661263Y-40340485D01*
X81740485Y-40261263D01*
X81796503Y-40164237D01*
X81825500Y-40056018D01*
X81825500Y-39943982D01*
X81796503Y-39835763D01*
X81796501Y-39835760D01*
X81796501Y-39835758D01*
X81740486Y-39738739D01*
X81740485Y-39738737D01*
X81661263Y-39659515D01*
X81661260Y-39659513D01*
X81564240Y-39603498D01*
X81564242Y-39603498D01*
X81522251Y-39592247D01*
X81456018Y-39574500D01*
X81343982Y-39574500D01*
X81277748Y-39592247D01*
X81235758Y-39603498D01*
X81138739Y-39659513D01*
X81059513Y-39738739D01*
X81003498Y-39835758D01*
X81003497Y-39835763D01*
X80974500Y-39943982D01*
X74925500Y-39943982D01*
X74896503Y-39835763D01*
X74896501Y-39835760D01*
X74896501Y-39835758D01*
X74840486Y-39738739D01*
X74840485Y-39738737D01*
X74761263Y-39659515D01*
X74761260Y-39659513D01*
X74664240Y-39603498D01*
X74664242Y-39603498D01*
X74622251Y-39592247D01*
X74556018Y-39574500D01*
X74443982Y-39574500D01*
X74377748Y-39592247D01*
X74335758Y-39603498D01*
X74238739Y-39659513D01*
X74159513Y-39738739D01*
X74103498Y-39835758D01*
X74103497Y-39835763D01*
X74074500Y-39943982D01*
X70500500Y-39943982D01*
X70500500Y-39093982D01*
X85324500Y-39093982D01*
X85324500Y-39206018D01*
X85350072Y-39301455D01*
X85353498Y-39314241D01*
X85409513Y-39411260D01*
X85409515Y-39411263D01*
X85488737Y-39490485D01*
X85488739Y-39490486D01*
X85585759Y-39546501D01*
X85585757Y-39546501D01*
X85585761Y-39546502D01*
X85585763Y-39546503D01*
X85693982Y-39575500D01*
X85693984Y-39575500D01*
X85806016Y-39575500D01*
X85806018Y-39575500D01*
X85914237Y-39546503D01*
X85914239Y-39546501D01*
X85914241Y-39546501D01*
X85943064Y-39529859D01*
X86011263Y-39490485D01*
X86090485Y-39411263D01*
X86146503Y-39314237D01*
X86175500Y-39206018D01*
X86175500Y-39093982D01*
X86146503Y-38985763D01*
X86146501Y-38985760D01*
X86146501Y-38985758D01*
X86090486Y-38888739D01*
X86090485Y-38888737D01*
X86011263Y-38809515D01*
X86011260Y-38809513D01*
X85914240Y-38753498D01*
X85914242Y-38753498D01*
X85872251Y-38742247D01*
X85806018Y-38724500D01*
X85693982Y-38724500D01*
X85627748Y-38742247D01*
X85585758Y-38753498D01*
X85488739Y-38809513D01*
X85409513Y-38888739D01*
X85353498Y-38985758D01*
X85353497Y-38985763D01*
X85324500Y-39093982D01*
X70500500Y-39093982D01*
X70500500Y-37943982D01*
X93574500Y-37943982D01*
X93574500Y-38056018D01*
X93600072Y-38151455D01*
X93603498Y-38164241D01*
X93659513Y-38261260D01*
X93659515Y-38261263D01*
X93738737Y-38340485D01*
X93738739Y-38340486D01*
X93835759Y-38396501D01*
X93835757Y-38396501D01*
X93835761Y-38396502D01*
X93835763Y-38396503D01*
X93943982Y-38425500D01*
X93943984Y-38425500D01*
X94056016Y-38425500D01*
X94056018Y-38425500D01*
X94164237Y-38396503D01*
X94164239Y-38396501D01*
X94164241Y-38396501D01*
X94193064Y-38379859D01*
X94261263Y-38340485D01*
X94340485Y-38261263D01*
X94396503Y-38164237D01*
X94425500Y-38056018D01*
X94425500Y-37943982D01*
X94396503Y-37835763D01*
X94396501Y-37835760D01*
X94396501Y-37835758D01*
X94340486Y-37738739D01*
X94340485Y-37738737D01*
X94261263Y-37659515D01*
X94261260Y-37659513D01*
X94164240Y-37603498D01*
X94164242Y-37603498D01*
X94122251Y-37592247D01*
X94056018Y-37574500D01*
X93943982Y-37574500D01*
X93877748Y-37592247D01*
X93835758Y-37603498D01*
X93738739Y-37659513D01*
X93659513Y-37738739D01*
X93603498Y-37835758D01*
X93603497Y-37835763D01*
X93574500Y-37943982D01*
X70500500Y-37943982D01*
X70500500Y-36743982D01*
X84574500Y-36743982D01*
X84574500Y-36856018D01*
X84600072Y-36951455D01*
X84603498Y-36964241D01*
X84659513Y-37061260D01*
X84659515Y-37061263D01*
X84738737Y-37140485D01*
X84738739Y-37140486D01*
X84835759Y-37196501D01*
X84835757Y-37196501D01*
X84835761Y-37196502D01*
X84835763Y-37196503D01*
X84943982Y-37225500D01*
X84943984Y-37225500D01*
X85056016Y-37225500D01*
X85056018Y-37225500D01*
X85164237Y-37196503D01*
X85164239Y-37196501D01*
X85164241Y-37196501D01*
X85193064Y-37179859D01*
X85261263Y-37140485D01*
X85340485Y-37061263D01*
X85396503Y-36964237D01*
X85425500Y-36856018D01*
X85425500Y-36743982D01*
X85396503Y-36635763D01*
X85396501Y-36635760D01*
X85396501Y-36635758D01*
X85340486Y-36538739D01*
X85340485Y-36538737D01*
X85261263Y-36459515D01*
X85261260Y-36459513D01*
X85164240Y-36403498D01*
X85164242Y-36403498D01*
X85122251Y-36392247D01*
X85056018Y-36374500D01*
X84943982Y-36374500D01*
X84877748Y-36392247D01*
X84835758Y-36403498D01*
X84738739Y-36459513D01*
X84659513Y-36538739D01*
X84603498Y-36635758D01*
X84603497Y-36635763D01*
X84574500Y-36743982D01*
X70500500Y-36743982D01*
X70500500Y-35943982D01*
X82274500Y-35943982D01*
X82274500Y-36056018D01*
X82300072Y-36151455D01*
X82303498Y-36164241D01*
X82359513Y-36261260D01*
X82359515Y-36261263D01*
X82438737Y-36340485D01*
X82438739Y-36340486D01*
X82535759Y-36396501D01*
X82535757Y-36396501D01*
X82535761Y-36396502D01*
X82535763Y-36396503D01*
X82643982Y-36425500D01*
X82643984Y-36425500D01*
X82756016Y-36425500D01*
X82756018Y-36425500D01*
X82864237Y-36396503D01*
X82864239Y-36396501D01*
X82864241Y-36396501D01*
X82902347Y-36374500D01*
X82961263Y-36340485D01*
X83040485Y-36261263D01*
X83096503Y-36164237D01*
X83125500Y-36056018D01*
X83125500Y-35943982D01*
X83096503Y-35835763D01*
X83096501Y-35835760D01*
X83096501Y-35835758D01*
X83040486Y-35738739D01*
X83040485Y-35738737D01*
X82961263Y-35659515D01*
X82961260Y-35659513D01*
X82864240Y-35603498D01*
X82864242Y-35603498D01*
X82822251Y-35592247D01*
X82756018Y-35574500D01*
X82643982Y-35574500D01*
X82577748Y-35592247D01*
X82535758Y-35603498D01*
X82438739Y-35659513D01*
X82359513Y-35738739D01*
X82303498Y-35835758D01*
X82303497Y-35835763D01*
X82274500Y-35943982D01*
X70500500Y-35943982D01*
X70500500Y-34002435D01*
X70500619Y-33997578D01*
X70510153Y-33803504D01*
X70517113Y-33661824D01*
X70518063Y-33652186D01*
X70567029Y-33322080D01*
X70568918Y-33312582D01*
X70650009Y-32988849D01*
X70652818Y-32979590D01*
X70765249Y-32665367D01*
X70768958Y-32656412D01*
X70911644Y-32354728D01*
X70916211Y-32346185D01*
X71087780Y-32059938D01*
X71093163Y-32051883D01*
X71291957Y-31783841D01*
X71298107Y-31776346D01*
X71522228Y-31529067D01*
X71529067Y-31522228D01*
X71776346Y-31298107D01*
X71783841Y-31291957D01*
X72051883Y-31093163D01*
X72059938Y-31087780D01*
X72346185Y-30916211D01*
X72354728Y-30911644D01*
X72656412Y-30768958D01*
X72665367Y-30765249D01*
X72979590Y-30652818D01*
X72988849Y-30650009D01*
X73312582Y-30568918D01*
X73322080Y-30567029D01*
X73652186Y-30518063D01*
X73661824Y-30517113D01*
X73970606Y-30501944D01*
X73997579Y-30500619D01*
X74002436Y-30500500D01*
X74065892Y-30500500D01*
X115934108Y-30500500D01*
X115997564Y-30500500D01*
X116002421Y-30500619D01*
G37*
%TD.AperFunction*%
%TD*%
M02*
