%TF.GenerationSoftware,KiCad,Pcbnew,10.0.6*%
%TF.CreationDate,2026-09-18T11:43:59+02:00*%
%TF.ProjectId,kicad_td,6b696361-645f-4746-942e-6b696361645f,rev?*%
%TF.SameCoordinates,Original*%
%TF.FileFunction,Soldermask,Bot*%
%TF.FilePolarity,Negative*%
%FSLAX46Y46*%
G04 Gerber Fmt 4.6, Leading zero omitted, Abs format (unit mm)*
G04 Created by KiCad (PCBNEW 10.0.6) date 2026-09-18 11:43:59*
%MOMM*%
%LPD*%
G01*
G04 APERTURE LIST*
%ADD10C,0.800000*%
%ADD11C,6.400000*%
%ADD12C,0.650000*%
%ADD13O,2.100000X1.000000*%
%ADD14O,1.800000X1.000000*%
G04 APERTURE END LIST*
D10*
%TO.C,H4*%
X113600000Y-66000000D03*
X114302944Y-64302944D03*
X114302944Y-67697056D03*
X116000000Y-63600000D03*
D11*
X116000000Y-66000000D03*
D10*
X116000000Y-68400000D03*
X117697056Y-64302944D03*
X117697056Y-67697056D03*
X118400000Y-66000000D03*
%TD*%
%TO.C,H3*%
X71600000Y-66000000D03*
X72302944Y-64302944D03*
X72302944Y-67697056D03*
X74000000Y-63600000D03*
D11*
X74000000Y-66000000D03*
D10*
X74000000Y-68400000D03*
X75697056Y-64302944D03*
X75697056Y-67697056D03*
X76400000Y-66000000D03*
%TD*%
%TO.C,H2*%
X113600000Y-34000000D03*
X114302944Y-32302944D03*
X114302944Y-35697056D03*
X116000000Y-31600000D03*
D11*
X116000000Y-34000000D03*
D10*
X116000000Y-36400000D03*
X117697056Y-32302944D03*
X117697056Y-35697056D03*
X118400000Y-34000000D03*
%TD*%
%TO.C,H1*%
X71600000Y-34000000D03*
X72302944Y-32302944D03*
X72302944Y-35697056D03*
X74000000Y-31600000D03*
D11*
X74000000Y-34000000D03*
D10*
X74000000Y-36400000D03*
X75697056Y-32302944D03*
X75697056Y-35697056D03*
X76400000Y-34000000D03*
%TD*%
D12*
%TO.C,J1*%
X76305000Y-47110000D03*
X76305000Y-52890000D03*
D13*
X76805000Y-45680000D03*
D14*
X72625000Y-45680000D03*
D13*
X76805000Y-54320000D03*
D14*
X72625000Y-54320000D03*
%TD*%
M02*
