M48
; DRILL file KiCad 10.0.6 date 2026-09-18T11:43:55
; FORMAT={-:-/ absolute / metric / decimal}
; #@! TF.CreationDate,2026-09-18T11:43:55+02:00
; #@! TF.GenerationSoftware,Kicad,Pcbnew,10.0.6
; #@! TF.FileFunction,Plated,1,4,PTH
FMAT,2
METRIC
; #@! TA.AperFunction,Plated,PTH,ViaDrill
T1C0.300
; #@! TA.AperFunction,Plated,PTH,ComponentDrill
T2C0.500
; #@! TA.AperFunction,Plated,PTH,ComponentDrill
T3C0.600
; #@! TA.AperFunction,Plated,PTH,ComponentDrill
T4C3.200
%
G90
G05
T1
X74.5Y-40.0
X76.7Y-44.0
X76.7Y-56.0
X78.2Y-46.8
X78.2Y-47.6
X78.2Y-52.4
X78.2Y-53.2
X78.9Y-49.8
X80.0Y-50.0
X81.4Y-40.0
X82.0Y-49.3
X82.2Y-50.0
X82.7Y-36.0
X83.1Y-38.137
X84.1Y-39.1
X85.0Y-36.8
X85.75Y-39.15
X85.8Y-51.6
X88.12Y-45.1
X88.5Y-46.4
X89.08Y-45.1
X89.6Y-45.6
X91.0Y-43.7
X91.0Y-44.8
X91.3Y-57.6
X91.8Y-43.7
X91.8Y-44.8
X94.0Y-38.0
X95.5Y-33.212
X96.3Y-54.4
X97.5Y-53.5
X100.3Y-50.4
X100.8Y-53.7
X101.9Y-55.38
X103.08Y-54.6
X111.95Y-50.6
X113.4Y-47.5
X113.4Y-52.5
T2
X71.6Y-34.0
X71.6Y-66.0
X72.303Y-32.303
X72.303Y-35.697
X72.303Y-64.303
X72.303Y-67.697
X74.0Y-31.6
X74.0Y-36.4
X74.0Y-63.6
X74.0Y-68.4
X75.697Y-32.303
X75.697Y-35.697
X75.697Y-64.303
X75.697Y-67.697
X76.4Y-34.0
X76.4Y-66.0
X113.6Y-34.0
X113.6Y-66.0
X114.303Y-32.303
X114.303Y-35.697
X114.303Y-64.303
X114.303Y-67.697
X116.0Y-31.6
X116.0Y-36.4
X116.0Y-63.6
X116.0Y-68.4
X117.697Y-32.303
X117.697Y-35.697
X117.697Y-64.303
X117.697Y-67.697
X118.4Y-34.0
X118.4Y-66.0
T4
X74.0Y-34.0
X74.0Y-66.0
X116.0Y-34.0
X116.0Y-66.0
T3
G00X73.025Y-45.68
M15
G01X72.225Y-45.68
M16
G05
G00X73.025Y-54.32
M15
G01X72.225Y-54.32
M16
G05
G00X77.355Y-45.68
M15
G01X76.255Y-45.68
M16
G05
G00X77.355Y-54.32
M15
G01X76.255Y-54.32
M16
G05
M30
